<mxfile host="Electron" agent="Mozilla/5.0 (Macintosh; Intel Mac OS X 10_15_7) AppleWebKit/537.36 (KHTML, like Gecko) draw.io/27.0.5 Chrome/134.0.6998.205 Electron/35.3.0 Safari/537.36" version="27.0.5" pages="8">
  <diagram id="06QNbRGZ6SxuKinJaIPx" name="Pipeline">
    <mxGraphModel dx="976" dy="757" grid="1" gridSize="10" guides="1" tooltips="1" connect="1" arrows="1" fold="1" page="1" pageScale="1" pageWidth="1169" pageHeight="827" math="0" shadow="0">
      <root>
        <mxCell id="0" />
        <mxCell id="1" parent="0" />
        <mxCell id="mzkTkH4k9Sk52uxaSCo--1" style="edgeStyle=orthogonalEdgeStyle;rounded=0;orthogonalLoop=1;jettySize=auto;html=1;exitX=1;exitY=0.5;exitDx=0;exitDy=0;entryX=0;entryY=0.5;entryDx=0;entryDy=0;fontSize=16;fontFamily=Roboto;" parent="1" source="cCbHvPFu9ZaUmKwJfHuv-2" target="--kXWtrjGQUQ7Ga1ha7b-7" edge="1">
          <mxGeometry relative="1" as="geometry" />
        </mxCell>
        <mxCell id="cCbHvPFu9ZaUmKwJfHuv-2" value="&lt;font&gt;Real News&lt;/font&gt;&lt;div&gt;&lt;font&gt;(K samples)&lt;/font&gt;&lt;/div&gt;" style="rounded=0;whiteSpace=wrap;html=1;fontFamily=Roboto;fontSize=16;labelBackgroundColor=none;fillColor=#d5e8d4;strokeColor=#82b366;" parent="1" vertex="1">
          <mxGeometry x="40" y="120" width="160" height="60" as="geometry" />
        </mxCell>
        <mxCell id="Qe8j-PhWoUOnvd8X45-O-1" value="&lt;div style=&quot;text-align: center;&quot;&gt;&lt;span style=&quot;background-color: transparent; color: light-dark(rgb(0, 0, 0), rgb(255, 255, 255));&quot;&gt;&lt;b&gt;Key Features&lt;/b&gt;&lt;/span&gt;&lt;/div&gt;&lt;ul style=&quot;margin-top: 8px; margin-bottom: 0px;&quot;&gt;&lt;li&gt;&lt;span style=&quot;background-color: transparent; font-size: 12px;&quot;&gt;N-way-K-shot (N=2, K=3-16)&lt;/span&gt;&lt;/li&gt;&lt;li&gt;&lt;font style=&quot;font-size: 12px;&quot;&gt;Transductive Learning&lt;/font&gt;&lt;/li&gt;&lt;li&gt;&lt;font style=&quot;font-size: 12px;&quot;&gt;Train on labeled nodes only&lt;/font&gt;&lt;/li&gt;&lt;li&gt;&lt;font style=&quot;font-size: 12px;&quot;&gt;Message passing through all nodes&lt;br&gt;&lt;/font&gt;&lt;/li&gt;&lt;/ul&gt;" style="rounded=1;html=1;fontFamily=Roboto;fontSize=16;fontColor=default;labelBackgroundColor=none;align=left;verticalAlign=top;whiteSpace=wrap;labelBorderColor=none;labelPosition=center;verticalLabelPosition=middle;spacingTop=0;spacing=2;spacingBottom=0;" parent="1" vertex="1">
          <mxGeometry x="750" y="295" width="250" height="121" as="geometry" />
        </mxCell>
        <mxCell id="mzkTkH4k9Sk52uxaSCo--3" style="edgeStyle=orthogonalEdgeStyle;rounded=0;orthogonalLoop=1;jettySize=auto;html=1;exitX=1;exitY=0.5;exitDx=0;exitDy=0;entryX=0;entryY=0.5;entryDx=0;entryDy=0;fontSize=16;fontFamily=Roboto;" parent="1" source="--kXWtrjGQUQ7Ga1ha7b-1" target="--kXWtrjGQUQ7Ga1ha7b-7" edge="1">
          <mxGeometry relative="1" as="geometry" />
        </mxCell>
        <mxCell id="--kXWtrjGQUQ7Ga1ha7b-1" value="&lt;font&gt;Fake News&lt;/font&gt;&lt;div&gt;&lt;font&gt;(K samples)&lt;/font&gt;&lt;/div&gt;" style="rounded=0;whiteSpace=wrap;html=1;fontFamily=Roboto;fontSize=16;labelBackgroundColor=none;fillColor=#f8cecc;strokeColor=#b85450;" parent="1" vertex="1">
          <mxGeometry x="40" y="200" width="160" height="60" as="geometry" />
        </mxCell>
        <mxCell id="mzkTkH4k9Sk52uxaSCo--4" style="edgeStyle=orthogonalEdgeStyle;rounded=0;orthogonalLoop=1;jettySize=auto;html=1;exitX=1;exitY=0.5;exitDx=0;exitDy=0;entryX=0;entryY=0.5;entryDx=0;entryDy=0;fontSize=16;fontFamily=Roboto;" parent="1" source="--kXWtrjGQUQ7Ga1ha7b-2" target="--kXWtrjGQUQ7Ga1ha7b-7" edge="1">
          <mxGeometry relative="1" as="geometry">
            <mxPoint x="260" y="339.9999999999999" as="targetPoint" />
          </mxGeometry>
        </mxCell>
        <mxCell id="--kXWtrjGQUQ7Ga1ha7b-2" value="&lt;font&gt;Unlabled News&lt;/font&gt;" style="rounded=0;whiteSpace=wrap;html=1;fontFamily=Roboto;fontSize=16;labelBackgroundColor=none;fillColor=#bac8d3;strokeColor=#23445d;" parent="1" vertex="1">
          <mxGeometry x="40" y="280" width="160" height="60" as="geometry" />
        </mxCell>
        <mxCell id="mzkTkH4k9Sk52uxaSCo--5" style="edgeStyle=orthogonalEdgeStyle;rounded=0;orthogonalLoop=1;jettySize=auto;html=1;exitX=1;exitY=0.5;exitDx=0;exitDy=0;entryX=0;entryY=0.5;entryDx=0;entryDy=0;fontSize=16;fontFamily=Roboto;" parent="1" source="--kXWtrjGQUQ7Ga1ha7b-3" target="--kXWtrjGQUQ7Ga1ha7b-7" edge="1">
          <mxGeometry relative="1" as="geometry" />
        </mxCell>
        <mxCell id="--kXWtrjGQUQ7Ga1ha7b-3" value="&lt;font&gt;Test News&lt;/font&gt;" style="rounded=0;whiteSpace=wrap;html=1;fontFamily=Roboto;fontSize=16;labelBackgroundColor=none;fillColor=#dae8fc;strokeColor=#6c8ebf;" parent="1" vertex="1">
          <mxGeometry x="40" y="360" width="160" height="60" as="geometry" />
        </mxCell>
        <mxCell id="mzkTkH4k9Sk52uxaSCo--9" value="&lt;font style=&quot;font-size: 18px;&quot;&gt;Input Data&lt;/font&gt;" style="text;strokeColor=none;fillColor=none;html=1;fontSize=24;fontStyle=1;verticalAlign=middle;align=center;fontFamily=Roboto;" parent="1" vertex="1">
          <mxGeometry x="40" y="70" width="160" height="40" as="geometry" />
        </mxCell>
        <mxCell id="4C8wqy29mX-fYEp5gRAe-127" value="" style="group" parent="1" vertex="1" connectable="0">
          <mxGeometry x="280" y="80" width="720" height="150" as="geometry" />
        </mxCell>
        <mxCell id="mzkTkH4k9Sk52uxaSCo--6" style="edgeStyle=orthogonalEdgeStyle;rounded=0;orthogonalLoop=1;jettySize=auto;html=1;exitX=1;exitY=0.5;exitDx=0;exitDy=0;entryX=0;entryY=0.5;entryDx=0;entryDy=0;fontSize=16;fontFamily=Roboto;" parent="4C8wqy29mX-fYEp5gRAe-127" source="--kXWtrjGQUQ7Ga1ha7b-7" target="--kXWtrjGQUQ7Ga1ha7b-8" edge="1">
          <mxGeometry relative="1" as="geometry" />
        </mxCell>
        <mxCell id="--kXWtrjGQUQ7Ga1ha7b-7" value="Embeddings" style="rounded=1;whiteSpace=wrap;html=1;fontFamily=Roboto;labelBackgroundColor=none;fillColor=#ffe6cc;strokeColor=#d79b00;fontSize=16;" parent="4C8wqy29mX-fYEp5gRAe-127" vertex="1">
          <mxGeometry y="70" width="120" height="80" as="geometry" />
        </mxCell>
        <mxCell id="mzkTkH4k9Sk52uxaSCo--7" style="edgeStyle=orthogonalEdgeStyle;rounded=0;orthogonalLoop=1;jettySize=auto;html=1;exitX=1;exitY=0.5;exitDx=0;exitDy=0;entryX=0;entryY=0.5;entryDx=0;entryDy=0;fontSize=16;fontFamily=Roboto;" parent="4C8wqy29mX-fYEp5gRAe-127" source="--kXWtrjGQUQ7Ga1ha7b-8" target="--kXWtrjGQUQ7Ga1ha7b-9" edge="1">
          <mxGeometry relative="1" as="geometry" />
        </mxCell>
        <mxCell id="--kXWtrjGQUQ7Ga1ha7b-8" value="Dynamic&lt;div&gt;Edge&lt;/div&gt;&lt;div&gt;Construction&lt;/div&gt;" style="rounded=1;whiteSpace=wrap;html=1;fontFamily=Roboto;labelBackgroundColor=none;fillColor=#d5e8d4;strokeColor=#82b366;fontSize=16;" parent="4C8wqy29mX-fYEp5gRAe-127" vertex="1">
          <mxGeometry x="200" y="70" width="120" height="80" as="geometry" />
        </mxCell>
        <mxCell id="mzkTkH4k9Sk52uxaSCo--8" style="edgeStyle=orthogonalEdgeStyle;rounded=0;orthogonalLoop=1;jettySize=auto;html=1;exitX=1;exitY=0.5;exitDx=0;exitDy=0;entryX=0;entryY=0.5;entryDx=0;entryDy=0;fontSize=16;fontFamily=Roboto;" parent="4C8wqy29mX-fYEp5gRAe-127" source="--kXWtrjGQUQ7Ga1ha7b-9" target="--kXWtrjGQUQ7Ga1ha7b-10" edge="1">
          <mxGeometry relative="1" as="geometry" />
        </mxCell>
        <mxCell id="--kXWtrjGQUQ7Ga1ha7b-9" value="Graph&lt;div&gt;Attention&lt;div&gt;Network&lt;/div&gt;&lt;/div&gt;" style="rounded=1;whiteSpace=wrap;html=1;fontFamily=Roboto;labelBackgroundColor=none;fillColor=#cce5ff;strokeColor=#36393d;fontSize=16;" parent="4C8wqy29mX-fYEp5gRAe-127" vertex="1">
          <mxGeometry x="400" y="70" width="120" height="80" as="geometry" />
        </mxCell>
        <mxCell id="--kXWtrjGQUQ7Ga1ha7b-10" value="Node&lt;div&gt;Classification&lt;/div&gt;" style="rounded=1;whiteSpace=wrap;html=1;fontFamily=Roboto;labelBackgroundColor=none;fillColor=#e1d5e7;strokeColor=#9673a6;fontSize=16;" parent="4C8wqy29mX-fYEp5gRAe-127" vertex="1">
          <mxGeometry x="600" y="70" width="120" height="80" as="geometry" />
        </mxCell>
        <mxCell id="mzkTkH4k9Sk52uxaSCo--10" value="&lt;font style=&quot;font-size: 18px;&quot;&gt;Text&lt;/font&gt;&lt;div&gt;&lt;font style=&quot;font-size: 18px;&quot;&gt;Encoder&lt;/font&gt;&lt;/div&gt;" style="text;strokeColor=none;fillColor=none;html=1;fontSize=24;fontStyle=1;verticalAlign=middle;align=center;fontFamily=Roboto;" parent="4C8wqy29mX-fYEp5gRAe-127" vertex="1">
          <mxGeometry width="120" height="60" as="geometry" />
        </mxCell>
        <mxCell id="mzkTkH4k9Sk52uxaSCo--11" value="&lt;font style=&quot;font-size: 18px;&quot;&gt;Graph&lt;/font&gt;&lt;div&gt;&lt;font style=&quot;font-size: 18px;&quot;&gt;Construction&lt;/font&gt;&lt;/div&gt;" style="text;strokeColor=none;fillColor=none;html=1;fontSize=24;fontStyle=1;verticalAlign=middle;align=center;fontFamily=Roboto;" parent="4C8wqy29mX-fYEp5gRAe-127" vertex="1">
          <mxGeometry x="200" width="120" height="60" as="geometry" />
        </mxCell>
        <mxCell id="mzkTkH4k9Sk52uxaSCo--12" value="&lt;span style=&quot;font-size: 18px;&quot;&gt;GNN&lt;/span&gt;&lt;div&gt;&lt;span style=&quot;font-size: 18px;&quot;&gt;Layer&lt;/span&gt;&lt;/div&gt;" style="text;strokeColor=none;fillColor=none;html=1;fontSize=24;fontStyle=1;verticalAlign=middle;align=center;fontFamily=Roboto;" parent="4C8wqy29mX-fYEp5gRAe-127" vertex="1">
          <mxGeometry x="400" width="120" height="60" as="geometry" />
        </mxCell>
        <mxCell id="mzkTkH4k9Sk52uxaSCo--13" value="&lt;span style=&quot;font-size: 18px;&quot;&gt;Output&lt;/span&gt;" style="text;strokeColor=none;fillColor=none;html=1;fontSize=24;fontStyle=1;verticalAlign=middle;align=center;fontFamily=Roboto;" parent="4C8wqy29mX-fYEp5gRAe-127" vertex="1">
          <mxGeometry x="600" width="120" height="60" as="geometry" />
        </mxCell>
        <mxCell id="4C8wqy29mX-fYEp5gRAe-88" value="Graph" parent="0" />
        <mxCell id="4C8wqy29mX-fYEp5gRAe-122" value="" style="group" parent="4C8wqy29mX-fYEp5gRAe-88" vertex="1" connectable="0">
          <mxGeometry x="480" y="250" width="210" height="210.00000000000006" as="geometry" />
        </mxCell>
        <mxCell id="4C8wqy29mX-fYEp5gRAe-90" value="" style="ellipse;whiteSpace=wrap;html=1;aspect=fixed;fontFamily=Roboto;fontSize=11;fontColor=default;labelBackgroundColor=default;fillColor=none;dashed=1;dashPattern=8 8;" parent="4C8wqy29mX-fYEp5gRAe-122" vertex="1">
          <mxGeometry width="210" height="210" as="geometry" />
        </mxCell>
        <mxCell id="4C8wqy29mX-fYEp5gRAe-89" style="rounded=0;orthogonalLoop=1;jettySize=auto;html=1;exitX=0.5;exitY=0.5;exitDx=0;exitDy=0;exitPerimeter=0;entryX=0.5;entryY=0.5;entryDx=0;entryDy=0;entryPerimeter=0;endArrow=none;startFill=0;fontFamily=Roboto;" parent="4C8wqy29mX-fYEp5gRAe-122" source="4C8wqy29mX-fYEp5gRAe-72" target="4C8wqy29mX-fYEp5gRAe-22" edge="1">
          <mxGeometry relative="1" as="geometry" />
        </mxCell>
        <mxCell id="4C8wqy29mX-fYEp5gRAe-20" style="edgeStyle=none;shape=connector;rounded=0;orthogonalLoop=1;jettySize=auto;html=1;exitX=0.5;exitY=0.5;exitDx=0;exitDy=0;exitPerimeter=0;entryX=0.5;entryY=0.5;entryDx=0;entryDy=0;entryPerimeter=0;strokeColor=default;align=center;verticalAlign=middle;fontFamily=Roboto;fontSize=11;fontColor=default;labelBackgroundColor=default;startFill=0;startSize=6;endArrow=none;endSize=6;" parent="4C8wqy29mX-fYEp5gRAe-122" source="4C8wqy29mX-fYEp5gRAe-10" target="4C8wqy29mX-fYEp5gRAe-18" edge="1">
          <mxGeometry relative="1" as="geometry" />
        </mxCell>
        <mxCell id="4C8wqy29mX-fYEp5gRAe-21" style="edgeStyle=none;shape=connector;rounded=0;orthogonalLoop=1;jettySize=auto;html=1;exitX=0.5;exitY=0.5;exitDx=0;exitDy=0;exitPerimeter=0;entryX=0.5;entryY=0.5;entryDx=0;entryDy=0;entryPerimeter=0;strokeColor=default;align=center;verticalAlign=middle;fontFamily=Roboto;fontSize=11;fontColor=default;labelBackgroundColor=default;startFill=0;endArrow=none;" parent="4C8wqy29mX-fYEp5gRAe-122" source="4C8wqy29mX-fYEp5gRAe-16" target="4C8wqy29mX-fYEp5gRAe-18" edge="1">
          <mxGeometry relative="1" as="geometry" />
        </mxCell>
        <mxCell id="4C8wqy29mX-fYEp5gRAe-24" style="edgeStyle=none;shape=connector;rounded=0;orthogonalLoop=1;jettySize=auto;html=1;exitX=0.5;exitY=0.5;exitDx=0;exitDy=0;exitPerimeter=0;entryX=0.5;entryY=0.5;entryDx=0;entryDy=0;entryPerimeter=0;strokeColor=default;align=center;verticalAlign=middle;fontFamily=Roboto;fontSize=11;fontColor=default;labelBackgroundColor=default;startFill=0;startSize=6;endArrow=none;endSize=6;" parent="4C8wqy29mX-fYEp5gRAe-122" source="4C8wqy29mX-fYEp5gRAe-6" target="4C8wqy29mX-fYEp5gRAe-22" edge="1">
          <mxGeometry relative="1" as="geometry" />
        </mxCell>
        <mxCell id="4C8wqy29mX-fYEp5gRAe-25" style="edgeStyle=none;shape=connector;rounded=0;orthogonalLoop=1;jettySize=auto;html=1;exitX=0.5;exitY=0.5;exitDx=0;exitDy=0;exitPerimeter=0;entryX=0.5;entryY=0.5;entryDx=0;entryDy=0;entryPerimeter=0;strokeColor=default;align=center;verticalAlign=middle;fontFamily=Roboto;fontSize=11;fontColor=default;labelBackgroundColor=default;startFill=0;startSize=6;endArrow=none;endSize=6;" parent="4C8wqy29mX-fYEp5gRAe-122" source="4C8wqy29mX-fYEp5gRAe-18" target="4C8wqy29mX-fYEp5gRAe-22" edge="1">
          <mxGeometry relative="1" as="geometry" />
        </mxCell>
        <mxCell id="4C8wqy29mX-fYEp5gRAe-34" style="edgeStyle=none;shape=connector;rounded=0;orthogonalLoop=1;jettySize=auto;html=1;exitX=0.5;exitY=0.5;exitDx=0;exitDy=0;exitPerimeter=0;entryX=0.5;entryY=0.5;entryDx=0;entryDy=0;entryPerimeter=0;strokeColor=default;align=center;verticalAlign=middle;fontFamily=Roboto;fontSize=11;fontColor=default;labelBackgroundColor=default;startFill=0;endArrow=none;" parent="4C8wqy29mX-fYEp5gRAe-122" source="4C8wqy29mX-fYEp5gRAe-31" target="4C8wqy29mX-fYEp5gRAe-33" edge="1">
          <mxGeometry relative="1" as="geometry">
            <mxPoint x="228.42857142857144" y="107.79000000000002" as="sourcePoint" />
          </mxGeometry>
        </mxCell>
        <mxCell id="4C8wqy29mX-fYEp5gRAe-36" style="edgeStyle=none;shape=connector;rounded=0;orthogonalLoop=1;jettySize=auto;html=1;exitX=0.5;exitY=0.5;exitDx=0;exitDy=0;exitPerimeter=0;entryX=0.5;entryY=0.5;entryDx=0;entryDy=0;entryPerimeter=0;strokeColor=default;align=center;verticalAlign=middle;fontFamily=Roboto;fontSize=11;fontColor=default;labelBackgroundColor=default;startFill=0;startSize=6;endArrow=none;endSize=6;" parent="4C8wqy29mX-fYEp5gRAe-122" source="4C8wqy29mX-fYEp5gRAe-32" target="4C8wqy29mX-fYEp5gRAe-33" edge="1">
          <mxGeometry relative="1" as="geometry" />
        </mxCell>
        <mxCell id="4C8wqy29mX-fYEp5gRAe-37" style="rounded=0;orthogonalLoop=1;jettySize=auto;html=1;exitX=0.5;exitY=0.5;exitDx=0;exitDy=0;exitPerimeter=0;entryX=0.5;entryY=0.5;entryDx=0;entryDy=0;entryPerimeter=0;endArrow=none;startFill=0;startSize=6;endSize=6;fontFamily=Roboto;" parent="4C8wqy29mX-fYEp5gRAe-122" source="4C8wqy29mX-fYEp5gRAe-18" target="4C8wqy29mX-fYEp5gRAe-33" edge="1">
          <mxGeometry relative="1" as="geometry" />
        </mxCell>
        <mxCell id="4C8wqy29mX-fYEp5gRAe-39" style="edgeStyle=none;shape=connector;rounded=0;orthogonalLoop=1;jettySize=auto;html=1;exitX=0.5;exitY=0.5;exitDx=0;exitDy=0;exitPerimeter=0;entryX=0.5;entryY=0.5;entryDx=0;entryDy=0;entryPerimeter=0;strokeColor=default;align=center;verticalAlign=middle;fontFamily=Roboto;fontSize=11;fontColor=default;labelBackgroundColor=default;startFill=0;endArrow=none;" parent="4C8wqy29mX-fYEp5gRAe-122" source="4C8wqy29mX-fYEp5gRAe-18" target="4C8wqy29mX-fYEp5gRAe-38" edge="1">
          <mxGeometry relative="1" as="geometry" />
        </mxCell>
        <mxCell id="4C8wqy29mX-fYEp5gRAe-40" style="edgeStyle=none;shape=connector;rounded=0;orthogonalLoop=1;jettySize=auto;html=1;exitX=0.5;exitY=0.5;exitDx=0;exitDy=0;exitPerimeter=0;entryX=0.5;entryY=0.5;entryDx=0;entryDy=0;entryPerimeter=0;strokeColor=default;align=center;verticalAlign=middle;fontFamily=Roboto;fontSize=11;fontColor=default;labelBackgroundColor=default;startFill=0;endArrow=none;" parent="4C8wqy29mX-fYEp5gRAe-122" source="4C8wqy29mX-fYEp5gRAe-38" target="4C8wqy29mX-fYEp5gRAe-22" edge="1">
          <mxGeometry relative="1" as="geometry" />
        </mxCell>
        <mxCell id="4C8wqy29mX-fYEp5gRAe-46" style="edgeStyle=none;shape=connector;rounded=0;orthogonalLoop=1;jettySize=auto;html=1;exitX=0.5;exitY=0.5;exitDx=0;exitDy=0;exitPerimeter=0;entryX=0.5;entryY=0.5;entryDx=0;entryDy=0;entryPerimeter=0;strokeColor=default;align=center;verticalAlign=middle;fontFamily=Roboto;fontSize=11;fontColor=default;labelBackgroundColor=default;startFill=0;endArrow=none;" parent="4C8wqy29mX-fYEp5gRAe-122" source="4C8wqy29mX-fYEp5gRAe-45" target="4C8wqy29mX-fYEp5gRAe-33" edge="1">
          <mxGeometry relative="1" as="geometry" />
        </mxCell>
        <mxCell id="4C8wqy29mX-fYEp5gRAe-67" style="edgeStyle=none;shape=connector;rounded=0;orthogonalLoop=1;jettySize=auto;html=1;exitX=0.5;exitY=0.5;exitDx=0;exitDy=0;exitPerimeter=0;strokeColor=default;align=center;verticalAlign=middle;fontFamily=Roboto;fontSize=11;fontColor=default;labelBackgroundColor=default;startFill=0;startSize=6;endArrow=none;endSize=6;entryX=0.5;entryY=0.5;entryDx=0;entryDy=0;entryPerimeter=0;" parent="4C8wqy29mX-fYEp5gRAe-122" source="4C8wqy29mX-fYEp5gRAe-66" target="4C8wqy29mX-fYEp5gRAe-22" edge="1">
          <mxGeometry relative="1" as="geometry">
            <mxPoint x="67.28571428571433" y="90.64714285714291" as="targetPoint" />
          </mxGeometry>
        </mxCell>
        <mxCell id="4C8wqy29mX-fYEp5gRAe-69" style="edgeStyle=none;shape=connector;rounded=0;orthogonalLoop=1;jettySize=auto;html=1;exitX=0.5;exitY=0.5;exitDx=0;exitDy=0;exitPerimeter=0;entryX=0.5;entryY=0.5;entryDx=0;entryDy=0;entryPerimeter=0;strokeColor=default;align=center;verticalAlign=middle;fontFamily=Roboto;fontSize=11;fontColor=default;labelBackgroundColor=default;startFill=0;startSize=6;endArrow=none;endSize=6;" parent="4C8wqy29mX-fYEp5gRAe-122" source="4C8wqy29mX-fYEp5gRAe-68" target="4C8wqy29mX-fYEp5gRAe-22" edge="1">
          <mxGeometry relative="1" as="geometry" />
        </mxCell>
        <mxCell id="4C8wqy29mX-fYEp5gRAe-73" style="edgeStyle=none;shape=connector;rounded=0;orthogonalLoop=1;jettySize=auto;html=1;exitX=0.5;exitY=0.5;exitDx=0;exitDy=0;exitPerimeter=0;entryX=0.5;entryY=0.5;entryDx=0;entryDy=0;entryPerimeter=0;strokeColor=default;align=center;verticalAlign=middle;fontFamily=Roboto;fontSize=11;fontColor=default;labelBackgroundColor=default;startFill=0;endArrow=none;" parent="4C8wqy29mX-fYEp5gRAe-122" source="4C8wqy29mX-fYEp5gRAe-72" target="4C8wqy29mX-fYEp5gRAe-33" edge="1">
          <mxGeometry relative="1" as="geometry" />
        </mxCell>
        <mxCell id="4C8wqy29mX-fYEp5gRAe-75" style="edgeStyle=none;shape=connector;rounded=0;orthogonalLoop=1;jettySize=auto;html=1;exitX=0.5;exitY=0.5;exitDx=0;exitDy=0;exitPerimeter=0;entryX=0.5;entryY=0.5;entryDx=0;entryDy=0;entryPerimeter=0;strokeColor=default;align=center;verticalAlign=middle;fontFamily=Roboto;fontSize=11;fontColor=default;labelBackgroundColor=default;startFill=0;startSize=6;endArrow=none;endSize=6;" parent="4C8wqy29mX-fYEp5gRAe-122" source="4C8wqy29mX-fYEp5gRAe-56" target="4C8wqy29mX-fYEp5gRAe-72" edge="1">
          <mxGeometry relative="1" as="geometry" />
        </mxCell>
        <mxCell id="4C8wqy29mX-fYEp5gRAe-76" style="edgeStyle=none;shape=connector;rounded=0;orthogonalLoop=1;jettySize=auto;html=1;exitX=0.5;exitY=0.5;exitDx=0;exitDy=0;exitPerimeter=0;strokeColor=default;align=center;verticalAlign=middle;fontFamily=Roboto;fontSize=11;fontColor=default;labelBackgroundColor=default;startFill=0;startSize=6;endArrow=none;endSize=6;entryX=0.5;entryY=0.5;entryDx=0;entryDy=0;entryPerimeter=0;" parent="4C8wqy29mX-fYEp5gRAe-122" source="4C8wqy29mX-fYEp5gRAe-60" target="4C8wqy29mX-fYEp5gRAe-72" edge="1">
          <mxGeometry relative="1" as="geometry">
            <mxPoint x="74.14285714285711" y="111.21857142857147" as="targetPoint" />
          </mxGeometry>
        </mxCell>
        <mxCell id="4C8wqy29mX-fYEp5gRAe-77" style="edgeStyle=none;shape=connector;rounded=0;orthogonalLoop=1;jettySize=auto;html=1;exitX=0.5;exitY=0.5;exitDx=0;exitDy=0;exitPerimeter=0;entryX=0.5;entryY=0.5;entryDx=0;entryDy=0;entryPerimeter=0;strokeColor=default;align=center;verticalAlign=middle;fontFamily=Roboto;fontSize=11;fontColor=default;labelBackgroundColor=default;startFill=0;endArrow=none;" parent="4C8wqy29mX-fYEp5gRAe-122" source="4C8wqy29mX-fYEp5gRAe-58" target="4C8wqy29mX-fYEp5gRAe-72" edge="1">
          <mxGeometry relative="1" as="geometry" />
        </mxCell>
        <mxCell id="4C8wqy29mX-fYEp5gRAe-79" style="edgeStyle=none;shape=connector;rounded=0;orthogonalLoop=1;jettySize=auto;html=1;exitX=0.5;exitY=0.5;exitDx=0;exitDy=0;exitPerimeter=0;strokeColor=default;align=center;verticalAlign=middle;fontFamily=Roboto;fontSize=11;fontColor=default;labelBackgroundColor=default;startFill=0;startSize=6;endArrow=none;endSize=6;entryX=0.5;entryY=0.5;entryDx=0;entryDy=0;entryPerimeter=0;" parent="4C8wqy29mX-fYEp5gRAe-122" source="4C8wqy29mX-fYEp5gRAe-78" target="4C8wqy29mX-fYEp5gRAe-42" edge="1">
          <mxGeometry relative="1" as="geometry" />
        </mxCell>
        <mxCell id="4C8wqy29mX-fYEp5gRAe-80" style="edgeStyle=none;shape=connector;rounded=0;orthogonalLoop=1;jettySize=auto;html=1;exitX=0.5;exitY=0.5;exitDx=0;exitDy=0;exitPerimeter=0;entryX=0.5;entryY=0.5;entryDx=0;entryDy=0;entryPerimeter=0;strokeColor=default;align=center;verticalAlign=middle;fontFamily=Roboto;fontSize=11;fontColor=default;labelBackgroundColor=default;startFill=0;startSize=6;endArrow=none;endSize=6;" parent="4C8wqy29mX-fYEp5gRAe-122" source="4C8wqy29mX-fYEp5gRAe-72" target="4C8wqy29mX-fYEp5gRAe-78" edge="1">
          <mxGeometry relative="1" as="geometry" />
        </mxCell>
        <mxCell id="4C8wqy29mX-fYEp5gRAe-83" style="edgeStyle=none;shape=connector;rounded=0;orthogonalLoop=1;jettySize=auto;html=1;exitX=0.5;exitY=0.5;exitDx=0;exitDy=0;exitPerimeter=0;entryX=0.5;entryY=0.5;entryDx=0;entryDy=0;entryPerimeter=0;strokeColor=default;align=center;verticalAlign=middle;fontFamily=Roboto;fontSize=11;fontColor=default;labelBackgroundColor=default;startFill=0;endArrow=none;" parent="4C8wqy29mX-fYEp5gRAe-122" source="4C8wqy29mX-fYEp5gRAe-15" target="4C8wqy29mX-fYEp5gRAe-82" edge="1">
          <mxGeometry relative="1" as="geometry" />
        </mxCell>
        <mxCell id="4C8wqy29mX-fYEp5gRAe-84" style="edgeStyle=none;shape=connector;rounded=0;orthogonalLoop=1;jettySize=auto;html=1;exitX=0.5;exitY=0.5;exitDx=0;exitDy=0;exitPerimeter=0;strokeColor=default;align=center;verticalAlign=middle;fontFamily=Roboto;fontSize=11;fontColor=default;labelBackgroundColor=default;startFill=0;startSize=6;endArrow=none;endSize=6;entryX=0.5;entryY=0.5;entryDx=0;entryDy=0;entryPerimeter=0;" parent="4C8wqy29mX-fYEp5gRAe-122" source="4C8wqy29mX-fYEp5gRAe-78" target="4C8wqy29mX-fYEp5gRAe-82" edge="1">
          <mxGeometry relative="1" as="geometry" />
        </mxCell>
        <mxCell id="4C8wqy29mX-fYEp5gRAe-85" style="edgeStyle=none;shape=connector;rounded=0;orthogonalLoop=1;jettySize=auto;html=1;exitX=0.5;exitY=0.5;exitDx=0;exitDy=0;exitPerimeter=0;entryX=0.5;entryY=0.5;entryDx=0;entryDy=0;entryPerimeter=0;strokeColor=default;align=center;verticalAlign=middle;fontFamily=Roboto;fontSize=11;fontColor=default;labelBackgroundColor=default;startFill=0;startSize=6;endArrow=none;endSize=6;" parent="4C8wqy29mX-fYEp5gRAe-122" source="4C8wqy29mX-fYEp5gRAe-82" target="4C8wqy29mX-fYEp5gRAe-33" edge="1">
          <mxGeometry relative="1" as="geometry" />
        </mxCell>
        <mxCell id="4C8wqy29mX-fYEp5gRAe-86" style="edgeStyle=none;shape=connector;rounded=0;orthogonalLoop=1;jettySize=auto;html=1;exitX=0.5;exitY=0.5;exitDx=0;exitDy=0;exitPerimeter=0;entryX=0.5;entryY=0.5;entryDx=0;entryDy=0;entryPerimeter=0;strokeColor=default;align=center;verticalAlign=middle;fontFamily=Roboto;fontSize=11;fontColor=default;labelBackgroundColor=default;startFill=0;startSize=6;endArrow=none;endSize=6;" parent="4C8wqy29mX-fYEp5gRAe-122" source="4C8wqy29mX-fYEp5gRAe-72" target="4C8wqy29mX-fYEp5gRAe-82" edge="1">
          <mxGeometry relative="1" as="geometry" />
        </mxCell>
        <mxCell id="4C8wqy29mX-fYEp5gRAe-1" value="" style="group;fontFamily=Roboto;" parent="4C8wqy29mX-fYEp5gRAe-122" vertex="1" connectable="0">
          <mxGeometry x="87.85714285714289" y="90.64714285714291" width="34.285714285714285" height="68.57142857142857" as="geometry" />
        </mxCell>
        <mxCell id="4C8wqy29mX-fYEp5gRAe-6" value="" style="ellipse;whiteSpace=wrap;html=1;aspect=fixed;fillColor=#647687;strokeColor=#314354;fontColor=#ffffff;points=[[0.5,0.5,0,0,0]];container=0;fontFamily=Roboto;" parent="4C8wqy29mX-fYEp5gRAe-122" vertex="1">
          <mxGeometry x="82" y="37.792857142857144" width="15" height="15" as="geometry" />
        </mxCell>
        <mxCell id="4C8wqy29mX-fYEp5gRAe-10" value="" style="ellipse;whiteSpace=wrap;html=1;aspect=fixed;fillColor=#647687;strokeColor=#314354;fontColor=#ffffff;points=[[0.5,0.5,0,0,0]];container=0;fontFamily=Roboto;" parent="4C8wqy29mX-fYEp5gRAe-122" vertex="1">
          <mxGeometry x="129" y="28.932857142857188" width="15" height="15" as="geometry" />
        </mxCell>
        <mxCell id="4C8wqy29mX-fYEp5gRAe-15" value="" style="ellipse;whiteSpace=wrap;html=1;aspect=fixed;fillColor=#647687;strokeColor=#314354;fontColor=#ffffff;points=[[0.5,0.5,0,0,0]];container=0;fontFamily=Roboto;" parent="4C8wqy29mX-fYEp5gRAe-122" vertex="1">
          <mxGeometry x="130.71428571428578" y="159.21857142857147" width="15" height="15" as="geometry" />
        </mxCell>
        <mxCell id="4C8wqy29mX-fYEp5gRAe-16" value="" style="ellipse;whiteSpace=wrap;html=1;aspect=fixed;fillColor=#b1ddf0;strokeColor=#10739e;points=[[0.5,0.5,0,0,0]];container=0;fontFamily=Roboto;" parent="4C8wqy29mX-fYEp5gRAe-122" vertex="1">
          <mxGeometry x="149.57142857142856" y="49.50428571428574" width="15" height="15" as="geometry" />
        </mxCell>
        <mxCell id="4C8wqy29mX-fYEp5gRAe-18" value="" style="ellipse;whiteSpace=wrap;html=1;aspect=fixed;fillColor=#e51400;strokeColor=#B20000;fontColor=#ffffff;points=[[0.5,0.5,0,0,0]];container=0;fontFamily=Roboto;" parent="4C8wqy29mX-fYEp5gRAe-122" vertex="1">
          <mxGeometry x="110.14285714285711" y="63.218571428571465" width="15" height="15" as="geometry" />
        </mxCell>
        <mxCell id="4C8wqy29mX-fYEp5gRAe-22" value="" style="ellipse;whiteSpace=wrap;html=1;aspect=fixed;fillColor=#e51400;strokeColor=#B20000;fontColor=#ffffff;points=[[0.5,0.5,0,0,0]];container=0;fontFamily=Roboto;" parent="4C8wqy29mX-fYEp5gRAe-122" vertex="1">
          <mxGeometry x="67.28571428571433" y="70.0757142857143" width="15" height="15" as="geometry" />
        </mxCell>
        <mxCell id="4C8wqy29mX-fYEp5gRAe-31" value="" style="ellipse;whiteSpace=wrap;html=1;aspect=fixed;fillColor=#647687;strokeColor=#314354;fontColor=#ffffff;points=[[0.5,0.5,0,0,0]];container=0;fontFamily=Roboto;" parent="4C8wqy29mX-fYEp5gRAe-122" vertex="1">
          <mxGeometry x="183.8571428571429" y="67.78571428571428" width="15" height="15" as="geometry" />
        </mxCell>
        <mxCell id="4C8wqy29mX-fYEp5gRAe-32" value="" style="ellipse;whiteSpace=wrap;html=1;aspect=fixed;fillColor=#647687;strokeColor=#314354;fontColor=#ffffff;points=[[0.5,0.5,0,0,0]];container=0;fontFamily=Roboto;" parent="4C8wqy29mX-fYEp5gRAe-122" vertex="1">
          <mxGeometry x="190.71428571428578" y="111.21857142857147" width="15" height="15" as="geometry" />
        </mxCell>
        <mxCell id="4C8wqy29mX-fYEp5gRAe-33" value="" style="ellipse;whiteSpace=wrap;html=1;aspect=fixed;fillColor=#008a00;strokeColor=#005700;fontColor=#ffffff;points=[[0.5,0.5,0,0,0]];container=0;fontFamily=Roboto;" parent="4C8wqy29mX-fYEp5gRAe-122" vertex="1">
          <mxGeometry x="142.71428571428578" y="97.50428571428574" width="15" height="15" as="geometry" />
        </mxCell>
        <mxCell id="4C8wqy29mX-fYEp5gRAe-38" value="" style="ellipse;whiteSpace=wrap;html=1;aspect=fixed;fillColor=#e51400;strokeColor=#B20000;fontColor=#ffffff;points=[[0.5,0.5,0,0,0]];container=0;fontFamily=Roboto;" parent="4C8wqy29mX-fYEp5gRAe-122" vertex="1">
          <mxGeometry x="101.57142857142856" y="90.64714285714291" width="15" height="15" as="geometry" />
        </mxCell>
        <mxCell id="4C8wqy29mX-fYEp5gRAe-42" value="" style="ellipse;whiteSpace=wrap;html=1;aspect=fixed;fillColor=#b1ddf0;strokeColor=#10739e;points=[[0.5,0.5,0,0,0]];container=0;fontFamily=Roboto;" parent="4C8wqy29mX-fYEp5gRAe-122" vertex="1">
          <mxGeometry x="87.85714285714289" y="179.79000000000002" width="15" height="15" as="geometry" />
        </mxCell>
        <mxCell id="4C8wqy29mX-fYEp5gRAe-45" value="" style="ellipse;whiteSpace=wrap;html=1;aspect=fixed;fillColor=#b1ddf0;strokeColor=#10739e;points=[[0.5,0.5,0,0,0]];container=0;fontFamily=Roboto;" parent="4C8wqy29mX-fYEp5gRAe-122" vertex="1">
          <mxGeometry x="170.1428571428571" y="138.6471428571429" width="15" height="15" as="geometry" />
        </mxCell>
        <mxCell id="4C8wqy29mX-fYEp5gRAe-56" value="" style="ellipse;whiteSpace=wrap;html=1;aspect=fixed;fillColor=#647687;strokeColor=#314354;fontColor=#ffffff;points=[[0.5,0.5,0,0,0]];container=0;fontFamily=Roboto;" parent="4C8wqy29mX-fYEp5gRAe-122" vertex="1">
          <mxGeometry x="39.85714285714289" y="159.21857142857147" width="15" height="15" as="geometry" />
        </mxCell>
        <mxCell id="4C8wqy29mX-fYEp5gRAe-58" value="" style="ellipse;whiteSpace=wrap;html=1;aspect=fixed;fillColor=#b1ddf0;strokeColor=#10739e;points=[[0.5,0.5,0,0,0]];container=0;fontFamily=Roboto;" parent="4C8wqy29mX-fYEp5gRAe-122" vertex="1">
          <mxGeometry x="29.571428571428555" y="131.79000000000002" width="15" height="15" as="geometry" />
        </mxCell>
        <mxCell id="4C8wqy29mX-fYEp5gRAe-60" value="" style="ellipse;whiteSpace=wrap;html=1;aspect=fixed;fillColor=#647687;strokeColor=#314354;fontColor=#ffffff;points=[[0.5,0.5,0,0,0]];container=0;fontFamily=Roboto;" parent="4C8wqy29mX-fYEp5gRAe-122" vertex="1">
          <mxGeometry x="19.285714285714334" y="97.50428571428574" width="15" height="15" as="geometry" />
        </mxCell>
        <mxCell id="4C8wqy29mX-fYEp5gRAe-66" value="" style="ellipse;whiteSpace=wrap;html=1;aspect=fixed;fillColor=#b1ddf0;strokeColor=#10739e;points=[[0.5,0.5,0,0,0]];container=0;fontFamily=Roboto;" parent="4C8wqy29mX-fYEp5gRAe-122" vertex="1">
          <mxGeometry x="19.285714285714334" y="63.218571428571465" width="15" height="15" as="geometry" />
        </mxCell>
        <mxCell id="4C8wqy29mX-fYEp5gRAe-68" value="" style="ellipse;whiteSpace=wrap;html=1;aspect=fixed;fillColor=#647687;strokeColor=#314354;fontColor=#ffffff;points=[[0.5,0.5,0,0,0]];container=0;fontFamily=Roboto;" parent="4C8wqy29mX-fYEp5gRAe-122" vertex="1">
          <mxGeometry x="44.997142857142876" y="27.787142857142896" width="15" height="15" as="geometry" />
        </mxCell>
        <mxCell id="4C8wqy29mX-fYEp5gRAe-72" value="" style="ellipse;whiteSpace=wrap;html=1;aspect=fixed;fillColor=#008a00;strokeColor=#005700;fontColor=#ffffff;points=[[0.5,0.5,0,0,0]];container=0;fontFamily=Roboto;" parent="4C8wqy29mX-fYEp5gRAe-122" vertex="1">
          <mxGeometry x="67.28571428571433" y="111.21857142857147" width="15" height="15" as="geometry" />
        </mxCell>
        <mxCell id="4C8wqy29mX-fYEp5gRAe-78" value="" style="ellipse;whiteSpace=wrap;html=1;aspect=fixed;fillColor=#647687;strokeColor=#314354;fontColor=#ffffff;points=[[0.5,0.5,0,0,0]];container=0;fontFamily=Roboto;" parent="4C8wqy29mX-fYEp5gRAe-122" vertex="1">
          <mxGeometry x="94.71428571428578" y="138.6471428571429" width="15" height="15" as="geometry" />
        </mxCell>
        <mxCell id="4C8wqy29mX-fYEp5gRAe-82" value="" style="ellipse;whiteSpace=wrap;html=1;aspect=fixed;fillColor=#008a00;strokeColor=#005700;fontColor=#ffffff;points=[[0.5,0.5,0,0,0]];container=0;fontFamily=Roboto;" parent="4C8wqy29mX-fYEp5gRAe-122" vertex="1">
          <mxGeometry x="122.14285714285711" y="124.93285714285713" width="15" height="15" as="geometry" />
        </mxCell>
        <mxCell id="4C8wqy29mX-fYEp5gRAe-126" value="" style="group" parent="4C8wqy29mX-fYEp5gRAe-88" vertex="1" connectable="0">
          <mxGeometry x="280" y="295" width="140" height="120" as="geometry" />
        </mxCell>
        <mxCell id="4C8wqy29mX-fYEp5gRAe-93" value="&lt;font style=&quot;font-size: 14px;&quot;&gt;&lt;b style=&quot;&quot;&gt;Legend&lt;/b&gt;&lt;/font&gt;" style="rounded=1;whiteSpace=wrap;html=1;fontFamily=Roboto;fontSize=11;fontColor=default;labelBackgroundColor=default;verticalAlign=top;" parent="4C8wqy29mX-fYEp5gRAe-126" vertex="1">
          <mxGeometry width="140" height="120" as="geometry" />
        </mxCell>
        <mxCell id="4C8wqy29mX-fYEp5gRAe-120" value="" style="group" parent="4C8wqy29mX-fYEp5gRAe-126" vertex="1" connectable="0">
          <mxGeometry x="11" y="28.999999999999943" width="118" height="80" as="geometry" />
        </mxCell>
        <mxCell id="4C8wqy29mX-fYEp5gRAe-94" value="" style="ellipse;whiteSpace=wrap;html=1;aspect=fixed;fillColor=#e51400;strokeColor=#B20000;fontColor=#ffffff;points=[[0.5,0.5,0,0,0]];container=0;fontFamily=Roboto;fontSize=15;" parent="4C8wqy29mX-fYEp5gRAe-120" vertex="1">
          <mxGeometry y="22" width="15" height="15" as="geometry" />
        </mxCell>
        <mxCell id="4C8wqy29mX-fYEp5gRAe-95" value="Real News" style="text;html=1;align=right;verticalAlign=middle;whiteSpace=wrap;rounded=0;fontFamily=Roboto;fontSize=12;fontColor=default;labelBackgroundColor=none;" parent="4C8wqy29mX-fYEp5gRAe-120" vertex="1">
          <mxGeometry x="18" width="100" height="20" as="geometry" />
        </mxCell>
        <mxCell id="4C8wqy29mX-fYEp5gRAe-102" value="" style="ellipse;whiteSpace=wrap;html=1;aspect=fixed;fillColor=#647687;strokeColor=#314354;fontColor=#ffffff;points=[[0.5,0.5,0,0,0]];container=0;fontFamily=Roboto;fontSize=15;" parent="4C8wqy29mX-fYEp5gRAe-120" vertex="1">
          <mxGeometry y="42" width="15" height="15" as="geometry" />
        </mxCell>
        <mxCell id="4C8wqy29mX-fYEp5gRAe-103" value="" style="ellipse;whiteSpace=wrap;html=1;aspect=fixed;fillColor=#b1ddf0;strokeColor=#10739e;points=[[0.5,0.5,0,0,0]];container=0;fontFamily=Roboto;fontSize=15;" parent="4C8wqy29mX-fYEp5gRAe-120" vertex="1">
          <mxGeometry y="62" width="15" height="15" as="geometry" />
        </mxCell>
        <mxCell id="4C8wqy29mX-fYEp5gRAe-104" value="" style="ellipse;whiteSpace=wrap;html=1;aspect=fixed;fillColor=#008a00;strokeColor=#005700;fontColor=#ffffff;points=[[0.5,0.5,0,0,0]];container=0;fontFamily=Roboto;fontSize=15;" parent="4C8wqy29mX-fYEp5gRAe-120" vertex="1">
          <mxGeometry y="2" width="15" height="15" as="geometry" />
        </mxCell>
        <mxCell id="4C8wqy29mX-fYEp5gRAe-113" value="Fake News" style="text;html=1;align=right;verticalAlign=middle;whiteSpace=wrap;rounded=0;fontFamily=Roboto;fontSize=12;fontColor=default;labelBackgroundColor=none;" parent="4C8wqy29mX-fYEp5gRAe-120" vertex="1">
          <mxGeometry x="18" y="20" width="100" height="20" as="geometry" />
        </mxCell>
        <mxCell id="4C8wqy29mX-fYEp5gRAe-114" value="Unlabeled News" style="text;html=1;align=right;verticalAlign=middle;whiteSpace=wrap;rounded=0;fontFamily=Roboto;fontSize=12;fontColor=default;labelBackgroundColor=none;" parent="4C8wqy29mX-fYEp5gRAe-120" vertex="1">
          <mxGeometry x="18" y="40" width="100" height="20" as="geometry" />
        </mxCell>
        <mxCell id="4C8wqy29mX-fYEp5gRAe-115" value="Test News" style="text;html=1;align=right;verticalAlign=middle;whiteSpace=wrap;rounded=0;fontFamily=Roboto;fontSize=12;fontColor=default;labelBackgroundColor=none;" parent="4C8wqy29mX-fYEp5gRAe-120" vertex="1">
          <mxGeometry x="18" y="60" width="100" height="20" as="geometry" />
        </mxCell>
      </root>
    </mxGraphModel>
  </diagram>
  <diagram id="vQMe6Y9JTR38MWjVn0yg" name="Input Data">
    <mxGraphModel dx="976" dy="757" grid="1" gridSize="10" guides="1" tooltips="1" connect="1" arrows="1" fold="1" page="1" pageScale="1" pageWidth="1169" pageHeight="827" math="0" shadow="0">
      <root>
        <mxCell id="0" />
        <mxCell id="1" parent="0" />
        <mxCell id="Wo3js5FBZS1HAXfX8BO2-1" value="" style="rounded=0;whiteSpace=wrap;html=1;fillColor=none;" vertex="1" parent="1">
          <mxGeometry x="120" y="220" width="560" height="170" as="geometry" />
        </mxCell>
        <mxCell id="0_lcMYCZTuP4_AKLmphp-1" value="&lt;font style=&quot;font-size: 18px;&quot;&gt;Dataset&lt;/font&gt;" style="text;strokeColor=none;fillColor=none;html=1;fontSize=24;fontStyle=1;verticalAlign=middle;align=center;fontFamily=Roboto;" vertex="1" parent="1">
          <mxGeometry x="120" y="180" width="560" height="40" as="geometry" />
        </mxCell>
        <mxCell id="0_lcMYCZTuP4_AKLmphp-2" value="&lt;font style=&quot;font-size: 18px;&quot; face=&quot;Roboto&quot;&gt;Train&lt;/font&gt;" style="rounded=1;whiteSpace=wrap;html=1;verticalAlign=top;fillColor=#ffe6cc;strokeColor=#d79b00;" vertex="1" parent="1">
          <mxGeometry x="140" y="230" width="250" height="150" as="geometry" />
        </mxCell>
        <mxCell id="0_lcMYCZTuP4_AKLmphp-3" value="&lt;font style=&quot;font-size: 18px;&quot; face=&quot;Roboto&quot;&gt;Test&lt;/font&gt;" style="rounded=1;whiteSpace=wrap;html=1;verticalAlign=top;fillColor=#fff2cc;strokeColor=#d6b656;" vertex="1" parent="1">
          <mxGeometry x="410" y="230" width="250" height="150" as="geometry" />
        </mxCell>
        <mxCell id="b0FMu3lXU0xcerbdefwu-5" value="" style="group" vertex="1" connectable="0" parent="1">
          <mxGeometry x="420" y="270" width="230" height="90" as="geometry" />
        </mxCell>
        <mxCell id="3eW07SBegZC8yEu0kKVt-1" value="" style="group" vertex="1" connectable="0" parent="b0FMu3lXU0xcerbdefwu-5">
          <mxGeometry width="70" height="90" as="geometry" />
        </mxCell>
        <mxCell id="3eW07SBegZC8yEu0kKVt-2" value="Real&lt;div&gt;News&lt;/div&gt;" style="html=1;verticalLabelPosition=middle;align=center;labelBackgroundColor=none;verticalAlign=middle;strokeWidth=2;strokeColor=#6c8ebf;shadow=0;dashed=0;shape=mxgraph.ios7.icons.document;labelPosition=center;fillColor=#dae8fc;" vertex="1" parent="3eW07SBegZC8yEu0kKVt-1">
          <mxGeometry x="20" width="50" height="70" as="geometry" />
        </mxCell>
        <mxCell id="3eW07SBegZC8yEu0kKVt-3" value="Real&lt;div&gt;News&lt;/div&gt;" style="html=1;verticalLabelPosition=middle;align=center;labelBackgroundColor=none;verticalAlign=middle;strokeWidth=2;strokeColor=#6c8ebf;shadow=0;dashed=0;shape=mxgraph.ios7.icons.document;labelPosition=center;fillColor=#dae8fc;" vertex="1" parent="3eW07SBegZC8yEu0kKVt-1">
          <mxGeometry x="10" y="9" width="50" height="70" as="geometry" />
        </mxCell>
        <mxCell id="3eW07SBegZC8yEu0kKVt-4" value="&lt;span style=&quot;background-color: transparent;&quot;&gt;News&lt;/span&gt;" style="html=1;verticalLabelPosition=middle;align=center;labelBackgroundColor=none;verticalAlign=middle;strokeWidth=2;strokeColor=#6c8ebf;shadow=0;dashed=0;shape=mxgraph.ios7.icons.document;labelPosition=center;fillColor=#dae8fc;fontColor=#000000;" vertex="1" parent="3eW07SBegZC8yEu0kKVt-1">
          <mxGeometry y="20" width="50" height="70" as="geometry" />
        </mxCell>
        <mxCell id="3eW07SBegZC8yEu0kKVt-5" value="" style="group" vertex="1" connectable="0" parent="b0FMu3lXU0xcerbdefwu-5">
          <mxGeometry x="80" width="70" height="90" as="geometry" />
        </mxCell>
        <mxCell id="3eW07SBegZC8yEu0kKVt-6" value="Real&lt;div&gt;News&lt;/div&gt;" style="html=1;verticalLabelPosition=middle;align=center;labelBackgroundColor=none;verticalAlign=middle;strokeWidth=2;strokeColor=#6c8ebf;shadow=0;dashed=0;shape=mxgraph.ios7.icons.document;labelPosition=center;fillColor=#dae8fc;" vertex="1" parent="3eW07SBegZC8yEu0kKVt-5">
          <mxGeometry x="20" width="50" height="70" as="geometry" />
        </mxCell>
        <mxCell id="3eW07SBegZC8yEu0kKVt-7" value="Real&lt;div&gt;News&lt;/div&gt;" style="html=1;verticalLabelPosition=middle;align=center;labelBackgroundColor=none;verticalAlign=middle;strokeWidth=2;strokeColor=#6c8ebf;shadow=0;dashed=0;shape=mxgraph.ios7.icons.document;labelPosition=center;fillColor=#dae8fc;" vertex="1" parent="3eW07SBegZC8yEu0kKVt-5">
          <mxGeometry x="10" y="9" width="50" height="70" as="geometry" />
        </mxCell>
        <mxCell id="3eW07SBegZC8yEu0kKVt-8" value="&lt;span style=&quot;background-color: transparent;&quot;&gt;News&lt;/span&gt;" style="html=1;verticalLabelPosition=middle;align=center;labelBackgroundColor=none;verticalAlign=middle;strokeWidth=2;strokeColor=#6c8ebf;shadow=0;dashed=0;shape=mxgraph.ios7.icons.document;labelPosition=center;fillColor=#dae8fc;fontColor=#000000;" vertex="1" parent="3eW07SBegZC8yEu0kKVt-5">
          <mxGeometry y="20" width="50" height="70" as="geometry" />
        </mxCell>
        <mxCell id="3eW07SBegZC8yEu0kKVt-9" value="" style="group" vertex="1" connectable="0" parent="b0FMu3lXU0xcerbdefwu-5">
          <mxGeometry x="160" width="70" height="90" as="geometry" />
        </mxCell>
        <mxCell id="3eW07SBegZC8yEu0kKVt-10" value="Real&lt;div&gt;News&lt;/div&gt;" style="html=1;verticalLabelPosition=middle;align=center;labelBackgroundColor=none;verticalAlign=middle;strokeWidth=2;strokeColor=#6c8ebf;shadow=0;dashed=0;shape=mxgraph.ios7.icons.document;labelPosition=center;fillColor=#dae8fc;" vertex="1" parent="3eW07SBegZC8yEu0kKVt-9">
          <mxGeometry x="20" width="50" height="70" as="geometry" />
        </mxCell>
        <mxCell id="3eW07SBegZC8yEu0kKVt-11" value="Real&lt;div&gt;News&lt;/div&gt;" style="html=1;verticalLabelPosition=middle;align=center;labelBackgroundColor=none;verticalAlign=middle;strokeWidth=2;strokeColor=#6c8ebf;shadow=0;dashed=0;shape=mxgraph.ios7.icons.document;labelPosition=center;fillColor=#dae8fc;" vertex="1" parent="3eW07SBegZC8yEu0kKVt-9">
          <mxGeometry x="10" y="9" width="50" height="70" as="geometry" />
        </mxCell>
        <mxCell id="3eW07SBegZC8yEu0kKVt-12" value="&lt;span style=&quot;background-color: transparent;&quot;&gt;News&lt;/span&gt;" style="html=1;verticalLabelPosition=middle;align=center;labelBackgroundColor=none;verticalAlign=middle;strokeWidth=2;strokeColor=#6c8ebf;shadow=0;dashed=0;shape=mxgraph.ios7.icons.document;labelPosition=center;fillColor=#dae8fc;fontColor=#000000;" vertex="1" parent="3eW07SBegZC8yEu0kKVt-9">
          <mxGeometry y="20" width="50" height="70" as="geometry" />
        </mxCell>
        <mxCell id="b0FMu3lXU0xcerbdefwu-6" value="" style="group" vertex="1" connectable="0" parent="1">
          <mxGeometry x="150" y="270" width="230" height="90" as="geometry" />
        </mxCell>
        <mxCell id="KnSvkNXG0u9dEycDp4JU-1" value="" style="group" vertex="1" connectable="0" parent="b0FMu3lXU0xcerbdefwu-6">
          <mxGeometry width="70" height="90" as="geometry" />
        </mxCell>
        <mxCell id="KnSvkNXG0u9dEycDp4JU-2" value="Real&lt;div&gt;News&lt;/div&gt;" style="html=1;verticalLabelPosition=middle;align=center;labelBackgroundColor=none;verticalAlign=middle;strokeWidth=2;strokeColor=#82b366;shadow=0;dashed=0;shape=mxgraph.ios7.icons.document;labelPosition=center;fillColor=#d5e8d4;" vertex="1" parent="KnSvkNXG0u9dEycDp4JU-1">
          <mxGeometry x="20" width="50" height="70" as="geometry" />
        </mxCell>
        <mxCell id="KnSvkNXG0u9dEycDp4JU-3" value="Real&lt;div&gt;News&lt;/div&gt;" style="html=1;verticalLabelPosition=middle;align=center;labelBackgroundColor=none;verticalAlign=middle;strokeWidth=2;strokeColor=#82b366;shadow=0;dashed=0;shape=mxgraph.ios7.icons.document;labelPosition=center;fillColor=#d5e8d4;" vertex="1" parent="KnSvkNXG0u9dEycDp4JU-1">
          <mxGeometry x="10" y="9" width="50" height="70" as="geometry" />
        </mxCell>
        <mxCell id="KnSvkNXG0u9dEycDp4JU-4" value="Real&lt;div&gt;News&lt;/div&gt;" style="html=1;verticalLabelPosition=middle;align=center;labelBackgroundColor=none;verticalAlign=middle;strokeWidth=2;strokeColor=#82b366;shadow=0;dashed=0;shape=mxgraph.ios7.icons.document;labelPosition=center;fillColor=#d5e8d4;" vertex="1" parent="KnSvkNXG0u9dEycDp4JU-1">
          <mxGeometry y="20" width="50" height="70" as="geometry" />
        </mxCell>
        <mxCell id="EFHxo6Psz-__7SV81BO5-1" value="" style="group" vertex="1" connectable="0" parent="b0FMu3lXU0xcerbdefwu-6">
          <mxGeometry x="80" width="70" height="90" as="geometry" />
        </mxCell>
        <mxCell id="EFHxo6Psz-__7SV81BO5-2" value="Fake&lt;div&gt;News&lt;/div&gt;" style="html=1;verticalLabelPosition=middle;align=center;labelBackgroundColor=none;verticalAlign=middle;strokeWidth=2;strokeColor=#b85450;shadow=0;dashed=0;shape=mxgraph.ios7.icons.document;labelPosition=center;fillColor=#f8cecc;" vertex="1" parent="EFHxo6Psz-__7SV81BO5-1">
          <mxGeometry x="20" width="50" height="70" as="geometry" />
        </mxCell>
        <mxCell id="EFHxo6Psz-__7SV81BO5-3" value="Fake&lt;div&gt;News&lt;/div&gt;" style="html=1;verticalLabelPosition=middle;align=center;labelBackgroundColor=none;verticalAlign=middle;strokeWidth=2;strokeColor=#b85450;shadow=0;dashed=0;shape=mxgraph.ios7.icons.document;labelPosition=center;fillColor=#f8cecc;" vertex="1" parent="EFHxo6Psz-__7SV81BO5-1">
          <mxGeometry x="10" y="9" width="50" height="70" as="geometry" />
        </mxCell>
        <mxCell id="EFHxo6Psz-__7SV81BO5-4" value="Fake&lt;div&gt;News&lt;/div&gt;" style="html=1;verticalLabelPosition=middle;align=center;labelBackgroundColor=none;verticalAlign=middle;strokeWidth=2;strokeColor=#b85450;shadow=0;dashed=0;shape=mxgraph.ios7.icons.document;labelPosition=center;fillColor=#f8cecc;" vertex="1" parent="EFHxo6Psz-__7SV81BO5-1">
          <mxGeometry y="20" width="50" height="70" as="geometry" />
        </mxCell>
        <mxCell id="b0FMu3lXU0xcerbdefwu-1" value="" style="group" vertex="1" connectable="0" parent="b0FMu3lXU0xcerbdefwu-6">
          <mxGeometry x="160" width="70" height="90" as="geometry" />
        </mxCell>
        <mxCell id="b0FMu3lXU0xcerbdefwu-2" value="Real&lt;div&gt;News&lt;/div&gt;" style="html=1;verticalLabelPosition=middle;align=center;labelBackgroundColor=none;verticalAlign=middle;strokeWidth=2;strokeColor=#23445d;shadow=0;dashed=0;shape=mxgraph.ios7.icons.document;labelPosition=center;fillColor=#bac8d3;" vertex="1" parent="b0FMu3lXU0xcerbdefwu-1">
          <mxGeometry x="20" width="50" height="70" as="geometry" />
        </mxCell>
        <mxCell id="b0FMu3lXU0xcerbdefwu-3" value="Real&lt;div&gt;News&lt;/div&gt;" style="html=1;verticalLabelPosition=middle;align=center;labelBackgroundColor=none;verticalAlign=middle;strokeWidth=2;strokeColor=#23445d;shadow=0;dashed=0;shape=mxgraph.ios7.icons.document;labelPosition=center;fillColor=#bac8d3;" vertex="1" parent="b0FMu3lXU0xcerbdefwu-1">
          <mxGeometry x="10" y="9" width="50" height="70" as="geometry" />
        </mxCell>
        <mxCell id="b0FMu3lXU0xcerbdefwu-4" value="&lt;div&gt;News&lt;/div&gt;" style="html=1;verticalLabelPosition=middle;align=center;labelBackgroundColor=none;verticalAlign=middle;strokeWidth=2;strokeColor=#23445d;shadow=0;dashed=0;shape=mxgraph.ios7.icons.document;labelPosition=center;fillColor=#bac8d3;" vertex="1" parent="b0FMu3lXU0xcerbdefwu-1">
          <mxGeometry y="20" width="50" height="70" as="geometry" />
        </mxCell>
        <mxCell id="vBMVcBZEWYeiF7kfQ6ev-1" value="" style="endArrow=none;dashed=1;html=1;rounded=0;entryX=0.5;entryY=1;entryDx=0;entryDy=0;exitX=0.25;exitY=0;exitDx=0;exitDy=0;" edge="1" parent="1" source="vBMVcBZEWYeiF7kfQ6ev-2" target="0_lcMYCZTuP4_AKLmphp-2">
          <mxGeometry width="50" height="50" relative="1" as="geometry">
            <mxPoint x="200" y="440" as="sourcePoint" />
            <mxPoint x="530" y="370" as="targetPoint" />
          </mxGeometry>
        </mxCell>
        <mxCell id="vBMVcBZEWYeiF7kfQ6ev-2" value="&lt;div&gt;&lt;ul style=&quot;margin-top: 12px;&quot;&gt;&lt;li&gt;&lt;span style=&quot;background-color: transparent; color: light-dark(rgb(0, 0, 0), rgb(255, 255, 255));&quot;&gt;&lt;font face=&quot;Roboto&quot; style=&quot;font-size: 14px;&quot;&gt;k real news (with label)&lt;/font&gt;&lt;/span&gt;&lt;/li&gt;&lt;li&gt;&lt;font face=&quot;Roboto&quot; style=&quot;font-size: 14px;&quot;&gt;k fake news (with label)&lt;/font&gt;&lt;/li&gt;&lt;li style=&quot;&quot;&gt;&lt;font face=&quot;Roboto&quot; style=&quot;font-size: 14px;&quot;&gt;rest news without label&lt;/font&gt;&lt;/li&gt;&lt;/ul&gt;&lt;/div&gt;" style="text;html=1;align=left;verticalAlign=middle;whiteSpace=wrap;rounded=0;" vertex="1" parent="1">
          <mxGeometry x="120" y="440" width="280" height="70" as="geometry" />
        </mxCell>
        <mxCell id="vBMVcBZEWYeiF7kfQ6ev-3" value="" style="endArrow=none;dashed=1;html=1;rounded=0;entryX=0.5;entryY=1;entryDx=0;entryDy=0;exitX=0.25;exitY=0;exitDx=0;exitDy=0;" edge="1" parent="1" source="vBMVcBZEWYeiF7kfQ6ev-4" target="0_lcMYCZTuP4_AKLmphp-3">
          <mxGeometry width="50" height="50" relative="1" as="geometry">
            <mxPoint x="490" y="430" as="sourcePoint" />
            <mxPoint x="275" y="390" as="targetPoint" />
          </mxGeometry>
        </mxCell>
        <mxCell id="vBMVcBZEWYeiF7kfQ6ev-4" value="&lt;font style=&quot;font-size: 14px;&quot;&gt;test news to be predicted&lt;/font&gt;" style="text;html=1;align=left;verticalAlign=middle;whiteSpace=wrap;rounded=0;" vertex="1" parent="1">
          <mxGeometry x="400" y="440" width="280" height="70" as="geometry" />
        </mxCell>
      </root>
    </mxGraphModel>
  </diagram>
  <diagram id="Qn12glcAJ0TM__CVpuHF" name="Text Encoder">
    <mxGraphModel dx="976" dy="757" grid="1" gridSize="10" guides="1" tooltips="1" connect="1" arrows="1" fold="1" page="1" pageScale="1" pageWidth="1169" pageHeight="827" math="0" shadow="0">
      <root>
        <mxCell id="0" />
        <mxCell id="1" parent="0" />
        <mxCell id="OILfU1qoO_SWtiL3-S8k-1" style="edgeStyle=orthogonalEdgeStyle;rounded=0;orthogonalLoop=1;jettySize=auto;html=1;entryX=0;entryY=0.5;entryDx=0;entryDy=0;" edge="1" parent="1" source="ZrxOaABmkgRkCBFD6htk-1" target="Ycf02IzDPLKlRVth4cgB-1">
          <mxGeometry relative="1" as="geometry" />
        </mxCell>
        <mxCell id="ZrxOaABmkgRkCBFD6htk-1" value="&lt;div&gt;News&lt;/div&gt;" style="html=1;verticalLabelPosition=middle;align=center;labelBackgroundColor=none;verticalAlign=middle;strokeWidth=2;strokeColor=#666666;shadow=0;dashed=0;shape=mxgraph.ios7.icons.document;labelPosition=center;fillColor=#f5f5f5;fontColor=#333333;points=[[0,0.5,0,0,0],[0.5,0,0,0,0],[0.5,1,0,0,0],[1,0.5,0,0,0]];" vertex="1" parent="1">
          <mxGeometry x="150" y="285" width="50" height="70" as="geometry" />
        </mxCell>
        <mxCell id="OILfU1qoO_SWtiL3-S8k-5" style="edgeStyle=orthogonalEdgeStyle;rounded=0;orthogonalLoop=1;jettySize=auto;html=1;exitX=1;exitY=0.5;exitDx=0;exitDy=0;entryX=0;entryY=0.5;entryDx=0;entryDy=0;" edge="1" parent="1" source="Ycf02IzDPLKlRVth4cgB-1" target="OILfU1qoO_SWtiL3-S8k-2">
          <mxGeometry relative="1" as="geometry" />
        </mxCell>
        <mxCell id="Ycf02IzDPLKlRVth4cgB-1" value="&lt;div&gt;RoBERTa&lt;/div&gt;Encoder" style="rounded=1;whiteSpace=wrap;html=1;fontFamily=Roboto;labelBackgroundColor=none;fillColor=#ffe6cc;strokeColor=#d79b00;fontSize=16;" vertex="1" parent="1">
          <mxGeometry x="280" y="280" width="120" height="80" as="geometry" />
        </mxCell>
        <mxCell id="OILfU1qoO_SWtiL3-S8k-2" value="&lt;div style=&quot;&quot;&gt;&lt;span style=&quot;color: oklch(0.21 0.034 264.665);&quot;&gt;[&lt;/span&gt;&lt;/div&gt;&lt;span style=&quot;color: oklch(0.21 0.034 264.665); background-color: light-dark(#ffffff, var(--ge-dark-color, #121212));&quot;&gt;&lt;div style=&quot;&quot;&gt;-0.05664011090993881,&lt;/div&gt;&lt;div style=&quot;&quot;&gt;0.12104999274015427,&lt;/div&gt;&lt;div style=&quot;&quot;&gt;0.012587031349539757,&lt;/div&gt;&lt;div style=&quot;&quot;&gt;-0.0876484364271164,&lt;/div&gt;&lt;/span&gt;&lt;div style=&quot;&quot;&gt;&lt;span style=&quot;color: oklch(0.21 0.034 264.665);&quot;&gt;...&lt;/span&gt;&lt;/div&gt;&lt;div style=&quot;&quot;&gt;&lt;div style=&quot;&quot;&gt;&lt;span style=&quot;color: oklch(0.21 0.034 264.665);&quot;&gt;0.0401604026556015&lt;/span&gt;&lt;span style=&quot;color: oklch(0.21 0.034 264.665);&quot;&gt;,&lt;/span&gt;&lt;/div&gt;&lt;span style=&quot;color: oklch(0.21 0.034 264.665); background-color: light-dark(#ffffff, var(--ge-dark-color, #121212));&quot;&gt;&lt;div style=&quot;&quot;&gt;-0.06883986294269562,&lt;/div&gt;&lt;div style=&quot;&quot;&gt;-0.016173910349607468,&lt;/div&gt;&lt;div style=&quot;&quot;&gt;-0.05993407964706421&lt;/div&gt;&lt;div style=&quot;&quot;&gt;]&lt;/div&gt;&lt;/span&gt;&lt;/div&gt;" style="rounded=1;whiteSpace=wrap;html=1;fontFamily=Roboto;labelBackgroundColor=none;fillColor=#fff2cc;strokeColor=#d6b656;fontSize=16;align=center;" vertex="1" parent="1">
          <mxGeometry x="480" y="195" width="200" height="250" as="geometry" />
        </mxCell>
        <mxCell id="OILfU1qoO_SWtiL3-S8k-3" value="&lt;div style=&quot;text-align: left;&quot;&gt;&lt;span style=&quot;background-color: transparent; color: light-dark(rgb(0, 0, 0), rgb(255, 255, 255));&quot;&gt;One in Four One in Four&amp;nbsp;&lt;/span&gt;&lt;span style=&quot;background-color: transparent; color: light-dark(rgb(0, 0, 0), rgb(255, 255, 255));&quot;&gt;Congressman Joe Pitts Blocked Unblock Follow Following Mar 10, 2016&amp;nbsp;&lt;/span&gt;&lt;span style=&quot;background-color: transparent; color: light-dark(rgb(0, 0, 0), rgb(255, 255, 255));&quot;&gt;...&amp;nbsp;&lt;/span&gt;&lt;span style=&quot;background-color: transparent; color: light-dark(rgb(0, 0, 0), rgb(255, 255, 255));&quot;&gt;We will work until the system works.&lt;/span&gt;&lt;/div&gt;" style="text;html=1;align=center;verticalAlign=middle;whiteSpace=wrap;rounded=0;" vertex="1" parent="1">
          <mxGeometry x="160" y="160" width="260" height="70" as="geometry" />
        </mxCell>
        <mxCell id="OILfU1qoO_SWtiL3-S8k-6" style="rounded=0;orthogonalLoop=1;jettySize=auto;html=1;exitX=0.5;exitY=1;exitDx=0;exitDy=0;dashed=1;endArrow=none;startFill=0;entryX=0.5;entryY=0;entryDx=0;entryDy=0;entryPerimeter=0;" edge="1" parent="1" source="OILfU1qoO_SWtiL3-S8k-3" target="ZrxOaABmkgRkCBFD6htk-1">
          <mxGeometry relative="1" as="geometry">
            <mxPoint x="250" y="300" as="targetPoint" />
          </mxGeometry>
        </mxCell>
        <mxCell id="LIsiBGH82j4FryGzYkJ4-1" value="&lt;font style=&quot;font-size: 18px;&quot;&gt;Embeddings (768, )&lt;/font&gt;" style="text;strokeColor=none;fillColor=none;html=1;fontSize=24;fontStyle=1;verticalAlign=middle;align=center;fontFamily=Roboto;" vertex="1" parent="1">
          <mxGeometry x="480" y="155" width="200" height="40" as="geometry" />
        </mxCell>
      </root>
    </mxGraphModel>
  </diagram>
  <diagram id="IMw8ulf8LOPFu7z8QzxG" name="Graph Construction">
    <mxGraphModel dx="976" dy="757" grid="1" gridSize="10" guides="1" tooltips="1" connect="1" arrows="1" fold="1" page="1" pageScale="1" pageWidth="1169" pageHeight="827" math="0" shadow="0">
      <root>
        <mxCell id="0" />
        <mxCell id="1" parent="0" />
        <mxCell id="p-yzF8Hdf1fZ5KMEusEJ-1" value="" style="group" vertex="1" connectable="0" parent="1">
          <mxGeometry x="560" y="290" width="210" height="210.00000000000006" as="geometry" />
        </mxCell>
        <mxCell id="p-yzF8Hdf1fZ5KMEusEJ-2" value="" style="ellipse;whiteSpace=wrap;html=1;aspect=fixed;fontFamily=Roboto;fontSize=11;fontColor=default;labelBackgroundColor=default;fillColor=none;dashed=1;dashPattern=8 8;" vertex="1" parent="p-yzF8Hdf1fZ5KMEusEJ-1">
          <mxGeometry width="210" height="210" as="geometry" />
        </mxCell>
        <mxCell id="p-yzF8Hdf1fZ5KMEusEJ-3" style="rounded=0;orthogonalLoop=1;jettySize=auto;html=1;exitX=0.5;exitY=0.5;exitDx=0;exitDy=0;exitPerimeter=0;entryX=0.5;entryY=0.5;entryDx=0;entryDy=0;entryPerimeter=0;endArrow=none;startFill=0;fontFamily=Roboto;" edge="1" parent="p-yzF8Hdf1fZ5KMEusEJ-1" source="p-yzF8Hdf1fZ5KMEusEJ-44" target="p-yzF8Hdf1fZ5KMEusEJ-32">
          <mxGeometry relative="1" as="geometry" />
        </mxCell>
        <mxCell id="p-yzF8Hdf1fZ5KMEusEJ-4" style="edgeStyle=none;shape=connector;rounded=0;orthogonalLoop=1;jettySize=auto;html=1;exitX=0.5;exitY=0.5;exitDx=0;exitDy=0;exitPerimeter=0;entryX=0.5;entryY=0.5;entryDx=0;entryDy=0;entryPerimeter=0;strokeColor=default;align=center;verticalAlign=middle;fontFamily=Roboto;fontSize=11;fontColor=default;labelBackgroundColor=default;startFill=0;startSize=6;endArrow=none;endSize=6;" edge="1" parent="p-yzF8Hdf1fZ5KMEusEJ-1" source="p-yzF8Hdf1fZ5KMEusEJ-28" target="p-yzF8Hdf1fZ5KMEusEJ-31">
          <mxGeometry relative="1" as="geometry" />
        </mxCell>
        <mxCell id="p-yzF8Hdf1fZ5KMEusEJ-5" style="edgeStyle=none;shape=connector;rounded=0;orthogonalLoop=1;jettySize=auto;html=1;exitX=0.5;exitY=0.5;exitDx=0;exitDy=0;exitPerimeter=0;entryX=0.5;entryY=0.5;entryDx=0;entryDy=0;entryPerimeter=0;strokeColor=default;align=center;verticalAlign=middle;fontFamily=Roboto;fontSize=11;fontColor=default;labelBackgroundColor=default;startFill=0;endArrow=none;" edge="1" parent="p-yzF8Hdf1fZ5KMEusEJ-1" source="p-yzF8Hdf1fZ5KMEusEJ-30" target="p-yzF8Hdf1fZ5KMEusEJ-31">
          <mxGeometry relative="1" as="geometry" />
        </mxCell>
        <mxCell id="p-yzF8Hdf1fZ5KMEusEJ-6" style="edgeStyle=none;shape=connector;rounded=0;orthogonalLoop=1;jettySize=auto;html=1;exitX=0.5;exitY=0.5;exitDx=0;exitDy=0;exitPerimeter=0;entryX=0.5;entryY=0.5;entryDx=0;entryDy=0;entryPerimeter=0;strokeColor=default;align=center;verticalAlign=middle;fontFamily=Roboto;fontSize=11;fontColor=default;labelBackgroundColor=default;startFill=0;startSize=6;endArrow=none;endSize=6;" edge="1" parent="p-yzF8Hdf1fZ5KMEusEJ-1" source="p-yzF8Hdf1fZ5KMEusEJ-27" target="p-yzF8Hdf1fZ5KMEusEJ-32">
          <mxGeometry relative="1" as="geometry" />
        </mxCell>
        <mxCell id="p-yzF8Hdf1fZ5KMEusEJ-7" style="edgeStyle=none;shape=connector;rounded=0;orthogonalLoop=1;jettySize=auto;html=1;exitX=0.5;exitY=0.5;exitDx=0;exitDy=0;exitPerimeter=0;entryX=0.5;entryY=0.5;entryDx=0;entryDy=0;entryPerimeter=0;strokeColor=default;align=center;verticalAlign=middle;fontFamily=Roboto;fontSize=11;fontColor=default;labelBackgroundColor=default;startFill=0;startSize=6;endArrow=none;endSize=6;" edge="1" parent="p-yzF8Hdf1fZ5KMEusEJ-1" source="p-yzF8Hdf1fZ5KMEusEJ-31" target="p-yzF8Hdf1fZ5KMEusEJ-32">
          <mxGeometry relative="1" as="geometry" />
        </mxCell>
        <mxCell id="p-yzF8Hdf1fZ5KMEusEJ-8" style="edgeStyle=none;shape=connector;rounded=0;orthogonalLoop=1;jettySize=auto;html=1;exitX=0.5;exitY=0.5;exitDx=0;exitDy=0;exitPerimeter=0;entryX=0.5;entryY=0.5;entryDx=0;entryDy=0;entryPerimeter=0;strokeColor=default;align=center;verticalAlign=middle;fontFamily=Roboto;fontSize=11;fontColor=default;labelBackgroundColor=default;startFill=0;endArrow=none;" edge="1" parent="p-yzF8Hdf1fZ5KMEusEJ-1" source="p-yzF8Hdf1fZ5KMEusEJ-33" target="p-yzF8Hdf1fZ5KMEusEJ-35">
          <mxGeometry relative="1" as="geometry">
            <mxPoint x="228.42857142857144" y="107.79000000000002" as="sourcePoint" />
          </mxGeometry>
        </mxCell>
        <mxCell id="p-yzF8Hdf1fZ5KMEusEJ-9" style="edgeStyle=none;shape=connector;rounded=0;orthogonalLoop=1;jettySize=auto;html=1;exitX=0.5;exitY=0.5;exitDx=0;exitDy=0;exitPerimeter=0;entryX=0.5;entryY=0.5;entryDx=0;entryDy=0;entryPerimeter=0;strokeColor=default;align=center;verticalAlign=middle;fontFamily=Roboto;fontSize=11;fontColor=default;labelBackgroundColor=default;startFill=0;startSize=6;endArrow=none;endSize=6;" edge="1" parent="p-yzF8Hdf1fZ5KMEusEJ-1" source="p-yzF8Hdf1fZ5KMEusEJ-34" target="p-yzF8Hdf1fZ5KMEusEJ-35">
          <mxGeometry relative="1" as="geometry" />
        </mxCell>
        <mxCell id="p-yzF8Hdf1fZ5KMEusEJ-10" style="rounded=0;orthogonalLoop=1;jettySize=auto;html=1;exitX=0.5;exitY=0.5;exitDx=0;exitDy=0;exitPerimeter=0;entryX=0.5;entryY=0.5;entryDx=0;entryDy=0;entryPerimeter=0;endArrow=none;startFill=0;startSize=6;endSize=6;fontFamily=Roboto;" edge="1" parent="p-yzF8Hdf1fZ5KMEusEJ-1" source="p-yzF8Hdf1fZ5KMEusEJ-31" target="p-yzF8Hdf1fZ5KMEusEJ-35">
          <mxGeometry relative="1" as="geometry" />
        </mxCell>
        <mxCell id="p-yzF8Hdf1fZ5KMEusEJ-11" style="edgeStyle=none;shape=connector;rounded=0;orthogonalLoop=1;jettySize=auto;html=1;exitX=0.5;exitY=0.5;exitDx=0;exitDy=0;exitPerimeter=0;entryX=0.5;entryY=0.5;entryDx=0;entryDy=0;entryPerimeter=0;strokeColor=default;align=center;verticalAlign=middle;fontFamily=Roboto;fontSize=11;fontColor=default;labelBackgroundColor=default;startFill=0;endArrow=none;" edge="1" parent="p-yzF8Hdf1fZ5KMEusEJ-1" source="p-yzF8Hdf1fZ5KMEusEJ-31" target="p-yzF8Hdf1fZ5KMEusEJ-36">
          <mxGeometry relative="1" as="geometry" />
        </mxCell>
        <mxCell id="p-yzF8Hdf1fZ5KMEusEJ-12" style="edgeStyle=none;shape=connector;rounded=0;orthogonalLoop=1;jettySize=auto;html=1;exitX=0.5;exitY=0.5;exitDx=0;exitDy=0;exitPerimeter=0;entryX=0.5;entryY=0.5;entryDx=0;entryDy=0;entryPerimeter=0;strokeColor=default;align=center;verticalAlign=middle;fontFamily=Roboto;fontSize=11;fontColor=default;labelBackgroundColor=default;startFill=0;endArrow=none;" edge="1" parent="p-yzF8Hdf1fZ5KMEusEJ-1" source="p-yzF8Hdf1fZ5KMEusEJ-36" target="p-yzF8Hdf1fZ5KMEusEJ-32">
          <mxGeometry relative="1" as="geometry" />
        </mxCell>
        <mxCell id="p-yzF8Hdf1fZ5KMEusEJ-13" style="edgeStyle=none;shape=connector;rounded=0;orthogonalLoop=1;jettySize=auto;html=1;exitX=0.5;exitY=0.5;exitDx=0;exitDy=0;exitPerimeter=0;entryX=0.5;entryY=0.5;entryDx=0;entryDy=0;entryPerimeter=0;strokeColor=default;align=center;verticalAlign=middle;fontFamily=Roboto;fontSize=11;fontColor=default;labelBackgroundColor=default;startFill=0;endArrow=none;" edge="1" parent="p-yzF8Hdf1fZ5KMEusEJ-1" source="p-yzF8Hdf1fZ5KMEusEJ-38" target="p-yzF8Hdf1fZ5KMEusEJ-35">
          <mxGeometry relative="1" as="geometry" />
        </mxCell>
        <mxCell id="p-yzF8Hdf1fZ5KMEusEJ-14" style="edgeStyle=none;shape=connector;rounded=0;orthogonalLoop=1;jettySize=auto;html=1;exitX=0.5;exitY=0.5;exitDx=0;exitDy=0;exitPerimeter=0;strokeColor=default;align=center;verticalAlign=middle;fontFamily=Roboto;fontSize=11;fontColor=default;labelBackgroundColor=default;startFill=0;startSize=6;endArrow=none;endSize=6;entryX=0.5;entryY=0.5;entryDx=0;entryDy=0;entryPerimeter=0;" edge="1" parent="p-yzF8Hdf1fZ5KMEusEJ-1" source="p-yzF8Hdf1fZ5KMEusEJ-42" target="p-yzF8Hdf1fZ5KMEusEJ-32">
          <mxGeometry relative="1" as="geometry">
            <mxPoint x="67.28571428571433" y="90.64714285714291" as="targetPoint" />
          </mxGeometry>
        </mxCell>
        <mxCell id="p-yzF8Hdf1fZ5KMEusEJ-15" style="edgeStyle=none;shape=connector;rounded=0;orthogonalLoop=1;jettySize=auto;html=1;exitX=0.5;exitY=0.5;exitDx=0;exitDy=0;exitPerimeter=0;entryX=0.5;entryY=0.5;entryDx=0;entryDy=0;entryPerimeter=0;strokeColor=default;align=center;verticalAlign=middle;fontFamily=Roboto;fontSize=11;fontColor=default;labelBackgroundColor=default;startFill=0;startSize=6;endArrow=none;endSize=6;" edge="1" parent="p-yzF8Hdf1fZ5KMEusEJ-1" source="p-yzF8Hdf1fZ5KMEusEJ-43" target="p-yzF8Hdf1fZ5KMEusEJ-32">
          <mxGeometry relative="1" as="geometry" />
        </mxCell>
        <mxCell id="p-yzF8Hdf1fZ5KMEusEJ-16" style="edgeStyle=none;shape=connector;rounded=0;orthogonalLoop=1;jettySize=auto;html=1;exitX=0.5;exitY=0.5;exitDx=0;exitDy=0;exitPerimeter=0;entryX=0.5;entryY=0.5;entryDx=0;entryDy=0;entryPerimeter=0;strokeColor=default;align=center;verticalAlign=middle;fontFamily=Roboto;fontSize=11;fontColor=default;labelBackgroundColor=default;startFill=0;endArrow=none;" edge="1" parent="p-yzF8Hdf1fZ5KMEusEJ-1" source="p-yzF8Hdf1fZ5KMEusEJ-44" target="p-yzF8Hdf1fZ5KMEusEJ-35">
          <mxGeometry relative="1" as="geometry" />
        </mxCell>
        <mxCell id="p-yzF8Hdf1fZ5KMEusEJ-17" style="edgeStyle=none;shape=connector;rounded=0;orthogonalLoop=1;jettySize=auto;html=1;exitX=0.5;exitY=0.5;exitDx=0;exitDy=0;exitPerimeter=0;entryX=0.5;entryY=0.5;entryDx=0;entryDy=0;entryPerimeter=0;strokeColor=default;align=center;verticalAlign=middle;fontFamily=Roboto;fontSize=11;fontColor=default;labelBackgroundColor=default;startFill=0;startSize=6;endArrow=none;endSize=6;" edge="1" parent="p-yzF8Hdf1fZ5KMEusEJ-1" source="p-yzF8Hdf1fZ5KMEusEJ-39" target="p-yzF8Hdf1fZ5KMEusEJ-44">
          <mxGeometry relative="1" as="geometry" />
        </mxCell>
        <mxCell id="p-yzF8Hdf1fZ5KMEusEJ-18" style="edgeStyle=none;shape=connector;rounded=0;orthogonalLoop=1;jettySize=auto;html=1;exitX=0.5;exitY=0.5;exitDx=0;exitDy=0;exitPerimeter=0;strokeColor=default;align=center;verticalAlign=middle;fontFamily=Roboto;fontSize=11;fontColor=default;labelBackgroundColor=default;startFill=0;startSize=6;endArrow=none;endSize=6;entryX=0.5;entryY=0.5;entryDx=0;entryDy=0;entryPerimeter=0;" edge="1" parent="p-yzF8Hdf1fZ5KMEusEJ-1" source="p-yzF8Hdf1fZ5KMEusEJ-41" target="p-yzF8Hdf1fZ5KMEusEJ-44">
          <mxGeometry relative="1" as="geometry">
            <mxPoint x="74.14285714285711" y="111.21857142857147" as="targetPoint" />
          </mxGeometry>
        </mxCell>
        <mxCell id="p-yzF8Hdf1fZ5KMEusEJ-19" style="edgeStyle=none;shape=connector;rounded=0;orthogonalLoop=1;jettySize=auto;html=1;exitX=0.5;exitY=0.5;exitDx=0;exitDy=0;exitPerimeter=0;entryX=0.5;entryY=0.5;entryDx=0;entryDy=0;entryPerimeter=0;strokeColor=default;align=center;verticalAlign=middle;fontFamily=Roboto;fontSize=11;fontColor=default;labelBackgroundColor=default;startFill=0;endArrow=none;" edge="1" parent="p-yzF8Hdf1fZ5KMEusEJ-1" source="p-yzF8Hdf1fZ5KMEusEJ-40" target="p-yzF8Hdf1fZ5KMEusEJ-44">
          <mxGeometry relative="1" as="geometry" />
        </mxCell>
        <mxCell id="p-yzF8Hdf1fZ5KMEusEJ-20" style="edgeStyle=none;shape=connector;rounded=0;orthogonalLoop=1;jettySize=auto;html=1;exitX=0.5;exitY=0.5;exitDx=0;exitDy=0;exitPerimeter=0;strokeColor=default;align=center;verticalAlign=middle;fontFamily=Roboto;fontSize=11;fontColor=default;labelBackgroundColor=default;startFill=0;startSize=6;endArrow=none;endSize=6;entryX=0.5;entryY=0.5;entryDx=0;entryDy=0;entryPerimeter=0;" edge="1" parent="p-yzF8Hdf1fZ5KMEusEJ-1" source="p-yzF8Hdf1fZ5KMEusEJ-45" target="p-yzF8Hdf1fZ5KMEusEJ-37">
          <mxGeometry relative="1" as="geometry" />
        </mxCell>
        <mxCell id="p-yzF8Hdf1fZ5KMEusEJ-21" style="edgeStyle=none;shape=connector;rounded=0;orthogonalLoop=1;jettySize=auto;html=1;exitX=0.5;exitY=0.5;exitDx=0;exitDy=0;exitPerimeter=0;entryX=0.5;entryY=0.5;entryDx=0;entryDy=0;entryPerimeter=0;strokeColor=default;align=center;verticalAlign=middle;fontFamily=Roboto;fontSize=11;fontColor=default;labelBackgroundColor=default;startFill=0;startSize=6;endArrow=none;endSize=6;" edge="1" parent="p-yzF8Hdf1fZ5KMEusEJ-1" source="p-yzF8Hdf1fZ5KMEusEJ-44" target="p-yzF8Hdf1fZ5KMEusEJ-45">
          <mxGeometry relative="1" as="geometry" />
        </mxCell>
        <mxCell id="p-yzF8Hdf1fZ5KMEusEJ-22" style="edgeStyle=none;shape=connector;rounded=0;orthogonalLoop=1;jettySize=auto;html=1;exitX=0.5;exitY=0.5;exitDx=0;exitDy=0;exitPerimeter=0;entryX=0.5;entryY=0.5;entryDx=0;entryDy=0;entryPerimeter=0;strokeColor=default;align=center;verticalAlign=middle;fontFamily=Roboto;fontSize=11;fontColor=default;labelBackgroundColor=default;startFill=0;endArrow=none;" edge="1" parent="p-yzF8Hdf1fZ5KMEusEJ-1" source="p-yzF8Hdf1fZ5KMEusEJ-29" target="p-yzF8Hdf1fZ5KMEusEJ-46">
          <mxGeometry relative="1" as="geometry" />
        </mxCell>
        <mxCell id="p-yzF8Hdf1fZ5KMEusEJ-23" style="edgeStyle=none;shape=connector;rounded=0;orthogonalLoop=1;jettySize=auto;html=1;exitX=0.5;exitY=0.5;exitDx=0;exitDy=0;exitPerimeter=0;strokeColor=default;align=center;verticalAlign=middle;fontFamily=Roboto;fontSize=11;fontColor=default;labelBackgroundColor=default;startFill=0;startSize=6;endArrow=none;endSize=6;entryX=0.5;entryY=0.5;entryDx=0;entryDy=0;entryPerimeter=0;" edge="1" parent="p-yzF8Hdf1fZ5KMEusEJ-1" source="p-yzF8Hdf1fZ5KMEusEJ-45" target="p-yzF8Hdf1fZ5KMEusEJ-46">
          <mxGeometry relative="1" as="geometry" />
        </mxCell>
        <mxCell id="p-yzF8Hdf1fZ5KMEusEJ-24" style="edgeStyle=none;shape=connector;rounded=0;orthogonalLoop=1;jettySize=auto;html=1;exitX=0.5;exitY=0.5;exitDx=0;exitDy=0;exitPerimeter=0;entryX=0.5;entryY=0.5;entryDx=0;entryDy=0;entryPerimeter=0;strokeColor=default;align=center;verticalAlign=middle;fontFamily=Roboto;fontSize=11;fontColor=default;labelBackgroundColor=default;startFill=0;startSize=6;endArrow=none;endSize=6;" edge="1" parent="p-yzF8Hdf1fZ5KMEusEJ-1" source="p-yzF8Hdf1fZ5KMEusEJ-46" target="p-yzF8Hdf1fZ5KMEusEJ-35">
          <mxGeometry relative="1" as="geometry" />
        </mxCell>
        <mxCell id="p-yzF8Hdf1fZ5KMEusEJ-25" style="edgeStyle=none;shape=connector;rounded=0;orthogonalLoop=1;jettySize=auto;html=1;exitX=0.5;exitY=0.5;exitDx=0;exitDy=0;exitPerimeter=0;entryX=0.5;entryY=0.5;entryDx=0;entryDy=0;entryPerimeter=0;strokeColor=default;align=center;verticalAlign=middle;fontFamily=Roboto;fontSize=11;fontColor=default;labelBackgroundColor=default;startFill=0;startSize=6;endArrow=none;endSize=6;" edge="1" parent="p-yzF8Hdf1fZ5KMEusEJ-1" source="p-yzF8Hdf1fZ5KMEusEJ-44" target="p-yzF8Hdf1fZ5KMEusEJ-46">
          <mxGeometry relative="1" as="geometry" />
        </mxCell>
        <mxCell id="p-yzF8Hdf1fZ5KMEusEJ-26" value="" style="group;fontFamily=Roboto;" vertex="1" connectable="0" parent="p-yzF8Hdf1fZ5KMEusEJ-1">
          <mxGeometry x="87.85714285714289" y="90.64714285714291" width="34.285714285714285" height="68.57142857142857" as="geometry" />
        </mxCell>
        <mxCell id="p-yzF8Hdf1fZ5KMEusEJ-27" value="" style="ellipse;whiteSpace=wrap;html=1;aspect=fixed;fillColor=#647687;strokeColor=#314354;fontColor=#ffffff;points=[[0.5,0.5,0,0,0]];container=0;fontFamily=Roboto;" vertex="1" parent="p-yzF8Hdf1fZ5KMEusEJ-1">
          <mxGeometry x="82" y="37.792857142857144" width="15" height="15" as="geometry" />
        </mxCell>
        <mxCell id="p-yzF8Hdf1fZ5KMEusEJ-28" value="" style="ellipse;whiteSpace=wrap;html=1;aspect=fixed;fillColor=#647687;strokeColor=#314354;fontColor=#ffffff;points=[[0.5,0.5,0,0,0]];container=0;fontFamily=Roboto;" vertex="1" parent="p-yzF8Hdf1fZ5KMEusEJ-1">
          <mxGeometry x="129" y="28.932857142857188" width="15" height="15" as="geometry" />
        </mxCell>
        <mxCell id="p-yzF8Hdf1fZ5KMEusEJ-29" value="" style="ellipse;whiteSpace=wrap;html=1;aspect=fixed;fillColor=#647687;strokeColor=#314354;fontColor=#ffffff;points=[[0.5,0.5,0,0,0]];container=0;fontFamily=Roboto;" vertex="1" parent="p-yzF8Hdf1fZ5KMEusEJ-1">
          <mxGeometry x="130.71428571428578" y="159.21857142857147" width="15" height="15" as="geometry" />
        </mxCell>
        <mxCell id="p-yzF8Hdf1fZ5KMEusEJ-30" value="" style="ellipse;whiteSpace=wrap;html=1;aspect=fixed;fillColor=#b1ddf0;strokeColor=#10739e;points=[[0.5,0.5,0,0,0]];container=0;fontFamily=Roboto;" vertex="1" parent="p-yzF8Hdf1fZ5KMEusEJ-1">
          <mxGeometry x="149.57142857142856" y="49.50428571428574" width="15" height="15" as="geometry" />
        </mxCell>
        <mxCell id="p-yzF8Hdf1fZ5KMEusEJ-31" value="" style="ellipse;whiteSpace=wrap;html=1;aspect=fixed;fillColor=#e51400;strokeColor=#B20000;fontColor=#ffffff;points=[[0.5,0.5,0,0,0]];container=0;fontFamily=Roboto;" vertex="1" parent="p-yzF8Hdf1fZ5KMEusEJ-1">
          <mxGeometry x="110.14285714285711" y="63.218571428571465" width="15" height="15" as="geometry" />
        </mxCell>
        <mxCell id="p-yzF8Hdf1fZ5KMEusEJ-32" value="" style="ellipse;whiteSpace=wrap;html=1;aspect=fixed;fillColor=#e51400;strokeColor=#B20000;fontColor=#ffffff;points=[[0.5,0.5,0,0,0]];container=0;fontFamily=Roboto;" vertex="1" parent="p-yzF8Hdf1fZ5KMEusEJ-1">
          <mxGeometry x="67.28571428571433" y="70.0757142857143" width="15" height="15" as="geometry" />
        </mxCell>
        <mxCell id="p-yzF8Hdf1fZ5KMEusEJ-33" value="" style="ellipse;whiteSpace=wrap;html=1;aspect=fixed;fillColor=#647687;strokeColor=#314354;fontColor=#ffffff;points=[[0.5,0.5,0,0,0]];container=0;fontFamily=Roboto;" vertex="1" parent="p-yzF8Hdf1fZ5KMEusEJ-1">
          <mxGeometry x="183.8571428571429" y="67.78571428571428" width="15" height="15" as="geometry" />
        </mxCell>
        <mxCell id="p-yzF8Hdf1fZ5KMEusEJ-34" value="" style="ellipse;whiteSpace=wrap;html=1;aspect=fixed;fillColor=#647687;strokeColor=#314354;fontColor=#ffffff;points=[[0.5,0.5,0,0,0]];container=0;fontFamily=Roboto;" vertex="1" parent="p-yzF8Hdf1fZ5KMEusEJ-1">
          <mxGeometry x="190.71428571428578" y="111.21857142857147" width="15" height="15" as="geometry" />
        </mxCell>
        <mxCell id="p-yzF8Hdf1fZ5KMEusEJ-35" value="" style="ellipse;whiteSpace=wrap;html=1;aspect=fixed;fillColor=#008a00;strokeColor=#005700;fontColor=#ffffff;points=[[0.5,0.5,0,0,0]];container=0;fontFamily=Roboto;" vertex="1" parent="p-yzF8Hdf1fZ5KMEusEJ-1">
          <mxGeometry x="142.71428571428578" y="97.50428571428574" width="15" height="15" as="geometry" />
        </mxCell>
        <mxCell id="p-yzF8Hdf1fZ5KMEusEJ-36" value="" style="ellipse;whiteSpace=wrap;html=1;aspect=fixed;fillColor=#e51400;strokeColor=#B20000;fontColor=#ffffff;points=[[0.5,0.5,0,0,0]];container=0;fontFamily=Roboto;" vertex="1" parent="p-yzF8Hdf1fZ5KMEusEJ-1">
          <mxGeometry x="101.57142857142856" y="90.64714285714291" width="15" height="15" as="geometry" />
        </mxCell>
        <mxCell id="p-yzF8Hdf1fZ5KMEusEJ-37" value="" style="ellipse;whiteSpace=wrap;html=1;aspect=fixed;fillColor=#b1ddf0;strokeColor=#10739e;points=[[0.5,0.5,0,0,0]];container=0;fontFamily=Roboto;" vertex="1" parent="p-yzF8Hdf1fZ5KMEusEJ-1">
          <mxGeometry x="87.85714285714289" y="179.79000000000002" width="15" height="15" as="geometry" />
        </mxCell>
        <mxCell id="p-yzF8Hdf1fZ5KMEusEJ-38" value="" style="ellipse;whiteSpace=wrap;html=1;aspect=fixed;fillColor=#b1ddf0;strokeColor=#10739e;points=[[0.5,0.5,0,0,0]];container=0;fontFamily=Roboto;" vertex="1" parent="p-yzF8Hdf1fZ5KMEusEJ-1">
          <mxGeometry x="170.1428571428571" y="138.6471428571429" width="15" height="15" as="geometry" />
        </mxCell>
        <mxCell id="p-yzF8Hdf1fZ5KMEusEJ-39" value="" style="ellipse;whiteSpace=wrap;html=1;aspect=fixed;fillColor=#647687;strokeColor=#314354;fontColor=#ffffff;points=[[0.5,0.5,0,0,0]];container=0;fontFamily=Roboto;" vertex="1" parent="p-yzF8Hdf1fZ5KMEusEJ-1">
          <mxGeometry x="39.85714285714289" y="159.21857142857147" width="15" height="15" as="geometry" />
        </mxCell>
        <mxCell id="p-yzF8Hdf1fZ5KMEusEJ-40" value="" style="ellipse;whiteSpace=wrap;html=1;aspect=fixed;fillColor=#b1ddf0;strokeColor=#10739e;points=[[0.5,0.5,0,0,0]];container=0;fontFamily=Roboto;" vertex="1" parent="p-yzF8Hdf1fZ5KMEusEJ-1">
          <mxGeometry x="29.571428571428555" y="131.79000000000002" width="15" height="15" as="geometry" />
        </mxCell>
        <mxCell id="p-yzF8Hdf1fZ5KMEusEJ-41" value="" style="ellipse;whiteSpace=wrap;html=1;aspect=fixed;fillColor=#647687;strokeColor=#314354;fontColor=#ffffff;points=[[0.5,0.5,0,0,0]];container=0;fontFamily=Roboto;" vertex="1" parent="p-yzF8Hdf1fZ5KMEusEJ-1">
          <mxGeometry x="19.285714285714334" y="97.50428571428574" width="15" height="15" as="geometry" />
        </mxCell>
        <mxCell id="p-yzF8Hdf1fZ5KMEusEJ-42" value="" style="ellipse;whiteSpace=wrap;html=1;aspect=fixed;fillColor=#b1ddf0;strokeColor=#10739e;points=[[0.5,0.5,0,0,0]];container=0;fontFamily=Roboto;" vertex="1" parent="p-yzF8Hdf1fZ5KMEusEJ-1">
          <mxGeometry x="19.285714285714334" y="63.218571428571465" width="15" height="15" as="geometry" />
        </mxCell>
        <mxCell id="p-yzF8Hdf1fZ5KMEusEJ-43" value="" style="ellipse;whiteSpace=wrap;html=1;aspect=fixed;fillColor=#647687;strokeColor=#314354;fontColor=#ffffff;points=[[0.5,0.5,0,0,0]];container=0;fontFamily=Roboto;" vertex="1" parent="p-yzF8Hdf1fZ5KMEusEJ-1">
          <mxGeometry x="44.997142857142876" y="27.787142857142896" width="15" height="15" as="geometry" />
        </mxCell>
        <mxCell id="p-yzF8Hdf1fZ5KMEusEJ-44" value="" style="ellipse;whiteSpace=wrap;html=1;aspect=fixed;fillColor=#008a00;strokeColor=#005700;fontColor=#ffffff;points=[[0.5,0.5,0,0,0]];container=0;fontFamily=Roboto;" vertex="1" parent="p-yzF8Hdf1fZ5KMEusEJ-1">
          <mxGeometry x="67.28571428571433" y="111.21857142857147" width="15" height="15" as="geometry" />
        </mxCell>
        <mxCell id="p-yzF8Hdf1fZ5KMEusEJ-45" value="" style="ellipse;whiteSpace=wrap;html=1;aspect=fixed;fillColor=#647687;strokeColor=#314354;fontColor=#ffffff;points=[[0.5,0.5,0,0,0]];container=0;fontFamily=Roboto;" vertex="1" parent="p-yzF8Hdf1fZ5KMEusEJ-1">
          <mxGeometry x="94.71428571428578" y="138.6471428571429" width="15" height="15" as="geometry" />
        </mxCell>
        <mxCell id="p-yzF8Hdf1fZ5KMEusEJ-46" value="" style="ellipse;whiteSpace=wrap;html=1;aspect=fixed;fillColor=#008a00;strokeColor=#005700;fontColor=#ffffff;points=[[0.5,0.5,0,0,0]];container=0;fontFamily=Roboto;" vertex="1" parent="p-yzF8Hdf1fZ5KMEusEJ-1">
          <mxGeometry x="122.14285714285711" y="124.93285714285713" width="15" height="15" as="geometry" />
        </mxCell>
        <mxCell id="p-yzF8Hdf1fZ5KMEusEJ-47" value="" style="group" vertex="1" connectable="0" parent="1">
          <mxGeometry x="400" y="380" width="140" height="120" as="geometry" />
        </mxCell>
        <mxCell id="p-yzF8Hdf1fZ5KMEusEJ-48" value="&lt;font style=&quot;font-size: 14px;&quot;&gt;&lt;b style=&quot;&quot;&gt;Legend&lt;/b&gt;&lt;/font&gt;" style="rounded=1;whiteSpace=wrap;html=1;fontFamily=Roboto;fontSize=11;fontColor=default;labelBackgroundColor=default;verticalAlign=top;" vertex="1" parent="p-yzF8Hdf1fZ5KMEusEJ-47">
          <mxGeometry width="140" height="120" as="geometry" />
        </mxCell>
        <mxCell id="p-yzF8Hdf1fZ5KMEusEJ-49" value="" style="group" vertex="1" connectable="0" parent="p-yzF8Hdf1fZ5KMEusEJ-47">
          <mxGeometry x="11" y="28.999999999999943" width="118" height="80" as="geometry" />
        </mxCell>
        <mxCell id="p-yzF8Hdf1fZ5KMEusEJ-50" value="" style="ellipse;whiteSpace=wrap;html=1;aspect=fixed;fillColor=#e51400;strokeColor=#B20000;fontColor=#ffffff;points=[[0.5,0.5,0,0,0]];container=0;fontFamily=Roboto;fontSize=15;" vertex="1" parent="p-yzF8Hdf1fZ5KMEusEJ-49">
          <mxGeometry y="22" width="15" height="15" as="geometry" />
        </mxCell>
        <mxCell id="p-yzF8Hdf1fZ5KMEusEJ-51" value="Real News" style="text;html=1;align=right;verticalAlign=middle;whiteSpace=wrap;rounded=0;fontFamily=Roboto;fontSize=12;fontColor=default;labelBackgroundColor=none;" vertex="1" parent="p-yzF8Hdf1fZ5KMEusEJ-49">
          <mxGeometry x="18" width="100" height="20" as="geometry" />
        </mxCell>
        <mxCell id="p-yzF8Hdf1fZ5KMEusEJ-52" value="" style="ellipse;whiteSpace=wrap;html=1;aspect=fixed;fillColor=#647687;strokeColor=#314354;fontColor=#ffffff;points=[[0.5,0.5,0,0,0]];container=0;fontFamily=Roboto;fontSize=15;" vertex="1" parent="p-yzF8Hdf1fZ5KMEusEJ-49">
          <mxGeometry y="42" width="15" height="15" as="geometry" />
        </mxCell>
        <mxCell id="p-yzF8Hdf1fZ5KMEusEJ-53" value="" style="ellipse;whiteSpace=wrap;html=1;aspect=fixed;fillColor=#b1ddf0;strokeColor=#10739e;points=[[0.5,0.5,0,0,0]];container=0;fontFamily=Roboto;fontSize=15;" vertex="1" parent="p-yzF8Hdf1fZ5KMEusEJ-49">
          <mxGeometry y="62" width="15" height="15" as="geometry" />
        </mxCell>
        <mxCell id="p-yzF8Hdf1fZ5KMEusEJ-54" value="" style="ellipse;whiteSpace=wrap;html=1;aspect=fixed;fillColor=#008a00;strokeColor=#005700;fontColor=#ffffff;points=[[0.5,0.5,0,0,0]];container=0;fontFamily=Roboto;fontSize=15;" vertex="1" parent="p-yzF8Hdf1fZ5KMEusEJ-49">
          <mxGeometry y="2" width="15" height="15" as="geometry" />
        </mxCell>
        <mxCell id="p-yzF8Hdf1fZ5KMEusEJ-55" value="Fake News" style="text;html=1;align=right;verticalAlign=middle;whiteSpace=wrap;rounded=0;fontFamily=Roboto;fontSize=12;fontColor=default;labelBackgroundColor=none;" vertex="1" parent="p-yzF8Hdf1fZ5KMEusEJ-49">
          <mxGeometry x="18" y="20" width="100" height="20" as="geometry" />
        </mxCell>
        <mxCell id="p-yzF8Hdf1fZ5KMEusEJ-56" value="Unlabeled News" style="text;html=1;align=right;verticalAlign=middle;whiteSpace=wrap;rounded=0;fontFamily=Roboto;fontSize=12;fontColor=default;labelBackgroundColor=none;" vertex="1" parent="p-yzF8Hdf1fZ5KMEusEJ-49">
          <mxGeometry x="18" y="40" width="100" height="20" as="geometry" />
        </mxCell>
        <mxCell id="p-yzF8Hdf1fZ5KMEusEJ-57" value="Test News" style="text;html=1;align=right;verticalAlign=middle;whiteSpace=wrap;rounded=0;fontFamily=Roboto;fontSize=12;fontColor=default;labelBackgroundColor=none;" vertex="1" parent="p-yzF8Hdf1fZ5KMEusEJ-49">
          <mxGeometry x="18" y="60" width="100" height="20" as="geometry" />
        </mxCell>
      </root>
    </mxGraphModel>
  </diagram>
  <diagram name="Edge Construction" id="TWb4HKvz1evrqmMqDO63">
    <mxGraphModel dx="325" dy="252" grid="1" gridSize="10" guides="1" tooltips="1" connect="1" arrows="1" fold="1" page="1" pageScale="1" pageWidth="1169" pageHeight="827" math="0" shadow="0">
      <root>
        <mxCell id="5-qRqCI5tY3C13okcWSj-0" />
        <mxCell id="5-qRqCI5tY3C13okcWSj-1" parent="5-qRqCI5tY3C13okcWSj-0" />
        <mxCell id="lu78pjO_s07TmP2n1GYE-0" style="edgeStyle=none;shape=connector;rounded=0;orthogonalLoop=1;jettySize=auto;html=1;exitX=0.5;exitY=0.5;exitDx=0;exitDy=0;exitPerimeter=0;entryX=0.5;entryY=0.5;entryDx=0;entryDy=0;entryPerimeter=0;strokeColor=default;align=center;verticalAlign=middle;fontFamily=Roboto;fontSize=11;fontColor=default;labelBackgroundColor=default;startFill=0;startSize=6;endArrow=none;endSize=6;textShadow=1;dashed=1;" edge="1" parent="5-qRqCI5tY3C13okcWSj-1" source="lu78pjO_s07TmP2n1GYE-2" target="lu78pjO_s07TmP2n1GYE-1">
          <mxGeometry relative="1" as="geometry" />
        </mxCell>
        <mxCell id="lu78pjO_s07TmP2n1GYE-4" value="Cosine Similarity" style="edgeLabel;html=1;align=center;verticalAlign=middle;resizable=0;points=[];labelBackgroundColor=none;" vertex="1" connectable="0" parent="lu78pjO_s07TmP2n1GYE-0">
          <mxGeometry x="-0.0474" y="-1" relative="1" as="geometry">
            <mxPoint y="-14" as="offset" />
          </mxGeometry>
        </mxCell>
        <mxCell id="lu78pjO_s07TmP2n1GYE-1" value="" style="ellipse;whiteSpace=wrap;html=1;aspect=fixed;fillColor=#e51400;strokeColor=#B20000;fontColor=#ffffff;points=[[0.5,0.5,0,0,0]];container=0;fontFamily=Roboto;" vertex="1" parent="5-qRqCI5tY3C13okcWSj-1">
          <mxGeometry x="477.9957142857143" y="386.21571428571434" width="15" height="15" as="geometry" />
        </mxCell>
        <mxCell id="lu78pjO_s07TmP2n1GYE-2" value="" style="ellipse;whiteSpace=wrap;html=1;aspect=fixed;fillColor=#647687;strokeColor=#314354;fontColor=#ffffff;points=[[0.5,0.5,0,0,0]];container=0;fontFamily=Roboto;" vertex="1" parent="5-qRqCI5tY3C13okcWSj-1">
          <mxGeometry x="359.9971428571429" y="386.2171428571429" width="15" height="15" as="geometry" />
        </mxCell>
        <mxCell id="lu78pjO_s07TmP2n1GYE-8" style="edgeStyle=none;shape=connector;rounded=0;orthogonalLoop=1;jettySize=auto;html=1;exitX=0.5;exitY=0.5;exitDx=0;exitDy=0;exitPerimeter=0;strokeColor=default;align=center;verticalAlign=middle;fontFamily=Roboto;fontSize=11;fontColor=default;labelBackgroundColor=default;startFill=0;startSize=6;endArrow=none;endSize=6;entryX=0.5;entryY=0.5;entryDx=0;entryDy=0;entryPerimeter=0;" edge="1" parent="5-qRqCI5tY3C13okcWSj-1" source="lu78pjO_s07TmP2n1GYE-10" target="lu78pjO_s07TmP2n1GYE-9">
          <mxGeometry relative="1" as="geometry">
            <mxPoint x="407.99571428571437" y="436.7871428571429" as="targetPoint" />
          </mxGeometry>
        </mxCell>
        <mxCell id="lu78pjO_s07TmP2n1GYE-9" value="" style="ellipse;whiteSpace=wrap;html=1;aspect=fixed;fillColor=#e51400;strokeColor=#B20000;fontColor=#ffffff;points=[[0.5,0.5,0,0,0]];container=0;fontFamily=Roboto;" vertex="1" parent="5-qRqCI5tY3C13okcWSj-1">
          <mxGeometry x="407.99571428571437" y="428.6457142857143" width="15" height="15" as="geometry" />
        </mxCell>
        <mxCell id="lu78pjO_s07TmP2n1GYE-10" value="" style="ellipse;whiteSpace=wrap;html=1;aspect=fixed;fillColor=#b1ddf0;strokeColor=#10739e;points=[[0.5,0.5,0,0,0]];container=0;fontFamily=Roboto;" vertex="1" parent="5-qRqCI5tY3C13okcWSj-1">
          <mxGeometry x="359.99571428571437" y="409.35857142857145" width="15" height="15" as="geometry" />
        </mxCell>
        <mxCell id="lu78pjO_s07TmP2n1GYE-15" style="edgeStyle=none;shape=connector;rounded=0;orthogonalLoop=1;jettySize=auto;html=1;exitX=0.5;exitY=0.5;exitDx=0;exitDy=0;exitPerimeter=0;entryX=0.5;entryY=0.5;entryDx=0;entryDy=0;entryPerimeter=0;strokeColor=default;align=center;verticalAlign=middle;fontFamily=Roboto;fontSize=11;fontColor=default;labelBackgroundColor=default;startFill=0;startSize=6;endArrow=none;endSize=6;" edge="1" parent="5-qRqCI5tY3C13okcWSj-1" source="lu78pjO_s07TmP2n1GYE-17" target="lu78pjO_s07TmP2n1GYE-18">
          <mxGeometry relative="1" as="geometry" />
        </mxCell>
        <mxCell id="lu78pjO_s07TmP2n1GYE-17" value="" style="ellipse;whiteSpace=wrap;html=1;aspect=fixed;fillColor=#008a00;strokeColor=#005700;fontColor=#ffffff;points=[[0.5,0.5,0,0,0]];container=0;fontFamily=Roboto;" vertex="1" parent="5-qRqCI5tY3C13okcWSj-1">
          <mxGeometry x="429.99571428571437" y="409.35857142857145" width="15" height="15" as="geometry" />
        </mxCell>
        <mxCell id="lu78pjO_s07TmP2n1GYE-18" value="" style="ellipse;whiteSpace=wrap;html=1;aspect=fixed;fillColor=#647687;strokeColor=#314354;fontColor=#ffffff;points=[[0.5,0.5,0,0,0]];container=0;fontFamily=Roboto;" vertex="1" parent="5-qRqCI5tY3C13okcWSj-1">
          <mxGeometry x="477.9942857142858" y="428.6471428571429" width="15" height="15" as="geometry" />
        </mxCell>
      </root>
    </mxGraphModel>
  </diagram>
  <diagram name="First Prototype" id="a471FPYH-_ZQZ3chEhSw">
    <mxGraphModel dx="976" dy="757" grid="1" gridSize="10" guides="1" tooltips="1" connect="1" arrows="1" fold="1" page="1" pageScale="1" pageWidth="1169" pageHeight="827" math="0" shadow="0">
      <root>
        <mxCell id="0" />
        <mxCell id="1" style="" parent="0" />
        <mxCell id="vj5q8sm1Q5aXYHxkzJwI-78" style="rounded=0;orthogonalLoop=1;jettySize=auto;html=1;entryX=0;entryY=0.5;entryDx=0;entryDy=0;exitX=1;exitY=0.5;exitDx=0;exitDy=0;entryPerimeter=0;" parent="1" source="vj5q8sm1Q5aXYHxkzJwI-5" target="eBzTgfLa1kKEBilJZ-4N-1" edge="1">
          <mxGeometry relative="1" as="geometry">
            <mxPoint x="640" y="295" as="targetPoint" />
          </mxGeometry>
        </mxCell>
        <mxCell id="vj5q8sm1Q5aXYHxkzJwI-72" style="edgeStyle=orthogonalEdgeStyle;rounded=0;orthogonalLoop=1;jettySize=auto;html=1;exitX=1;exitY=0.5;exitDx=0;exitDy=0;entryX=0;entryY=0.5;entryDx=0;entryDy=0;exitPerimeter=0;" parent="1" source="vj5q8sm1Q5aXYHxkzJwI-34" target="vj5q8sm1Q5aXYHxkzJwI-5" edge="1">
          <mxGeometry relative="1" as="geometry" />
        </mxCell>
        <mxCell id="vj5q8sm1Q5aXYHxkzJwI-73" style="edgeStyle=orthogonalEdgeStyle;rounded=0;orthogonalLoop=1;jettySize=auto;html=1;exitX=1;exitY=0.5;exitDx=0;exitDy=0;entryX=0;entryY=0.5;entryDx=0;entryDy=0;exitPerimeter=0;" parent="1" source="vj5q8sm1Q5aXYHxkzJwI-50" target="vj5q8sm1Q5aXYHxkzJwI-5" edge="1">
          <mxGeometry relative="1" as="geometry">
            <mxPoint x="370" y="300" as="targetPoint" />
          </mxGeometry>
        </mxCell>
        <mxCell id="vj5q8sm1Q5aXYHxkzJwI-74" style="edgeStyle=orthogonalEdgeStyle;rounded=0;orthogonalLoop=1;jettySize=auto;html=1;exitX=1;exitY=0.5;exitDx=0;exitDy=0;entryX=0;entryY=0.5;entryDx=0;entryDy=0;exitPerimeter=0;" parent="1" source="vj5q8sm1Q5aXYHxkzJwI-63" target="vj5q8sm1Q5aXYHxkzJwI-5" edge="1">
          <mxGeometry relative="1" as="geometry" />
        </mxCell>
        <mxCell id="vj5q8sm1Q5aXYHxkzJwI-5" value="RoBERTa Embedding" style="rounded=1;whiteSpace=wrap;html=1;labelBackgroundColor=none;fillColor=#ffe6cc;strokeColor=#d79b00;fontSize=20;fontFamily=Roboto;" parent="1" vertex="1">
          <mxGeometry x="360" y="252.5" width="190" height="85" as="geometry" />
        </mxCell>
        <mxCell id="vj5q8sm1Q5aXYHxkzJwI-75" value="" style="group;fillColor=none;" parent="1" vertex="1" connectable="0">
          <mxGeometry x="30" y="230" width="190" height="130" as="geometry" />
        </mxCell>
        <mxCell id="vj5q8sm1Q5aXYHxkzJwI-50" value="&lt;font style=&quot;font-size: 16px;&quot;&gt;Train Unlabeled Data&lt;/font&gt;" style="points=[[0.25,0,0],[0.5,0,0],[0.75,0,0],[1,0.25,0],[1,0.5,0],[1,0.75,0],[0.75,1,0],[0.5,1,0],[0.25,1,0],[0,0.75,0],[0,0.5,0],[0,0.25,0]];rounded=1;dashed=1;dashPattern=5 2 1 2;labelPosition=center;verticalLabelPosition=middle;align=center;verticalAlign=top;fontSize=8;html=1;whiteSpace=wrap;fillColor=none;" parent="vj5q8sm1Q5aXYHxkzJwI-75" vertex="1">
          <mxGeometry width="190" height="130" as="geometry" />
        </mxCell>
        <mxCell id="vj5q8sm1Q5aXYHxkzJwI-51" value="" style="group" parent="vj5q8sm1Q5aXYHxkzJwI-75" vertex="1" connectable="0">
          <mxGeometry x="10" y="30" width="70" height="90" as="geometry" />
        </mxCell>
        <mxCell id="vj5q8sm1Q5aXYHxkzJwI-52" value="Real&lt;div&gt;News&lt;/div&gt;" style="html=1;verticalLabelPosition=middle;align=center;labelBackgroundColor=none;verticalAlign=middle;strokeWidth=2;strokeColor=#23445d;shadow=0;dashed=0;shape=mxgraph.ios7.icons.document;labelPosition=center;fillColor=#bac8d3;" parent="vj5q8sm1Q5aXYHxkzJwI-51" vertex="1">
          <mxGeometry x="20" width="50" height="70" as="geometry" />
        </mxCell>
        <mxCell id="vj5q8sm1Q5aXYHxkzJwI-53" value="Real&lt;div&gt;News&lt;/div&gt;" style="html=1;verticalLabelPosition=middle;align=center;labelBackgroundColor=none;verticalAlign=middle;strokeWidth=2;strokeColor=#23445d;shadow=0;dashed=0;shape=mxgraph.ios7.icons.document;labelPosition=center;fillColor=#bac8d3;" parent="vj5q8sm1Q5aXYHxkzJwI-51" vertex="1">
          <mxGeometry x="10" y="9" width="50" height="70" as="geometry" />
        </mxCell>
        <mxCell id="vj5q8sm1Q5aXYHxkzJwI-54" value="&lt;span style=&quot;background-color: transparent;&quot;&gt;News&lt;/span&gt;" style="html=1;verticalLabelPosition=middle;align=center;labelBackgroundColor=none;verticalAlign=middle;strokeWidth=2;strokeColor=#23445d;shadow=0;dashed=0;shape=mxgraph.ios7.icons.document;labelPosition=center;fillColor=#bac8d3;fontColor=default;" parent="vj5q8sm1Q5aXYHxkzJwI-51" vertex="1">
          <mxGeometry y="20" width="50" height="70" as="geometry" />
        </mxCell>
        <mxCell id="vj5q8sm1Q5aXYHxkzJwI-59" value="" style="group" parent="vj5q8sm1Q5aXYHxkzJwI-75" vertex="1" connectable="0">
          <mxGeometry x="110" y="30" width="70" height="90" as="geometry" />
        </mxCell>
        <mxCell id="vj5q8sm1Q5aXYHxkzJwI-60" value="Real&lt;div&gt;News&lt;/div&gt;" style="html=1;verticalLabelPosition=middle;align=center;labelBackgroundColor=none;verticalAlign=middle;strokeWidth=2;strokeColor=#23445d;shadow=0;dashed=0;shape=mxgraph.ios7.icons.document;labelPosition=center;fillColor=#bac8d3;" parent="vj5q8sm1Q5aXYHxkzJwI-59" vertex="1">
          <mxGeometry x="20" width="50" height="70" as="geometry" />
        </mxCell>
        <mxCell id="vj5q8sm1Q5aXYHxkzJwI-61" value="Real&lt;div&gt;News&lt;/div&gt;" style="html=1;verticalLabelPosition=middle;align=center;labelBackgroundColor=none;verticalAlign=middle;strokeWidth=2;strokeColor=#23445d;shadow=0;dashed=0;shape=mxgraph.ios7.icons.document;labelPosition=center;fillColor=#bac8d3;" parent="vj5q8sm1Q5aXYHxkzJwI-59" vertex="1">
          <mxGeometry x="10" y="9" width="50" height="70" as="geometry" />
        </mxCell>
        <mxCell id="vj5q8sm1Q5aXYHxkzJwI-62" value="&lt;div&gt;News&lt;/div&gt;" style="html=1;verticalLabelPosition=middle;align=center;labelBackgroundColor=none;verticalAlign=middle;strokeWidth=2;strokeColor=#23445d;shadow=0;dashed=0;shape=mxgraph.ios7.icons.document;labelPosition=center;fillColor=#bac8d3;" parent="vj5q8sm1Q5aXYHxkzJwI-59" vertex="1">
          <mxGeometry y="20" width="50" height="70" as="geometry" />
        </mxCell>
        <mxCell id="vj5q8sm1Q5aXYHxkzJwI-76" value="" style="group;fillColor=none;" parent="1" vertex="1" connectable="0">
          <mxGeometry x="30" y="390" width="190" height="130" as="geometry" />
        </mxCell>
        <mxCell id="vj5q8sm1Q5aXYHxkzJwI-63" value="&lt;font style=&quot;font-size: 16px;&quot;&gt;Test Data&lt;/font&gt;" style="points=[[0.25,0,0],[0.5,0,0],[0.75,0,0],[1,0.25,0],[1,0.5,0],[1,0.75,0],[0.75,1,0],[0.5,1,0],[0.25,1,0],[0,0.75,0],[0,0.5,0],[0,0.25,0]];rounded=1;dashed=1;dashPattern=5 2 1 2;labelPosition=center;verticalLabelPosition=middle;align=center;verticalAlign=top;fontSize=8;html=1;whiteSpace=wrap;fillColor=none;" parent="vj5q8sm1Q5aXYHxkzJwI-76" vertex="1">
          <mxGeometry width="190" height="130" as="geometry" />
        </mxCell>
        <mxCell id="vj5q8sm1Q5aXYHxkzJwI-64" value="" style="group" parent="vj5q8sm1Q5aXYHxkzJwI-76" vertex="1" connectable="0">
          <mxGeometry x="10" y="30" width="70" height="90" as="geometry" />
        </mxCell>
        <mxCell id="vj5q8sm1Q5aXYHxkzJwI-65" value="Real&lt;div&gt;News&lt;/div&gt;" style="html=1;verticalLabelPosition=middle;align=center;labelBackgroundColor=none;verticalAlign=middle;strokeWidth=2;strokeColor=#6c8ebf;shadow=0;dashed=0;shape=mxgraph.ios7.icons.document;labelPosition=center;fillColor=#dae8fc;" parent="vj5q8sm1Q5aXYHxkzJwI-64" vertex="1">
          <mxGeometry x="20" width="50" height="70" as="geometry" />
        </mxCell>
        <mxCell id="vj5q8sm1Q5aXYHxkzJwI-66" value="Real&lt;div&gt;News&lt;/div&gt;" style="html=1;verticalLabelPosition=middle;align=center;labelBackgroundColor=none;verticalAlign=middle;strokeWidth=2;strokeColor=#6c8ebf;shadow=0;dashed=0;shape=mxgraph.ios7.icons.document;labelPosition=center;fillColor=#dae8fc;" parent="vj5q8sm1Q5aXYHxkzJwI-64" vertex="1">
          <mxGeometry x="10" y="9" width="50" height="70" as="geometry" />
        </mxCell>
        <mxCell id="vj5q8sm1Q5aXYHxkzJwI-67" value="&lt;span style=&quot;background-color: transparent;&quot;&gt;News&lt;/span&gt;" style="html=1;verticalLabelPosition=middle;align=center;labelBackgroundColor=none;verticalAlign=middle;strokeWidth=2;strokeColor=#6c8ebf;shadow=0;dashed=0;shape=mxgraph.ios7.icons.document;labelPosition=center;fillColor=#dae8fc;fontColor=#000000;" parent="vj5q8sm1Q5aXYHxkzJwI-64" vertex="1">
          <mxGeometry y="20" width="50" height="70" as="geometry" />
        </mxCell>
        <mxCell id="vj5q8sm1Q5aXYHxkzJwI-68" value="" style="group" parent="vj5q8sm1Q5aXYHxkzJwI-76" vertex="1" connectable="0">
          <mxGeometry x="110" y="30" width="70" height="90" as="geometry" />
        </mxCell>
        <mxCell id="vj5q8sm1Q5aXYHxkzJwI-69" value="Real&lt;div&gt;News&lt;/div&gt;" style="html=1;verticalLabelPosition=middle;align=center;labelBackgroundColor=none;verticalAlign=middle;strokeWidth=2;strokeColor=#6c8ebf;shadow=0;dashed=0;shape=mxgraph.ios7.icons.document;labelPosition=center;fillColor=#dae8fc;" parent="vj5q8sm1Q5aXYHxkzJwI-68" vertex="1">
          <mxGeometry x="20" width="50" height="70" as="geometry" />
        </mxCell>
        <mxCell id="vj5q8sm1Q5aXYHxkzJwI-70" value="Real&lt;div&gt;News&lt;/div&gt;" style="html=1;verticalLabelPosition=middle;align=center;labelBackgroundColor=none;verticalAlign=middle;strokeWidth=2;strokeColor=#6c8ebf;shadow=0;dashed=0;shape=mxgraph.ios7.icons.document;labelPosition=center;fillColor=#dae8fc;" parent="vj5q8sm1Q5aXYHxkzJwI-68" vertex="1">
          <mxGeometry x="10" y="9" width="50" height="70" as="geometry" />
        </mxCell>
        <mxCell id="vj5q8sm1Q5aXYHxkzJwI-71" value="&lt;div&gt;News&lt;/div&gt;" style="html=1;verticalLabelPosition=middle;align=center;labelBackgroundColor=none;verticalAlign=middle;strokeWidth=2;strokeColor=#6c8ebf;shadow=0;dashed=0;shape=mxgraph.ios7.icons.document;labelPosition=center;fillColor=#dae8fc;" parent="vj5q8sm1Q5aXYHxkzJwI-68" vertex="1">
          <mxGeometry y="20" width="50" height="70" as="geometry" />
        </mxCell>
        <mxCell id="vj5q8sm1Q5aXYHxkzJwI-77" value="" style="group" parent="1" vertex="1" connectable="0">
          <mxGeometry x="30" y="70" width="190" height="130" as="geometry" />
        </mxCell>
        <mxCell id="vj5q8sm1Q5aXYHxkzJwI-34" value="&lt;font style=&quot;font-size: 16px;&quot;&gt;Train Labeled Data&lt;/font&gt;" style="points=[[0.25,0,0],[0.5,0,0],[0.75,0,0],[1,0.25,0],[1,0.5,0],[1,0.75,0],[0.75,1,0],[0.5,1,0],[0.25,1,0],[0,0.75,0],[0,0.5,0],[0,0.25,0]];rounded=1;dashed=1;dashPattern=5 2 1 2;labelPosition=center;verticalLabelPosition=middle;align=center;verticalAlign=top;fontSize=8;html=1;whiteSpace=wrap;fillColor=none;" parent="vj5q8sm1Q5aXYHxkzJwI-77" vertex="1">
          <mxGeometry width="190" height="130" as="geometry" />
        </mxCell>
        <mxCell id="vj5q8sm1Q5aXYHxkzJwI-48" value="" style="group" parent="vj5q8sm1Q5aXYHxkzJwI-77" vertex="1" connectable="0">
          <mxGeometry x="10" y="30" width="70" height="90" as="geometry" />
        </mxCell>
        <mxCell id="vj5q8sm1Q5aXYHxkzJwI-37" value="Real&lt;div&gt;News&lt;/div&gt;" style="html=1;verticalLabelPosition=middle;align=center;labelBackgroundColor=none;verticalAlign=middle;strokeWidth=2;strokeColor=#82b366;shadow=0;dashed=0;shape=mxgraph.ios7.icons.document;labelPosition=center;fillColor=#d5e8d4;" parent="vj5q8sm1Q5aXYHxkzJwI-48" vertex="1">
          <mxGeometry x="20" width="50" height="70" as="geometry" />
        </mxCell>
        <mxCell id="vj5q8sm1Q5aXYHxkzJwI-39" value="Real&lt;div&gt;News&lt;/div&gt;" style="html=1;verticalLabelPosition=middle;align=center;labelBackgroundColor=none;verticalAlign=middle;strokeWidth=2;strokeColor=#82b366;shadow=0;dashed=0;shape=mxgraph.ios7.icons.document;labelPosition=center;fillColor=#d5e8d4;" parent="vj5q8sm1Q5aXYHxkzJwI-48" vertex="1">
          <mxGeometry x="10" y="9" width="50" height="70" as="geometry" />
        </mxCell>
        <mxCell id="vj5q8sm1Q5aXYHxkzJwI-40" value="Real&lt;div&gt;News&lt;/div&gt;" style="html=1;verticalLabelPosition=middle;align=center;labelBackgroundColor=none;verticalAlign=middle;strokeWidth=2;strokeColor=#82b366;shadow=0;dashed=0;shape=mxgraph.ios7.icons.document;labelPosition=center;fillColor=#d5e8d4;" parent="vj5q8sm1Q5aXYHxkzJwI-48" vertex="1">
          <mxGeometry y="20" width="50" height="70" as="geometry" />
        </mxCell>
        <mxCell id="vj5q8sm1Q5aXYHxkzJwI-49" value="" style="group" parent="vj5q8sm1Q5aXYHxkzJwI-77" vertex="1" connectable="0">
          <mxGeometry x="110" y="30" width="70" height="90" as="geometry" />
        </mxCell>
        <mxCell id="vj5q8sm1Q5aXYHxkzJwI-45" value="Fake&lt;div&gt;News&lt;/div&gt;" style="html=1;verticalLabelPosition=middle;align=center;labelBackgroundColor=none;verticalAlign=middle;strokeWidth=2;strokeColor=#b85450;shadow=0;dashed=0;shape=mxgraph.ios7.icons.document;labelPosition=center;fillColor=#f8cecc;" parent="vj5q8sm1Q5aXYHxkzJwI-49" vertex="1">
          <mxGeometry x="20" width="50" height="70" as="geometry" />
        </mxCell>
        <mxCell id="vj5q8sm1Q5aXYHxkzJwI-46" value="Fake&lt;div&gt;News&lt;/div&gt;" style="html=1;verticalLabelPosition=middle;align=center;labelBackgroundColor=none;verticalAlign=middle;strokeWidth=2;strokeColor=#b85450;shadow=0;dashed=0;shape=mxgraph.ios7.icons.document;labelPosition=center;fillColor=#f8cecc;" parent="vj5q8sm1Q5aXYHxkzJwI-49" vertex="1">
          <mxGeometry x="10" y="9" width="50" height="70" as="geometry" />
        </mxCell>
        <mxCell id="vj5q8sm1Q5aXYHxkzJwI-47" value="Fake&lt;div&gt;News&lt;/div&gt;" style="html=1;verticalLabelPosition=middle;align=center;labelBackgroundColor=none;verticalAlign=middle;strokeWidth=2;strokeColor=#b85450;shadow=0;dashed=0;shape=mxgraph.ios7.icons.document;labelPosition=center;fillColor=#f8cecc;" parent="vj5q8sm1Q5aXYHxkzJwI-49" vertex="1">
          <mxGeometry y="20" width="50" height="70" as="geometry" />
        </mxCell>
        <mxCell id="eBzTgfLa1kKEBilJZ-4N-1" value="Graph Construction" style="points=[[0.25,0,0],[0.5,0,0],[0.75,0,0],[1,0.25,0],[1,0.5,0],[1,0.75,0],[0.75,1,0],[0.5,1,0],[0.25,1,0],[0,0.75,0],[0,0.5,0],[0,0.25,0]];rounded=1;dashed=1;dashPattern=5 2 1 2;labelPosition=center;verticalLabelPosition=middle;align=center;verticalAlign=top;fontSize=18;html=1;whiteSpace=wrap;labelBackgroundColor=none;fillColor=none;movable=0;resizable=0;rotatable=0;deletable=0;editable=0;locked=1;connectable=0;fontFamily=Roboto;" parent="1" vertex="1">
          <mxGeometry x="660" y="110" width="370" height="370" as="geometry" />
        </mxCell>
        <mxCell id="Lb2E-xeNcWRumCF83qt6-13" value="Arrow" style="" parent="0" />
        <mxCell id="Lb2E-xeNcWRumCF83qt6-28" value="&lt;div style=&quot;text-align: center;&quot;&gt;&lt;span style=&quot;background-color: light-dark(#ffffff, var(--ge-dark-color, #121212)); color: light-dark(rgb(0, 0, 0), rgb(255, 255, 255));&quot;&gt;&lt;b&gt;&lt;font face=&quot;Roboto&quot; style=&quot;font-size: 16px;&quot;&gt;Key Features&lt;/font&gt;&lt;/b&gt;&lt;/span&gt;&lt;/div&gt;&lt;div&gt;&lt;ul&gt;&lt;li&gt;&lt;font face=&quot;Roboto&quot; style=&quot;font-size: 12px;&quot;&gt;N-way-K-shot (N=2, K=3-16)&lt;/font&gt;&lt;/li&gt;&lt;li&gt;&lt;font face=&quot;Roboto&quot; style=&quot;font-size: 12px;&quot;&gt;Transductive Learning&lt;/font&gt;&lt;/li&gt;&lt;li&gt;&lt;font face=&quot;Roboto&quot; style=&quot;font-size: 12px;&quot;&gt;Train on labeled nodes only&lt;/font&gt;&lt;/li&gt;&lt;li style=&quot;&quot;&gt;&lt;font face=&quot;Roboto&quot; style=&quot;font-size: 12px;&quot;&gt;Message passing through all nodes&lt;/font&gt;&lt;/li&gt;&lt;/ul&gt;&lt;/div&gt;" style="rounded=1;whiteSpace=wrap;html=1;fontFamily=Helvetica;fontSize=11;fontColor=default;labelBackgroundColor=default;align=left;" parent="Lb2E-xeNcWRumCF83qt6-13" vertex="1">
          <mxGeometry x="30" y="550" width="260" height="150" as="geometry" />
        </mxCell>
        <mxCell id="tYz1vPv6MC9sJOwBcN7z-2" value="" style="group" parent="Lb2E-xeNcWRumCF83qt6-13" vertex="1" connectable="0">
          <mxGeometry x="800" y="290" width="50" height="100" as="geometry" />
        </mxCell>
        <mxCell id="Lb2E-xeNcWRumCF83qt6-27" style="edgeStyle=none;shape=connector;rounded=0;orthogonalLoop=1;jettySize=auto;html=1;exitX=0.5;exitY=0.5;exitDx=0;exitDy=0;exitPerimeter=0;entryX=0.5;entryY=0.5;entryDx=0;entryDy=0;entryPerimeter=0;strokeColor=default;align=center;verticalAlign=middle;fontFamily=Helvetica;fontSize=11;fontColor=default;labelBackgroundColor=default;startFill=0;endArrow=none;" parent="tYz1vPv6MC9sJOwBcN7z-2" source="eBzTgfLa1kKEBilJZ-4N-13" target="eBzTgfLa1kKEBilJZ-4N-8" edge="1">
          <mxGeometry relative="1" as="geometry" />
        </mxCell>
        <mxCell id="Lb2E-xeNcWRumCF83qt6-25" style="edgeStyle=none;shape=connector;rounded=0;orthogonalLoop=1;jettySize=auto;html=1;exitX=0.5;exitY=0.5;exitDx=0;exitDy=0;exitPerimeter=0;entryX=0.5;entryY=0.5;entryDx=0;entryDy=0;entryPerimeter=0;strokeColor=default;align=center;verticalAlign=middle;fontFamily=Helvetica;fontSize=11;fontColor=default;labelBackgroundColor=default;startFill=0;endArrow=none;" parent="tYz1vPv6MC9sJOwBcN7z-2" source="eBzTgfLa1kKEBilJZ-4N-9" target="eBzTgfLa1kKEBilJZ-4N-10" edge="1">
          <mxGeometry relative="1" as="geometry" />
        </mxCell>
        <mxCell id="Lb2E-xeNcWRumCF83qt6-12" style="edgeStyle=none;shape=connector;rounded=0;orthogonalLoop=1;jettySize=auto;html=1;exitX=0.5;exitY=0.5;exitDx=0;exitDy=0;exitPerimeter=0;entryX=0.5;entryY=0.5;entryDx=0;entryDy=0;entryPerimeter=0;strokeColor=default;align=center;verticalAlign=middle;fontFamily=Helvetica;fontSize=11;fontColor=default;labelBackgroundColor=default;startFill=0;endArrow=none;" parent="tYz1vPv6MC9sJOwBcN7z-2" source="eBzTgfLa1kKEBilJZ-4N-12" target="eBzTgfLa1kKEBilJZ-4N-8" edge="1">
          <mxGeometry relative="1" as="geometry" />
        </mxCell>
        <mxCell id="Lb2E-xeNcWRumCF83qt6-1" style="rounded=0;orthogonalLoop=1;jettySize=auto;html=1;exitX=0.5;exitY=0.5;exitDx=0;exitDy=0;exitPerimeter=0;entryX=0.5;entryY=0.5;entryDx=0;entryDy=0;entryPerimeter=0;endArrow=none;startFill=0;" parent="tYz1vPv6MC9sJOwBcN7z-2" source="eBzTgfLa1kKEBilJZ-4N-38" target="eBzTgfLa1kKEBilJZ-4N-10" edge="1">
          <mxGeometry relative="1" as="geometry" />
        </mxCell>
        <mxCell id="Lb2E-xeNcWRumCF83qt6-3" style="edgeStyle=none;shape=connector;rounded=0;orthogonalLoop=1;jettySize=auto;html=1;exitX=0.5;exitY=0.5;exitDx=0;exitDy=0;exitPerimeter=0;entryX=0.5;entryY=0.5;entryDx=0;entryDy=0;entryPerimeter=0;strokeColor=default;align=center;verticalAlign=middle;fontFamily=Helvetica;fontSize=11;fontColor=default;labelBackgroundColor=default;startFill=0;endArrow=none;" parent="tYz1vPv6MC9sJOwBcN7z-2" source="eBzTgfLa1kKEBilJZ-4N-39" target="eBzTgfLa1kKEBilJZ-4N-7" edge="1">
          <mxGeometry relative="1" as="geometry">
            <mxPoint x="205" y="25" as="sourcePoint" />
          </mxGeometry>
        </mxCell>
        <mxCell id="Lb2E-xeNcWRumCF83qt6-6" style="edgeStyle=none;shape=connector;rounded=0;orthogonalLoop=1;jettySize=auto;html=1;exitX=0.5;exitY=0.5;exitDx=0;exitDy=0;exitPerimeter=0;entryX=0.5;entryY=0.5;entryDx=0;entryDy=0;entryPerimeter=0;strokeColor=default;align=center;verticalAlign=middle;fontFamily=Helvetica;fontSize=11;fontColor=default;labelBackgroundColor=default;startFill=0;endArrow=none;" parent="tYz1vPv6MC9sJOwBcN7z-2" source="eBzTgfLa1kKEBilJZ-4N-6" target="eBzTgfLa1kKEBilJZ-4N-7" edge="1">
          <mxGeometry relative="1" as="geometry" />
        </mxCell>
        <mxCell id="Lb2E-xeNcWRumCF83qt6-7" style="edgeStyle=none;shape=connector;rounded=0;orthogonalLoop=1;jettySize=auto;html=1;exitX=0.5;exitY=0.5;exitDx=0;exitDy=0;exitPerimeter=0;entryX=0.5;entryY=0.5;entryDx=0;entryDy=0;entryPerimeter=0;strokeColor=default;align=center;verticalAlign=middle;fontFamily=Helvetica;fontSize=11;fontColor=default;labelBackgroundColor=default;startFill=0;endArrow=none;" parent="tYz1vPv6MC9sJOwBcN7z-2" source="eBzTgfLa1kKEBilJZ-4N-19" target="eBzTgfLa1kKEBilJZ-4N-24" edge="1">
          <mxGeometry relative="1" as="geometry" />
        </mxCell>
        <mxCell id="Lb2E-xeNcWRumCF83qt6-8" style="edgeStyle=none;shape=connector;rounded=0;orthogonalLoop=1;jettySize=auto;html=1;exitX=0.5;exitY=0.5;exitDx=0;exitDy=0;exitPerimeter=0;entryX=0.5;entryY=0.5;entryDx=0;entryDy=0;entryPerimeter=0;strokeColor=default;align=center;verticalAlign=middle;fontFamily=Helvetica;fontSize=11;fontColor=default;labelBackgroundColor=default;startFill=0;endArrow=none;" parent="tYz1vPv6MC9sJOwBcN7z-2" source="eBzTgfLa1kKEBilJZ-4N-56" target="eBzTgfLa1kKEBilJZ-4N-9" edge="1">
          <mxGeometry relative="1" as="geometry" />
        </mxCell>
        <mxCell id="Lb2E-xeNcWRumCF83qt6-11" style="edgeStyle=none;shape=connector;rounded=0;orthogonalLoop=1;jettySize=auto;html=1;exitX=0.5;exitY=0.5;exitDx=0;exitDy=0;exitPerimeter=0;entryX=0.5;entryY=0.5;entryDx=0;entryDy=0;entryPerimeter=0;strokeColor=default;align=center;verticalAlign=middle;fontFamily=Helvetica;fontSize=11;fontColor=default;labelBackgroundColor=default;startFill=0;endArrow=none;" parent="tYz1vPv6MC9sJOwBcN7z-2" source="eBzTgfLa1kKEBilJZ-4N-53" target="vj5q8sm1Q5aXYHxkzJwI-11" edge="1">
          <mxGeometry relative="1" as="geometry" />
        </mxCell>
        <mxCell id="Lb2E-xeNcWRumCF83qt6-4" style="edgeStyle=none;shape=connector;rounded=0;orthogonalLoop=1;jettySize=auto;html=1;exitX=0.5;exitY=0.5;exitDx=0;exitDy=0;exitPerimeter=0;entryX=0.5;entryY=0.5;entryDx=0;entryDy=0;entryPerimeter=0;strokeColor=default;align=center;verticalAlign=middle;fontFamily=Helvetica;fontSize=11;fontColor=default;labelBackgroundColor=default;startFill=0;endArrow=none;" parent="tYz1vPv6MC9sJOwBcN7z-2" source="eBzTgfLa1kKEBilJZ-4N-10" target="eBzTgfLa1kKEBilJZ-4N-8" edge="1">
          <mxGeometry relative="1" as="geometry" />
        </mxCell>
        <mxCell id="Lb2E-xeNcWRumCF83qt6-10" style="edgeStyle=none;shape=connector;rounded=0;orthogonalLoop=1;jettySize=auto;html=1;exitX=0.5;exitY=0.5;exitDx=0;exitDy=0;exitPerimeter=0;entryX=0.5;entryY=0.5;entryDx=0;entryDy=0;entryPerimeter=0;strokeColor=default;align=center;verticalAlign=middle;fontFamily=Helvetica;fontSize=11;fontColor=default;labelBackgroundColor=default;startFill=0;endArrow=none;" parent="tYz1vPv6MC9sJOwBcN7z-2" source="eBzTgfLa1kKEBilJZ-4N-37" target="eBzTgfLa1kKEBilJZ-4N-7" edge="1">
          <mxGeometry relative="1" as="geometry" />
        </mxCell>
        <mxCell id="cb4JNykG4vl9RIHebCXz-7" style="edgeStyle=none;shape=connector;rounded=0;orthogonalLoop=1;jettySize=auto;html=1;exitX=0.5;exitY=0.5;exitDx=0;exitDy=0;exitPerimeter=0;entryX=0.5;entryY=0.5;entryDx=0;entryDy=0;entryPerimeter=0;strokeColor=default;align=center;verticalAlign=middle;fontFamily=Helvetica;fontSize=11;fontColor=default;labelBackgroundColor=default;startFill=0;startSize=6;endArrow=none;endSize=6;" parent="tYz1vPv6MC9sJOwBcN7z-2" source="eBzTgfLa1kKEBilJZ-4N-44" target="eBzTgfLa1kKEBilJZ-4N-12" edge="1">
          <mxGeometry relative="1" as="geometry" />
        </mxCell>
        <mxCell id="cb4JNykG4vl9RIHebCXz-6" style="edgeStyle=none;shape=connector;rounded=0;orthogonalLoop=1;jettySize=auto;html=1;exitX=0.5;exitY=0.5;exitDx=0;exitDy=0;exitPerimeter=0;entryX=0.5;entryY=0.5;entryDx=0;entryDy=0;entryPerimeter=0;strokeColor=default;align=center;verticalAlign=middle;fontFamily=Helvetica;fontSize=11;fontColor=default;labelBackgroundColor=default;startFill=0;startSize=6;endArrow=none;endSize=6;" parent="tYz1vPv6MC9sJOwBcN7z-2" source="eBzTgfLa1kKEBilJZ-4N-58" target="eBzTgfLa1kKEBilJZ-4N-19" edge="1">
          <mxGeometry relative="1" as="geometry" />
        </mxCell>
        <mxCell id="cb4JNykG4vl9RIHebCXz-5" style="edgeStyle=none;shape=connector;rounded=0;orthogonalLoop=1;jettySize=auto;html=1;exitX=0.5;exitY=0.5;exitDx=0;exitDy=0;exitPerimeter=0;entryX=0.5;entryY=0.5;entryDx=0;entryDy=0;entryPerimeter=0;strokeColor=default;align=center;verticalAlign=middle;fontFamily=Helvetica;fontSize=11;fontColor=default;labelBackgroundColor=default;startFill=0;startSize=6;endArrow=none;endSize=6;" parent="tYz1vPv6MC9sJOwBcN7z-2" source="eBzTgfLa1kKEBilJZ-4N-25" target="eBzTgfLa1kKEBilJZ-4N-12" edge="1">
          <mxGeometry relative="1" as="geometry" />
        </mxCell>
        <mxCell id="eBzTgfLa1kKEBilJZ-4N-91" style="edgeStyle=none;shape=connector;rounded=0;orthogonalLoop=1;jettySize=auto;html=1;exitX=0.5;exitY=0.5;exitDx=0;exitDy=0;exitPerimeter=0;entryX=0.5;entryY=0.5;entryDx=0;entryDy=0;entryPerimeter=0;strokeColor=default;align=center;verticalAlign=middle;fontFamily=Helvetica;fontSize=11;fontColor=default;labelBackgroundColor=default;startFill=0;startSize=6;endArrow=none;endSize=6;" parent="tYz1vPv6MC9sJOwBcN7z-2" source="eBzTgfLa1kKEBilJZ-4N-59" target="eBzTgfLa1kKEBilJZ-4N-8" edge="1">
          <mxGeometry relative="1" as="geometry" />
        </mxCell>
        <mxCell id="cb4JNykG4vl9RIHebCXz-3" style="edgeStyle=none;shape=connector;rounded=0;orthogonalLoop=1;jettySize=auto;html=1;exitX=0.5;exitY=0.5;exitDx=0;exitDy=0;exitPerimeter=0;entryX=0.5;entryY=0.5;entryDx=0;entryDy=0;entryPerimeter=0;strokeColor=default;align=center;verticalAlign=middle;fontFamily=Helvetica;fontSize=11;fontColor=default;labelBackgroundColor=default;startFill=0;startSize=6;endArrow=none;endSize=6;" parent="tYz1vPv6MC9sJOwBcN7z-2" source="eBzTgfLa1kKEBilJZ-4N-19" target="eBzTgfLa1kKEBilJZ-4N-9" edge="1">
          <mxGeometry relative="1" as="geometry" />
        </mxCell>
        <mxCell id="eBzTgfLa1kKEBilJZ-4N-72" style="edgeStyle=none;shape=connector;rounded=0;orthogonalLoop=1;jettySize=auto;html=1;exitX=0.5;exitY=0.5;exitDx=0;exitDy=0;exitPerimeter=0;entryX=0.5;entryY=0.5;entryDx=0;entryDy=0;entryPerimeter=0;strokeColor=default;align=center;verticalAlign=middle;fontFamily=Helvetica;fontSize=11;fontColor=default;labelBackgroundColor=default;startFill=0;startSize=6;endArrow=none;endSize=6;" parent="tYz1vPv6MC9sJOwBcN7z-2" source="eBzTgfLa1kKEBilJZ-4N-42" target="eBzTgfLa1kKEBilJZ-4N-53" edge="1">
          <mxGeometry relative="1" as="geometry">
            <mxPoint x="205" y="-25" as="sourcePoint" />
          </mxGeometry>
        </mxCell>
        <mxCell id="eBzTgfLa1kKEBilJZ-4N-64" style="edgeStyle=none;shape=connector;rounded=0;orthogonalLoop=1;jettySize=auto;html=1;exitX=0.5;exitY=0.5;exitDx=0;exitDy=0;exitPerimeter=0;entryX=0.5;entryY=0.5;entryDx=0;entryDy=0;entryPerimeter=0;strokeColor=default;align=center;verticalAlign=middle;fontFamily=Helvetica;fontSize=11;fontColor=default;labelBackgroundColor=default;startFill=0;startSize=6;endArrow=none;endSize=6;" parent="tYz1vPv6MC9sJOwBcN7z-2" source="eBzTgfLa1kKEBilJZ-4N-17" target="eBzTgfLa1kKEBilJZ-4N-41" edge="1">
          <mxGeometry relative="1" as="geometry" />
        </mxCell>
        <mxCell id="eBzTgfLa1kKEBilJZ-4N-68" style="edgeStyle=none;shape=connector;rounded=0;orthogonalLoop=1;jettySize=auto;html=1;exitX=0.5;exitY=0.5;exitDx=0;exitDy=0;exitPerimeter=0;entryX=0.5;entryY=0.5;entryDx=0;entryDy=0;entryPerimeter=0;strokeColor=default;align=center;verticalAlign=middle;fontFamily=Helvetica;fontSize=11;fontColor=default;labelBackgroundColor=default;startFill=0;startSize=6;endArrow=none;endSize=6;" parent="tYz1vPv6MC9sJOwBcN7z-2" source="eBzTgfLa1kKEBilJZ-4N-9" target="eBzTgfLa1kKEBilJZ-4N-8" edge="1">
          <mxGeometry relative="1" as="geometry" />
        </mxCell>
        <mxCell id="cb4JNykG4vl9RIHebCXz-10" style="edgeStyle=none;shape=connector;rounded=0;orthogonalLoop=1;jettySize=auto;html=1;exitX=0.5;exitY=0.5;exitDx=0;exitDy=0;exitPerimeter=0;entryX=0.5;entryY=0.5;entryDx=0;entryDy=0;entryPerimeter=0;strokeColor=default;align=center;verticalAlign=middle;fontFamily=Helvetica;fontSize=11;fontColor=default;labelBackgroundColor=default;startFill=0;startSize=6;endArrow=none;endSize=6;" parent="tYz1vPv6MC9sJOwBcN7z-2" source="eBzTgfLa1kKEBilJZ-4N-45" target="eBzTgfLa1kKEBilJZ-4N-8" edge="1">
          <mxGeometry relative="1" as="geometry" />
        </mxCell>
        <mxCell id="eBzTgfLa1kKEBilJZ-4N-90" style="edgeStyle=none;shape=connector;rounded=0;orthogonalLoop=1;jettySize=auto;html=1;exitX=0.5;exitY=0.5;exitDx=0;exitDy=0;exitPerimeter=0;strokeColor=default;align=center;verticalAlign=middle;fontFamily=Helvetica;fontSize=11;fontColor=default;labelBackgroundColor=default;startFill=0;startSize=6;endArrow=none;endSize=6;entryX=0.5;entryY=0.5;entryDx=0;entryDy=0;entryPerimeter=0;" parent="tYz1vPv6MC9sJOwBcN7z-2" source="eBzTgfLa1kKEBilJZ-4N-27" target="eBzTgfLa1kKEBilJZ-4N-8" edge="1">
          <mxGeometry relative="1" as="geometry">
            <mxPoint x="-30" as="targetPoint" />
          </mxGeometry>
        </mxCell>
        <mxCell id="eBzTgfLa1kKEBilJZ-4N-86" style="edgeStyle=none;shape=connector;rounded=0;orthogonalLoop=1;jettySize=auto;html=1;exitX=0.5;exitY=0.5;exitDx=0;exitDy=0;exitPerimeter=0;entryX=0.5;entryY=0.5;entryDx=0;entryDy=0;entryPerimeter=0;strokeColor=default;align=center;verticalAlign=middle;fontFamily=Helvetica;fontSize=11;fontColor=default;labelBackgroundColor=default;startFill=0;startSize=6;endArrow=none;endSize=6;" parent="tYz1vPv6MC9sJOwBcN7z-2" source="eBzTgfLa1kKEBilJZ-4N-11" target="eBzTgfLa1kKEBilJZ-4N-8" edge="1">
          <mxGeometry relative="1" as="geometry" />
        </mxCell>
        <mxCell id="eBzTgfLa1kKEBilJZ-4N-87" style="edgeStyle=none;shape=connector;rounded=0;orthogonalLoop=1;jettySize=auto;html=1;exitX=0.5;exitY=0.5;exitDx=0;exitDy=0;exitPerimeter=0;entryX=0.5;entryY=0.5;entryDx=0;entryDy=0;entryPerimeter=0;strokeColor=default;align=center;verticalAlign=middle;fontFamily=Helvetica;fontSize=11;fontColor=default;labelBackgroundColor=default;startFill=0;startSize=6;endArrow=none;endSize=6;" parent="tYz1vPv6MC9sJOwBcN7z-2" source="eBzTgfLa1kKEBilJZ-4N-8" target="eBzTgfLa1kKEBilJZ-4N-28" edge="1">
          <mxGeometry relative="1" as="geometry" />
        </mxCell>
        <mxCell id="eBzTgfLa1kKEBilJZ-4N-82" style="edgeStyle=none;shape=connector;rounded=0;orthogonalLoop=1;jettySize=auto;html=1;exitX=0.5;exitY=0.5;exitDx=0;exitDy=0;exitPerimeter=0;strokeColor=default;align=center;verticalAlign=middle;fontFamily=Helvetica;fontSize=11;fontColor=default;labelBackgroundColor=default;startFill=0;startSize=6;endArrow=none;endSize=6;entryX=0.5;entryY=0.5;entryDx=0;entryDy=0;entryPerimeter=0;" parent="tYz1vPv6MC9sJOwBcN7z-2" source="eBzTgfLa1kKEBilJZ-4N-15" target="vj5q8sm1Q5aXYHxkzJwI-11" edge="1">
          <mxGeometry relative="1" as="geometry" />
        </mxCell>
        <mxCell id="eBzTgfLa1kKEBilJZ-4N-69" style="edgeStyle=none;shape=connector;rounded=0;orthogonalLoop=1;jettySize=auto;html=1;exitX=0.5;exitY=0.5;exitDx=0;exitDy=0;exitPerimeter=0;entryX=0.5;entryY=0.5;entryDx=0;entryDy=0;entryPerimeter=0;strokeColor=default;align=center;verticalAlign=middle;fontFamily=Helvetica;fontSize=11;fontColor=default;labelBackgroundColor=default;startFill=0;startSize=6;endArrow=none;endSize=6;" parent="tYz1vPv6MC9sJOwBcN7z-2" source="vj5q8sm1Q5aXYHxkzJwI-11" target="eBzTgfLa1kKEBilJZ-4N-7" edge="1">
          <mxGeometry relative="1" as="geometry" />
        </mxCell>
        <mxCell id="eBzTgfLa1kKEBilJZ-4N-70" style="edgeStyle=none;shape=connector;rounded=0;orthogonalLoop=1;jettySize=auto;html=1;exitX=0.5;exitY=0.5;exitDx=0;exitDy=0;exitPerimeter=0;entryX=0.5;entryY=0.5;entryDx=0;entryDy=0;entryPerimeter=0;strokeColor=default;align=center;verticalAlign=middle;fontFamily=Helvetica;fontSize=11;fontColor=default;labelBackgroundColor=default;startFill=0;startSize=6;endArrow=none;endSize=6;" parent="tYz1vPv6MC9sJOwBcN7z-2" source="eBzTgfLa1kKEBilJZ-4N-6" target="vj5q8sm1Q5aXYHxkzJwI-11" edge="1">
          <mxGeometry relative="1" as="geometry" />
        </mxCell>
        <mxCell id="eBzTgfLa1kKEBilJZ-4N-63" style="edgeStyle=none;shape=connector;rounded=0;orthogonalLoop=1;jettySize=auto;html=1;exitX=0.5;exitY=0.5;exitDx=0;exitDy=0;exitPerimeter=0;entryX=0.5;entryY=0.5;entryDx=0;entryDy=0;entryPerimeter=0;strokeColor=default;align=center;verticalAlign=middle;fontFamily=Helvetica;fontSize=11;fontColor=default;labelBackgroundColor=default;startFill=0;startSize=6;endArrow=none;endSize=6;" parent="tYz1vPv6MC9sJOwBcN7z-2" source="eBzTgfLa1kKEBilJZ-4N-17" target="eBzTgfLa1kKEBilJZ-4N-7" edge="1">
          <mxGeometry relative="1" as="geometry" />
        </mxCell>
        <mxCell id="eBzTgfLa1kKEBilJZ-4N-73" style="edgeStyle=none;shape=connector;rounded=0;orthogonalLoop=1;jettySize=auto;html=1;exitX=0.5;exitY=0.5;exitDx=0;exitDy=0;exitPerimeter=0;entryX=0.5;entryY=0.5;entryDx=0;entryDy=0;entryPerimeter=0;strokeColor=default;align=center;verticalAlign=middle;fontFamily=Helvetica;fontSize=11;fontColor=default;labelBackgroundColor=default;startFill=0;startSize=6;endArrow=none;endSize=6;" parent="tYz1vPv6MC9sJOwBcN7z-2" source="eBzTgfLa1kKEBilJZ-4N-22" target="eBzTgfLa1kKEBilJZ-4N-10" edge="1">
          <mxGeometry relative="1" as="geometry" />
        </mxCell>
        <mxCell id="eBzTgfLa1kKEBilJZ-4N-74" style="edgeStyle=none;shape=connector;rounded=0;orthogonalLoop=1;jettySize=auto;html=1;exitX=0.5;exitY=0.5;exitDx=0;exitDy=0;exitPerimeter=0;entryX=0.5;entryY=0.5;entryDx=0;entryDy=0;entryPerimeter=0;strokeColor=default;align=center;verticalAlign=middle;fontFamily=Helvetica;fontSize=11;fontColor=default;labelBackgroundColor=default;startFill=0;startSize=6;endArrow=none;endSize=6;" parent="tYz1vPv6MC9sJOwBcN7z-2" source="eBzTgfLa1kKEBilJZ-4N-21" target="eBzTgfLa1kKEBilJZ-4N-7" edge="1">
          <mxGeometry relative="1" as="geometry" />
        </mxCell>
        <mxCell id="eBzTgfLa1kKEBilJZ-4N-76" style="edgeStyle=none;shape=connector;rounded=0;orthogonalLoop=1;jettySize=auto;html=1;exitX=0.5;exitY=0.5;exitDx=0;exitDy=0;exitPerimeter=0;entryX=0.5;entryY=0.5;entryDx=0;entryDy=0;entryPerimeter=0;strokeColor=default;align=center;verticalAlign=middle;fontFamily=Helvetica;fontSize=11;fontColor=default;labelBackgroundColor=default;startFill=0;startSize=6;endArrow=none;endSize=6;" parent="tYz1vPv6MC9sJOwBcN7z-2" source="eBzTgfLa1kKEBilJZ-4N-20" target="eBzTgfLa1kKEBilJZ-4N-7" edge="1">
          <mxGeometry relative="1" as="geometry" />
        </mxCell>
        <mxCell id="cb4JNykG4vl9RIHebCXz-12" style="edgeStyle=none;shape=connector;rounded=0;orthogonalLoop=1;jettySize=auto;html=1;exitX=0.5;exitY=0.5;exitDx=0;exitDy=0;exitPerimeter=0;entryX=0.5;entryY=0.5;entryDx=0;entryDy=0;entryPerimeter=0;strokeColor=default;align=center;verticalAlign=middle;fontFamily=Helvetica;fontSize=11;fontColor=default;labelBackgroundColor=default;startFill=0;startSize=6;endArrow=none;endSize=6;" parent="tYz1vPv6MC9sJOwBcN7z-2" source="eBzTgfLa1kKEBilJZ-4N-16" target="eBzTgfLa1kKEBilJZ-4N-10" edge="1">
          <mxGeometry relative="1" as="geometry" />
        </mxCell>
        <mxCell id="eBzTgfLa1kKEBilJZ-4N-79" style="edgeStyle=none;shape=connector;rounded=0;orthogonalLoop=1;jettySize=auto;html=1;exitX=0.5;exitY=0.5;exitDx=0;exitDy=0;exitPerimeter=0;entryX=0.5;entryY=0.5;entryDx=0;entryDy=0;entryPerimeter=0;strokeColor=default;align=center;verticalAlign=middle;fontFamily=Helvetica;fontSize=11;fontColor=default;labelBackgroundColor=default;startFill=0;startSize=6;endArrow=none;endSize=6;" parent="tYz1vPv6MC9sJOwBcN7z-2" source="eBzTgfLa1kKEBilJZ-4N-50" target="eBzTgfLa1kKEBilJZ-4N-10" edge="1">
          <mxGeometry relative="1" as="geometry" />
        </mxCell>
        <mxCell id="eBzTgfLa1kKEBilJZ-4N-66" style="edgeStyle=none;shape=connector;rounded=0;orthogonalLoop=1;jettySize=auto;html=1;exitX=0.5;exitY=0.5;exitDx=0;exitDy=0;exitPerimeter=0;strokeColor=default;align=center;verticalAlign=middle;fontFamily=Helvetica;fontSize=11;fontColor=default;labelBackgroundColor=default;startFill=0;startSize=6;endArrow=none;endSize=6;entryX=0.5;entryY=0.5;entryDx=0;entryDy=0;entryPerimeter=0;" parent="tYz1vPv6MC9sJOwBcN7z-2" source="eBzTgfLa1kKEBilJZ-4N-15" target="eBzTgfLa1kKEBilJZ-4N-32" edge="1">
          <mxGeometry relative="1" as="geometry" />
        </mxCell>
        <mxCell id="eBzTgfLa1kKEBilJZ-4N-67" style="edgeStyle=none;shape=connector;rounded=0;orthogonalLoop=1;jettySize=auto;html=1;exitX=0.5;exitY=0.5;exitDx=0;exitDy=0;exitPerimeter=0;entryX=0.5;entryY=0.5;entryDx=0;entryDy=0;entryPerimeter=0;strokeColor=default;align=center;verticalAlign=middle;fontFamily=Helvetica;fontSize=11;fontColor=default;labelBackgroundColor=default;startFill=0;startSize=6;endArrow=none;endSize=6;" parent="tYz1vPv6MC9sJOwBcN7z-2" source="eBzTgfLa1kKEBilJZ-4N-6" target="eBzTgfLa1kKEBilJZ-4N-15" edge="1">
          <mxGeometry relative="1" as="geometry" />
        </mxCell>
        <mxCell id="eBzTgfLa1kKEBilJZ-4N-65" style="edgeStyle=none;shape=connector;rounded=0;orthogonalLoop=1;jettySize=auto;html=1;exitX=0.5;exitY=0.5;exitDx=0;exitDy=0;exitPerimeter=0;entryX=0.5;entryY=0.5;entryDx=0;entryDy=0;entryPerimeter=0;strokeColor=default;align=center;verticalAlign=middle;fontFamily=Helvetica;fontSize=11;fontColor=default;labelBackgroundColor=default;startFill=0;startSize=6;endArrow=none;endSize=6;" parent="tYz1vPv6MC9sJOwBcN7z-2" source="eBzTgfLa1kKEBilJZ-4N-14" target="eBzTgfLa1kKEBilJZ-4N-6" edge="1">
          <mxGeometry relative="1" as="geometry" />
        </mxCell>
        <mxCell id="cb4JNykG4vl9RIHebCXz-11" style="edgeStyle=none;shape=connector;rounded=0;orthogonalLoop=1;jettySize=auto;html=1;exitX=0.5;exitY=0.5;exitDx=0;exitDy=0;exitPerimeter=0;entryX=0.5;entryY=0.5;entryDx=0;entryDy=0;entryPerimeter=0;strokeColor=default;align=center;verticalAlign=middle;fontFamily=Helvetica;fontSize=11;fontColor=default;labelBackgroundColor=default;startFill=0;startSize=6;endArrow=none;endSize=6;" parent="tYz1vPv6MC9sJOwBcN7z-2" source="eBzTgfLa1kKEBilJZ-4N-47" target="eBzTgfLa1kKEBilJZ-4N-6" edge="1">
          <mxGeometry relative="1" as="geometry" />
        </mxCell>
        <mxCell id="eBzTgfLa1kKEBilJZ-4N-84" style="edgeStyle=none;shape=connector;rounded=0;orthogonalLoop=1;jettySize=auto;html=1;exitX=0.5;exitY=0.5;exitDx=0;exitDy=0;exitPerimeter=0;entryX=0.5;entryY=0.5;entryDx=0;entryDy=0;entryPerimeter=0;strokeColor=default;align=center;verticalAlign=middle;fontFamily=Helvetica;fontSize=11;fontColor=default;labelBackgroundColor=default;startFill=0;startSize=6;endArrow=none;endSize=6;" parent="tYz1vPv6MC9sJOwBcN7z-2" source="eBzTgfLa1kKEBilJZ-4N-29" target="eBzTgfLa1kKEBilJZ-4N-30" edge="1">
          <mxGeometry relative="1" as="geometry" />
        </mxCell>
        <mxCell id="eBzTgfLa1kKEBilJZ-4N-85" style="edgeStyle=none;shape=connector;rounded=0;orthogonalLoop=1;jettySize=auto;html=1;exitX=0.5;exitY=0.5;exitDx=0;exitDy=0;exitPerimeter=0;strokeColor=default;align=center;verticalAlign=middle;fontFamily=Helvetica;fontSize=11;fontColor=default;labelBackgroundColor=default;startFill=0;startSize=6;endArrow=none;endSize=6;entryX=0.5;entryY=0.5;entryDx=0;entryDy=0;entryPerimeter=0;" parent="tYz1vPv6MC9sJOwBcN7z-2" source="eBzTgfLa1kKEBilJZ-4N-13" target="eBzTgfLa1kKEBilJZ-4N-6" edge="1">
          <mxGeometry relative="1" as="geometry">
            <mxPoint x="-20" y="30" as="targetPoint" />
          </mxGeometry>
        </mxCell>
        <mxCell id="eBzTgfLa1kKEBilJZ-4N-89" style="edgeStyle=none;shape=connector;rounded=0;orthogonalLoop=1;jettySize=auto;html=1;exitX=0.5;exitY=0.5;exitDx=0;exitDy=0;exitPerimeter=0;entryX=0.5;entryY=0.5;entryDx=0;entryDy=0;entryPerimeter=0;strokeColor=default;align=center;verticalAlign=middle;fontFamily=Helvetica;fontSize=11;fontColor=default;labelBackgroundColor=default;startFill=0;startSize=6;endArrow=none;endSize=6;" parent="tYz1vPv6MC9sJOwBcN7z-2" source="eBzTgfLa1kKEBilJZ-4N-46" target="eBzTgfLa1kKEBilJZ-4N-13" edge="1">
          <mxGeometry relative="1" as="geometry" />
        </mxCell>
        <mxCell id="eBzTgfLa1kKEBilJZ-4N-62" style="rounded=0;orthogonalLoop=1;jettySize=auto;html=1;exitX=0.5;exitY=0.5;exitDx=0;exitDy=0;exitPerimeter=0;entryX=0.5;entryY=0.5;entryDx=0;entryDy=0;entryPerimeter=0;endArrow=none;startFill=0;startSize=6;endSize=6;" parent="tYz1vPv6MC9sJOwBcN7z-2" source="eBzTgfLa1kKEBilJZ-4N-9" target="eBzTgfLa1kKEBilJZ-4N-7" edge="1">
          <mxGeometry relative="1" as="geometry" />
        </mxCell>
        <mxCell id="Lb2E-xeNcWRumCF83qt6-16" style="edgeStyle=none;shape=connector;rounded=0;orthogonalLoop=1;jettySize=auto;html=1;exitX=0.5;exitY=0.5;exitDx=0;exitDy=0;exitPerimeter=0;entryX=0.5;entryY=0.5;entryDx=0;entryDy=0;entryPerimeter=0;strokeColor=default;align=center;verticalAlign=middle;fontFamily=Helvetica;fontSize=11;fontColor=default;labelBackgroundColor=default;startFill=0;endArrow=none;" parent="tYz1vPv6MC9sJOwBcN7z-2" source="eBzTgfLa1kKEBilJZ-4N-35" target="vj5q8sm1Q5aXYHxkzJwI-11" edge="1">
          <mxGeometry relative="1" as="geometry" />
        </mxCell>
        <mxCell id="Lb2E-xeNcWRumCF83qt6-18" value="" style="edgeStyle=none;shape=connector;rounded=0;orthogonalLoop=1;jettySize=auto;html=1;exitX=0.5;exitY=0.5;exitDx=0;exitDy=0;exitPerimeter=0;strokeColor=default;align=center;verticalAlign=middle;fontFamily=Helvetica;fontSize=11;fontColor=default;labelBackgroundColor=default;startFill=0;startSize=6;endArrow=none;endSize=6;entryX=0.5;entryY=0.5;entryDx=0;entryDy=0;entryPerimeter=0;" parent="tYz1vPv6MC9sJOwBcN7z-2" source="eBzTgfLa1kKEBilJZ-4N-31" target="eBzTgfLa1kKEBilJZ-4N-15" edge="1">
          <mxGeometry relative="1" as="geometry">
            <mxPoint x="5" y="155" as="sourcePoint" />
            <mxPoint x="35" y="15" as="targetPoint" />
          </mxGeometry>
        </mxCell>
        <mxCell id="Lb2E-xeNcWRumCF83qt6-17" style="edgeStyle=none;shape=connector;rounded=0;orthogonalLoop=1;jettySize=auto;html=1;exitX=0.5;exitY=0.5;exitDx=0;exitDy=0;exitPerimeter=0;entryX=0.5;entryY=0.5;entryDx=0;entryDy=0;entryPerimeter=0;strokeColor=default;align=center;verticalAlign=middle;fontFamily=Helvetica;fontSize=11;fontColor=default;labelBackgroundColor=default;startFill=0;endArrow=none;" parent="tYz1vPv6MC9sJOwBcN7z-2" source="eBzTgfLa1kKEBilJZ-4N-30" target="eBzTgfLa1kKEBilJZ-4N-6" edge="1">
          <mxGeometry relative="1" as="geometry" />
        </mxCell>
        <mxCell id="Lb2E-xeNcWRumCF83qt6-21" style="edgeStyle=none;shape=connector;rounded=0;orthogonalLoop=1;jettySize=auto;html=1;exitX=0.5;exitY=0.5;exitDx=0;exitDy=0;exitPerimeter=0;entryX=0.5;entryY=0.5;entryDx=0;entryDy=0;entryPerimeter=0;strokeColor=default;align=center;verticalAlign=middle;fontFamily=Helvetica;fontSize=11;fontColor=default;labelBackgroundColor=default;startFill=0;endArrow=none;" parent="tYz1vPv6MC9sJOwBcN7z-2" source="eBzTgfLa1kKEBilJZ-4N-41" target="eBzTgfLa1kKEBilJZ-4N-9" edge="1">
          <mxGeometry relative="1" as="geometry" />
        </mxCell>
        <mxCell id="Lb2E-xeNcWRumCF83qt6-24" style="edgeStyle=none;shape=connector;rounded=0;orthogonalLoop=1;jettySize=auto;html=1;exitX=0.5;exitY=0.5;exitDx=0;exitDy=0;exitPerimeter=0;entryX=0.5;entryY=0.5;entryDx=0;entryDy=0;entryPerimeter=0;strokeColor=default;align=center;verticalAlign=middle;fontFamily=Helvetica;fontSize=11;fontColor=default;labelBackgroundColor=default;startFill=0;endArrow=none;" parent="tYz1vPv6MC9sJOwBcN7z-2" source="eBzTgfLa1kKEBilJZ-4N-57" target="eBzTgfLa1kKEBilJZ-4N-41" edge="1">
          <mxGeometry relative="1" as="geometry" />
        </mxCell>
        <mxCell id="cb4JNykG4vl9RIHebCXz-9" value="Node" style="" parent="0" />
        <mxCell id="eBzTgfLa1kKEBilJZ-4N-44" value="" style="ellipse;whiteSpace=wrap;html=1;aspect=fixed;fillColor=#647687;strokeColor=#314354;fontColor=#ffffff;points=[[0.5,0.5,0,0,0]];container=0;" parent="cb4JNykG4vl9RIHebCXz-9" vertex="1">
          <mxGeometry x="800" y="150" width="30" height="30" as="geometry" />
        </mxCell>
        <mxCell id="eBzTgfLa1kKEBilJZ-4N-58" value="" style="ellipse;whiteSpace=wrap;html=1;aspect=fixed;fillColor=#647687;strokeColor=#314354;fontColor=#ffffff;points=[[0.5,0.5,0,0,0]];container=0;" parent="cb4JNykG4vl9RIHebCXz-9" vertex="1">
          <mxGeometry x="860" y="150" width="30" height="30" as="geometry" />
        </mxCell>
        <mxCell id="eBzTgfLa1kKEBilJZ-4N-24" value="" style="ellipse;whiteSpace=wrap;html=1;aspect=fixed;fillColor=#b1ddf0;strokeColor=#10739e;points=[[0.5,0.5,0,0,0]];container=0;" parent="cb4JNykG4vl9RIHebCXz-9" vertex="1">
          <mxGeometry x="900" y="170" width="30" height="30" as="geometry" />
        </mxCell>
        <mxCell id="eBzTgfLa1kKEBilJZ-4N-25" value="" style="ellipse;whiteSpace=wrap;html=1;aspect=fixed;fillColor=#b1ddf0;strokeColor=#10739e;points=[[0.5,0.5,0,0,0]];container=0;" parent="cb4JNykG4vl9RIHebCXz-9" vertex="1">
          <mxGeometry x="832.5" y="180" width="30" height="30" as="geometry" />
        </mxCell>
        <mxCell id="eBzTgfLa1kKEBilJZ-4N-59" value="" style="ellipse;whiteSpace=wrap;html=1;aspect=fixed;fillColor=#647687;strokeColor=#314354;fontColor=#ffffff;points=[[0.5,0.5,0,0,0]];container=0;" parent="cb4JNykG4vl9RIHebCXz-9" vertex="1">
          <mxGeometry x="780" y="190" width="30" height="30" as="geometry" />
        </mxCell>
        <mxCell id="eBzTgfLa1kKEBilJZ-4N-12" value="" style="ellipse;whiteSpace=wrap;html=1;aspect=fixed;fillColor=#647687;strokeColor=#314354;fontColor=#ffffff;points=[[0.5,0.5,0,0,0]];container=0;" parent="cb4JNykG4vl9RIHebCXz-9" vertex="1">
          <mxGeometry x="800" y="230" width="30" height="30" as="geometry" />
        </mxCell>
        <mxCell id="eBzTgfLa1kKEBilJZ-4N-19" value="" style="ellipse;whiteSpace=wrap;html=1;aspect=fixed;fillColor=#647687;strokeColor=#314354;fontColor=#ffffff;points=[[0.5,0.5,0,0,0]];container=0;" parent="cb4JNykG4vl9RIHebCXz-9" vertex="1">
          <mxGeometry x="860" y="200" width="30" height="30" as="geometry" />
        </mxCell>
        <mxCell id="eBzTgfLa1kKEBilJZ-4N-56" value="" style="ellipse;whiteSpace=wrap;html=1;aspect=fixed;fillColor=#b1ddf0;strokeColor=#10739e;points=[[0.5,0.5,0,0,0]];container=0;" parent="cb4JNykG4vl9RIHebCXz-9" vertex="1">
          <mxGeometry x="940" y="170" width="30" height="30" as="geometry" />
        </mxCell>
        <mxCell id="eBzTgfLa1kKEBilJZ-4N-57" value="" style="ellipse;whiteSpace=wrap;html=1;aspect=fixed;fillColor=#b1ddf0;strokeColor=#10739e;points=[[0.5,0.5,0,0,0]];container=0;" parent="cb4JNykG4vl9RIHebCXz-9" vertex="1">
          <mxGeometry x="990" y="210" width="30" height="30" as="geometry" />
        </mxCell>
        <mxCell id="eBzTgfLa1kKEBilJZ-4N-53" value="" style="ellipse;whiteSpace=wrap;html=1;aspect=fixed;fillColor=#647687;strokeColor=#314354;fontColor=#ffffff;points=[[0.5,0.5,0,0,0]];container=0;" parent="cb4JNykG4vl9RIHebCXz-9" vertex="1">
          <mxGeometry x="920" y="220" width="30" height="30" as="geometry" />
        </mxCell>
        <mxCell id="eBzTgfLa1kKEBilJZ-4N-41" value="" style="ellipse;whiteSpace=wrap;html=1;aspect=fixed;fillColor=#b1ddf0;strokeColor=#10739e;points=[[0.5,0.5,0,0,0]];container=0;" parent="cb4JNykG4vl9RIHebCXz-9" vertex="1">
          <mxGeometry x="900" y="260" width="30" height="30" as="geometry" />
        </mxCell>
        <mxCell id="eBzTgfLa1kKEBilJZ-4N-9" value="" style="ellipse;whiteSpace=wrap;html=1;aspect=fixed;fillColor=#e51400;strokeColor=#B20000;fontColor=#ffffff;points=[[0.5,0.5,0,0,0]];container=0;" parent="cb4JNykG4vl9RIHebCXz-9" vertex="1">
          <mxGeometry x="832.5" y="250" width="30" height="30" as="geometry" />
        </mxCell>
        <mxCell id="eBzTgfLa1kKEBilJZ-4N-8" value="" style="ellipse;whiteSpace=wrap;html=1;aspect=fixed;fillColor=#e51400;strokeColor=#B20000;fontColor=#ffffff;points=[[0.5,0.5,0,0,0]];container=0;" parent="cb4JNykG4vl9RIHebCXz-9" vertex="1">
          <mxGeometry x="770" y="280" width="30" height="30" as="geometry" />
        </mxCell>
        <mxCell id="eBzTgfLa1kKEBilJZ-4N-17" value="" style="ellipse;whiteSpace=wrap;html=1;aspect=fixed;fillColor=#647687;strokeColor=#314354;fontColor=#ffffff;points=[[0.5,0.5,0,0,0]];container=0;" parent="cb4JNykG4vl9RIHebCXz-9" vertex="1">
          <mxGeometry x="960" y="260" width="30" height="30" as="geometry" />
        </mxCell>
        <mxCell id="eBzTgfLa1kKEBilJZ-4N-42" value="" style="ellipse;whiteSpace=wrap;html=1;aspect=fixed;fillColor=#b1ddf0;strokeColor=#10739e;points=[[0.5,0.5,0,0,0]];container=0;" parent="cb4JNykG4vl9RIHebCXz-9" vertex="1">
          <mxGeometry x="990" y="170" width="30" height="30" as="geometry" />
        </mxCell>
        <mxCell id="eBzTgfLa1kKEBilJZ-4N-22" value="" style="ellipse;whiteSpace=wrap;html=1;aspect=fixed;fillColor=#647687;strokeColor=#314354;fontColor=#ffffff;points=[[0.5,0.5,0,0,0]];container=0;" parent="cb4JNykG4vl9RIHebCXz-9" vertex="1">
          <mxGeometry x="930" y="384" width="30" height="30" as="geometry" />
        </mxCell>
        <mxCell id="eBzTgfLa1kKEBilJZ-4N-39" value="" style="ellipse;whiteSpace=wrap;html=1;aspect=fixed;fillColor=#647687;strokeColor=#314354;fontColor=#ffffff;points=[[0.5,0.5,0,0,0]];container=0;" parent="cb4JNykG4vl9RIHebCXz-9" vertex="1">
          <mxGeometry x="990" y="290" width="30" height="30" as="geometry" />
        </mxCell>
        <mxCell id="eBzTgfLa1kKEBilJZ-4N-21" value="" style="ellipse;whiteSpace=wrap;html=1;aspect=fixed;fillColor=#647687;strokeColor=#314354;fontColor=#ffffff;points=[[0.5,0.5,0,0,0]];container=0;" parent="cb4JNykG4vl9RIHebCXz-9" vertex="1">
          <mxGeometry x="980" y="330" width="30" height="30" as="geometry" />
        </mxCell>
        <mxCell id="eBzTgfLa1kKEBilJZ-4N-7" value="" style="ellipse;whiteSpace=wrap;html=1;aspect=fixed;fillColor=#008a00;strokeColor=#005700;fontColor=#ffffff;points=[[0.5,0.5,0,0,0]];container=0;" parent="cb4JNykG4vl9RIHebCXz-9" vertex="1">
          <mxGeometry x="880" y="300" width="30" height="30" as="geometry" />
        </mxCell>
        <mxCell id="eBzTgfLa1kKEBilJZ-4N-10" value="" style="ellipse;whiteSpace=wrap;html=1;aspect=fixed;fillColor=#e51400;strokeColor=#B20000;fontColor=#ffffff;points=[[0.5,0.5,0,0,0]];container=0;" parent="cb4JNykG4vl9RIHebCXz-9" vertex="1">
          <mxGeometry x="850" y="350" width="30" height="30" as="geometry" />
        </mxCell>
        <mxCell id="eBzTgfLa1kKEBilJZ-4N-32" value="" style="ellipse;whiteSpace=wrap;html=1;aspect=fixed;fillColor=#b1ddf0;strokeColor=#10739e;points=[[0.5,0.5,0,0,0]];container=0;" parent="cb4JNykG4vl9RIHebCXz-9" vertex="1">
          <mxGeometry x="810" y="430" width="30" height="30" as="geometry" />
        </mxCell>
        <mxCell id="eBzTgfLa1kKEBilJZ-4N-20" value="" style="ellipse;whiteSpace=wrap;html=1;aspect=fixed;fillColor=#647687;strokeColor=#314354;fontColor=#ffffff;points=[[0.5,0.5,0,0,0]];container=0;" parent="cb4JNykG4vl9RIHebCXz-9" vertex="1">
          <mxGeometry x="900" y="350" width="30" height="30" as="geometry" />
        </mxCell>
        <mxCell id="eBzTgfLa1kKEBilJZ-4N-37" value="" style="ellipse;whiteSpace=wrap;html=1;aspect=fixed;fillColor=#b1ddf0;strokeColor=#10739e;points=[[0.5,0.5,0,0,0]];container=0;" parent="cb4JNykG4vl9RIHebCXz-9" vertex="1">
          <mxGeometry x="970" y="370" width="30" height="30" as="geometry" />
        </mxCell>
        <mxCell id="eBzTgfLa1kKEBilJZ-4N-50" value="" style="ellipse;whiteSpace=wrap;html=1;aspect=fixed;fillColor=#647687;strokeColor=#314354;fontColor=#ffffff;points=[[0.5,0.5,0,0,0]];container=0;" parent="cb4JNykG4vl9RIHebCXz-9" vertex="1">
          <mxGeometry x="940" y="430" width="30" height="30" as="geometry" />
        </mxCell>
        <mxCell id="eBzTgfLa1kKEBilJZ-4N-38" value="" style="ellipse;whiteSpace=wrap;html=1;aspect=fixed;fillColor=#647687;strokeColor=#314354;fontColor=#ffffff;points=[[0.5,0.5,0,0,0]];container=0;" parent="cb4JNykG4vl9RIHebCXz-9" vertex="1">
          <mxGeometry x="890" y="414" width="30" height="30" as="geometry" />
        </mxCell>
        <mxCell id="eBzTgfLa1kKEBilJZ-4N-35" value="" style="ellipse;whiteSpace=wrap;html=1;aspect=fixed;fillColor=#b1ddf0;strokeColor=#10739e;points=[[0.5,0.5,0,0,0]];container=0;" parent="cb4JNykG4vl9RIHebCXz-9" vertex="1">
          <mxGeometry x="830" y="390" width="30" height="30" as="geometry" />
        </mxCell>
        <mxCell id="eBzTgfLa1kKEBilJZ-4N-16" value="" style="ellipse;whiteSpace=wrap;html=1;aspect=fixed;fillColor=#647687;strokeColor=#314354;fontColor=#ffffff;points=[[0.5,0.5,0,0,0]];container=0;" parent="cb4JNykG4vl9RIHebCXz-9" vertex="1">
          <mxGeometry x="850" y="430" width="30" height="30" as="geometry" />
        </mxCell>
        <mxCell id="eBzTgfLa1kKEBilJZ-4N-31" value="" style="ellipse;whiteSpace=wrap;html=1;aspect=fixed;fillColor=#b1ddf0;strokeColor=#10739e;points=[[0.5,0.5,0,0,0]];container=0;" parent="cb4JNykG4vl9RIHebCXz-9" vertex="1">
          <mxGeometry x="760" y="430" width="30" height="30" as="geometry" />
        </mxCell>
        <mxCell id="eBzTgfLa1kKEBilJZ-4N-14" value="" style="ellipse;whiteSpace=wrap;html=1;aspect=fixed;fillColor=#647687;strokeColor=#314354;fontColor=#ffffff;points=[[0.5,0.5,0,0,0]];container=0;" parent="cb4JNykG4vl9RIHebCXz-9" vertex="1">
          <mxGeometry x="750" y="399" width="30" height="30" as="geometry" />
        </mxCell>
        <mxCell id="eBzTgfLa1kKEBilJZ-4N-47" value="" style="ellipse;whiteSpace=wrap;html=1;aspect=fixed;fillColor=#647687;strokeColor=#314354;fontColor=#ffffff;points=[[0.5,0.5,0,0,0]];container=0;" parent="cb4JNykG4vl9RIHebCXz-9" vertex="1">
          <mxGeometry x="710" y="414" width="30" height="30" as="geometry" />
        </mxCell>
        <mxCell id="eBzTgfLa1kKEBilJZ-4N-29" value="" style="ellipse;whiteSpace=wrap;html=1;aspect=fixed;fillColor=#b1ddf0;strokeColor=#10739e;points=[[0.5,0.5,0,0,0]];container=0;" parent="cb4JNykG4vl9RIHebCXz-9" vertex="1">
          <mxGeometry x="680" y="360" width="30" height="30" as="geometry" />
        </mxCell>
        <mxCell id="eBzTgfLa1kKEBilJZ-4N-30" value="" style="ellipse;whiteSpace=wrap;html=1;aspect=fixed;fillColor=#b1ddf0;strokeColor=#10739e;points=[[0.5,0.5,0,0,0]];container=0;" parent="cb4JNykG4vl9RIHebCXz-9" vertex="1">
          <mxGeometry x="730" y="340" width="30" height="30" as="geometry" />
        </mxCell>
        <mxCell id="eBzTgfLa1kKEBilJZ-4N-13" value="" style="ellipse;whiteSpace=wrap;html=1;aspect=fixed;fillColor=#647687;strokeColor=#314354;fontColor=#ffffff;points=[[0.5,0.5,0,0,0]];container=0;" parent="cb4JNykG4vl9RIHebCXz-9" vertex="1">
          <mxGeometry x="730" y="300" width="30" height="30" as="geometry" />
        </mxCell>
        <mxCell id="eBzTgfLa1kKEBilJZ-4N-46" value="" style="ellipse;whiteSpace=wrap;html=1;aspect=fixed;fillColor=#647687;strokeColor=#314354;fontColor=#ffffff;points=[[0.5,0.5,0,0,0]];container=0;" parent="cb4JNykG4vl9RIHebCXz-9" vertex="1">
          <mxGeometry x="680" y="320" width="30" height="30" as="geometry" />
        </mxCell>
        <mxCell id="eBzTgfLa1kKEBilJZ-4N-28" value="" style="ellipse;whiteSpace=wrap;html=1;aspect=fixed;fillColor=#b1ddf0;strokeColor=#10739e;points=[[0.5,0.5,0,0,0]];container=0;" parent="cb4JNykG4vl9RIHebCXz-9" vertex="1">
          <mxGeometry x="690" y="270" width="30" height="30" as="geometry" />
        </mxCell>
        <mxCell id="eBzTgfLa1kKEBilJZ-4N-27" value="" style="ellipse;whiteSpace=wrap;html=1;aspect=fixed;fillColor=#b1ddf0;strokeColor=#10739e;points=[[0.5,0.5,0,0,0]];container=0;" parent="cb4JNykG4vl9RIHebCXz-9" vertex="1">
          <mxGeometry x="690" y="230" width="30" height="30" as="geometry" />
        </mxCell>
        <mxCell id="eBzTgfLa1kKEBilJZ-4N-45" value="" style="ellipse;whiteSpace=wrap;html=1;aspect=fixed;fillColor=#647687;strokeColor=#314354;fontColor=#ffffff;points=[[0.5,0.5,0,0,0]];container=0;" parent="cb4JNykG4vl9RIHebCXz-9" vertex="1">
          <mxGeometry x="700" y="170" width="30" height="30" as="geometry" />
        </mxCell>
        <mxCell id="eBzTgfLa1kKEBilJZ-4N-11" value="" style="ellipse;whiteSpace=wrap;html=1;aspect=fixed;fillColor=#647687;strokeColor=#314354;fontColor=#ffffff;points=[[0.5,0.5,0,0,0]];container=0;" parent="cb4JNykG4vl9RIHebCXz-9" vertex="1">
          <mxGeometry x="740" y="190" width="30" height="30" as="geometry" />
        </mxCell>
        <mxCell id="eBzTgfLa1kKEBilJZ-4N-6" value="" style="ellipse;whiteSpace=wrap;html=1;aspect=fixed;fillColor=#008a00;strokeColor=#005700;fontColor=#ffffff;points=[[0.5,0.5,0,0,0]];container=0;" parent="cb4JNykG4vl9RIHebCXz-9" vertex="1">
          <mxGeometry x="770" y="330" width="30" height="30" as="geometry" />
        </mxCell>
        <mxCell id="eBzTgfLa1kKEBilJZ-4N-15" value="" style="ellipse;whiteSpace=wrap;html=1;aspect=fixed;fillColor=#647687;strokeColor=#314354;fontColor=#ffffff;points=[[0.5,0.5,0,0,0]];container=0;" parent="cb4JNykG4vl9RIHebCXz-9" vertex="1">
          <mxGeometry x="800" y="360" width="30" height="30" as="geometry" />
        </mxCell>
        <mxCell id="vj5q8sm1Q5aXYHxkzJwI-11" value="" style="ellipse;whiteSpace=wrap;html=1;aspect=fixed;fillColor=#008a00;strokeColor=#005700;fontColor=#ffffff;points=[[0.5,0.5,0,0,0]];container=0;" parent="cb4JNykG4vl9RIHebCXz-9" vertex="1">
          <mxGeometry x="820" y="290" width="30" height="30" as="geometry" />
        </mxCell>
      </root>
    </mxGraphModel>
  </diagram>
  <diagram name="GNN Layer" id="LngG9TWeDSwUeRHCMfOG">
    <mxGraphModel dx="390" dy="303" grid="1" gridSize="10" guides="1" tooltips="1" connect="1" arrows="1" fold="1" page="1" pageScale="1" pageWidth="1169" pageHeight="827" math="0" shadow="0">
      <root>
        <mxCell id="MfYyfWRIZg_lcZF9Fokr-0" />
        <mxCell id="MfYyfWRIZg_lcZF9Fokr-1" parent="MfYyfWRIZg_lcZF9Fokr-0" />
        <mxCell id="tsBz2fM6nJNGhKVRRA52-0" value="" style="group" connectable="0" vertex="1" parent="MfYyfWRIZg_lcZF9Fokr-1">
          <mxGeometry x="579.2857142857143" y="317.7871428571429" width="186.42857142857144" height="167.00285714285712" as="geometry" />
        </mxCell>
        <mxCell id="MfYyfWRIZg_lcZF9Fokr-4" style="rounded=0;orthogonalLoop=1;jettySize=auto;html=1;exitX=0.5;exitY=0.5;exitDx=0;exitDy=0;exitPerimeter=0;entryX=0.5;entryY=0.5;entryDx=0;entryDy=0;entryPerimeter=0;endArrow=none;startFill=0;fontFamily=Roboto;" edge="1" parent="tsBz2fM6nJNGhKVRRA52-0" source="MfYyfWRIZg_lcZF9Fokr-45" target="MfYyfWRIZg_lcZF9Fokr-33">
          <mxGeometry relative="1" as="geometry" />
        </mxCell>
        <mxCell id="MfYyfWRIZg_lcZF9Fokr-5" style="edgeStyle=none;shape=connector;rounded=0;orthogonalLoop=1;jettySize=auto;html=1;exitX=0.5;exitY=0.5;exitDx=0;exitDy=0;exitPerimeter=0;entryX=0.5;entryY=0.5;entryDx=0;entryDy=0;entryPerimeter=0;strokeColor=default;align=center;verticalAlign=middle;fontFamily=Roboto;fontSize=11;fontColor=default;labelBackgroundColor=default;startFill=0;startSize=6;endArrow=none;endSize=6;" edge="1" parent="tsBz2fM6nJNGhKVRRA52-0" source="MfYyfWRIZg_lcZF9Fokr-29" target="MfYyfWRIZg_lcZF9Fokr-32">
          <mxGeometry relative="1" as="geometry" />
        </mxCell>
        <mxCell id="MfYyfWRIZg_lcZF9Fokr-6" style="edgeStyle=none;shape=connector;rounded=0;orthogonalLoop=1;jettySize=auto;html=1;exitX=0.5;exitY=0.5;exitDx=0;exitDy=0;exitPerimeter=0;entryX=0.5;entryY=0.5;entryDx=0;entryDy=0;entryPerimeter=0;strokeColor=default;align=center;verticalAlign=middle;fontFamily=Roboto;fontSize=11;fontColor=default;labelBackgroundColor=default;startFill=0;endArrow=none;" edge="1" parent="tsBz2fM6nJNGhKVRRA52-0" source="MfYyfWRIZg_lcZF9Fokr-31" target="MfYyfWRIZg_lcZF9Fokr-32">
          <mxGeometry relative="1" as="geometry" />
        </mxCell>
        <mxCell id="MfYyfWRIZg_lcZF9Fokr-7" style="edgeStyle=none;shape=connector;rounded=0;orthogonalLoop=1;jettySize=auto;html=1;exitX=0.5;exitY=0.5;exitDx=0;exitDy=0;exitPerimeter=0;entryX=0.5;entryY=0.5;entryDx=0;entryDy=0;entryPerimeter=0;strokeColor=default;align=center;verticalAlign=middle;fontFamily=Roboto;fontSize=11;fontColor=default;labelBackgroundColor=default;startFill=0;startSize=6;endArrow=none;endSize=6;" edge="1" parent="tsBz2fM6nJNGhKVRRA52-0" source="MfYyfWRIZg_lcZF9Fokr-28" target="MfYyfWRIZg_lcZF9Fokr-33">
          <mxGeometry relative="1" as="geometry" />
        </mxCell>
        <mxCell id="MfYyfWRIZg_lcZF9Fokr-8" style="edgeStyle=none;shape=connector;rounded=0;orthogonalLoop=1;jettySize=auto;html=1;exitX=0.5;exitY=0.5;exitDx=0;exitDy=0;exitPerimeter=0;entryX=0.5;entryY=0.5;entryDx=0;entryDy=0;entryPerimeter=0;strokeColor=default;align=center;verticalAlign=middle;fontFamily=Roboto;fontSize=11;fontColor=default;labelBackgroundColor=default;startFill=0;startSize=6;endArrow=none;endSize=6;" edge="1" parent="tsBz2fM6nJNGhKVRRA52-0" source="MfYyfWRIZg_lcZF9Fokr-32" target="MfYyfWRIZg_lcZF9Fokr-33">
          <mxGeometry relative="1" as="geometry" />
        </mxCell>
        <mxCell id="MfYyfWRIZg_lcZF9Fokr-9" style="edgeStyle=none;shape=connector;rounded=0;orthogonalLoop=1;jettySize=auto;html=1;exitX=0.5;exitY=0.5;exitDx=0;exitDy=0;exitPerimeter=0;entryX=0.5;entryY=0.5;entryDx=0;entryDy=0;entryPerimeter=0;strokeColor=default;align=center;verticalAlign=middle;fontFamily=Roboto;fontSize=11;fontColor=default;labelBackgroundColor=default;startFill=0;endArrow=none;flowAnimation=1;" edge="1" parent="tsBz2fM6nJNGhKVRRA52-0" source="MfYyfWRIZg_lcZF9Fokr-34" target="MfYyfWRIZg_lcZF9Fokr-36">
          <mxGeometry relative="1" as="geometry">
            <mxPoint x="209.1428571428571" y="80.00285714285712" as="sourcePoint" />
          </mxGeometry>
        </mxCell>
        <mxCell id="MfYyfWRIZg_lcZF9Fokr-10" style="edgeStyle=none;shape=connector;rounded=0;orthogonalLoop=1;jettySize=auto;html=1;exitX=0.5;exitY=0.5;exitDx=0;exitDy=0;exitPerimeter=0;entryX=0.5;entryY=0.5;entryDx=0;entryDy=0;entryPerimeter=0;strokeColor=default;align=center;verticalAlign=middle;fontFamily=Roboto;fontSize=11;fontColor=default;labelBackgroundColor=default;startFill=0;startSize=6;endArrow=none;endSize=6;flowAnimation=1;" edge="1" parent="tsBz2fM6nJNGhKVRRA52-0" source="MfYyfWRIZg_lcZF9Fokr-35" target="MfYyfWRIZg_lcZF9Fokr-36">
          <mxGeometry relative="1" as="geometry" />
        </mxCell>
        <mxCell id="MfYyfWRIZg_lcZF9Fokr-11" style="rounded=0;orthogonalLoop=1;jettySize=auto;html=1;exitX=0.5;exitY=0.5;exitDx=0;exitDy=0;exitPerimeter=0;entryX=0.5;entryY=0.5;entryDx=0;entryDy=0;entryPerimeter=0;endArrow=none;startFill=0;startSize=6;endSize=6;fontFamily=Roboto;flowAnimation=1;" edge="1" parent="tsBz2fM6nJNGhKVRRA52-0" source="MfYyfWRIZg_lcZF9Fokr-32" target="MfYyfWRIZg_lcZF9Fokr-36">
          <mxGeometry relative="1" as="geometry" />
        </mxCell>
        <mxCell id="MfYyfWRIZg_lcZF9Fokr-12" style="edgeStyle=none;shape=connector;rounded=0;orthogonalLoop=1;jettySize=auto;html=1;exitX=0.5;exitY=0.5;exitDx=0;exitDy=0;exitPerimeter=0;entryX=0.5;entryY=0.5;entryDx=0;entryDy=0;entryPerimeter=0;strokeColor=default;align=center;verticalAlign=middle;fontFamily=Roboto;fontSize=11;fontColor=default;labelBackgroundColor=default;startFill=0;endArrow=none;" edge="1" parent="tsBz2fM6nJNGhKVRRA52-0" source="MfYyfWRIZg_lcZF9Fokr-32" target="MfYyfWRIZg_lcZF9Fokr-37">
          <mxGeometry relative="1" as="geometry" />
        </mxCell>
        <mxCell id="MfYyfWRIZg_lcZF9Fokr-13" style="edgeStyle=none;shape=connector;rounded=0;orthogonalLoop=1;jettySize=auto;html=1;exitX=0.5;exitY=0.5;exitDx=0;exitDy=0;exitPerimeter=0;entryX=0.5;entryY=0.5;entryDx=0;entryDy=0;entryPerimeter=0;strokeColor=default;align=center;verticalAlign=middle;fontFamily=Roboto;fontSize=11;fontColor=default;labelBackgroundColor=default;startFill=0;endArrow=none;" edge="1" parent="tsBz2fM6nJNGhKVRRA52-0" source="MfYyfWRIZg_lcZF9Fokr-37" target="MfYyfWRIZg_lcZF9Fokr-33">
          <mxGeometry relative="1" as="geometry" />
        </mxCell>
        <mxCell id="MfYyfWRIZg_lcZF9Fokr-14" style="edgeStyle=none;shape=connector;rounded=0;orthogonalLoop=1;jettySize=auto;html=1;exitX=0.5;exitY=0.5;exitDx=0;exitDy=0;exitPerimeter=0;entryX=0.5;entryY=0.5;entryDx=0;entryDy=0;entryPerimeter=0;strokeColor=default;align=center;verticalAlign=middle;fontFamily=Roboto;fontSize=11;fontColor=default;labelBackgroundColor=default;startFill=0;endArrow=none;flowAnimation=1;" edge="1" parent="tsBz2fM6nJNGhKVRRA52-0" source="MfYyfWRIZg_lcZF9Fokr-39" target="MfYyfWRIZg_lcZF9Fokr-36">
          <mxGeometry relative="1" as="geometry" />
        </mxCell>
        <mxCell id="MfYyfWRIZg_lcZF9Fokr-15" style="edgeStyle=none;shape=connector;rounded=0;orthogonalLoop=1;jettySize=auto;html=1;exitX=0.5;exitY=0.5;exitDx=0;exitDy=0;exitPerimeter=0;strokeColor=default;align=center;verticalAlign=middle;fontFamily=Roboto;fontSize=11;fontColor=default;labelBackgroundColor=default;startFill=0;startSize=6;endArrow=none;endSize=6;entryX=0.5;entryY=0.5;entryDx=0;entryDy=0;entryPerimeter=0;" edge="1" parent="tsBz2fM6nJNGhKVRRA52-0" source="MfYyfWRIZg_lcZF9Fokr-43" target="MfYyfWRIZg_lcZF9Fokr-33">
          <mxGeometry relative="1" as="geometry">
            <mxPoint x="48" y="62.860000000000014" as="targetPoint" />
          </mxGeometry>
        </mxCell>
        <mxCell id="MfYyfWRIZg_lcZF9Fokr-16" style="edgeStyle=none;shape=connector;rounded=0;orthogonalLoop=1;jettySize=auto;html=1;exitX=0.5;exitY=0.5;exitDx=0;exitDy=0;exitPerimeter=0;entryX=0.5;entryY=0.5;entryDx=0;entryDy=0;entryPerimeter=0;strokeColor=default;align=center;verticalAlign=middle;fontFamily=Roboto;fontSize=11;fontColor=default;labelBackgroundColor=default;startFill=0;startSize=6;endArrow=none;endSize=6;" edge="1" parent="tsBz2fM6nJNGhKVRRA52-0" source="MfYyfWRIZg_lcZF9Fokr-44" target="MfYyfWRIZg_lcZF9Fokr-33">
          <mxGeometry relative="1" as="geometry" />
        </mxCell>
        <mxCell id="MfYyfWRIZg_lcZF9Fokr-17" style="edgeStyle=none;shape=connector;rounded=0;orthogonalLoop=1;jettySize=auto;html=1;exitX=0.5;exitY=0.5;exitDx=0;exitDy=0;exitPerimeter=0;entryX=0.5;entryY=0.5;entryDx=0;entryDy=0;entryPerimeter=0;strokeColor=default;align=center;verticalAlign=middle;fontFamily=Roboto;fontSize=11;fontColor=default;labelBackgroundColor=default;startFill=0;endArrow=none;flowAnimation=1;" edge="1" parent="tsBz2fM6nJNGhKVRRA52-0" source="MfYyfWRIZg_lcZF9Fokr-45" target="MfYyfWRIZg_lcZF9Fokr-36">
          <mxGeometry relative="1" as="geometry" />
        </mxCell>
        <mxCell id="MfYyfWRIZg_lcZF9Fokr-18" style="edgeStyle=none;shape=connector;rounded=0;orthogonalLoop=1;jettySize=auto;html=1;exitX=0.5;exitY=0.5;exitDx=0;exitDy=0;exitPerimeter=0;entryX=0.5;entryY=0.5;entryDx=0;entryDy=0;entryPerimeter=0;strokeColor=default;align=center;verticalAlign=middle;fontFamily=Roboto;fontSize=11;fontColor=default;labelBackgroundColor=default;startFill=0;startSize=6;endArrow=none;endSize=6;" edge="1" parent="tsBz2fM6nJNGhKVRRA52-0" source="MfYyfWRIZg_lcZF9Fokr-40" target="MfYyfWRIZg_lcZF9Fokr-45">
          <mxGeometry relative="1" as="geometry" />
        </mxCell>
        <mxCell id="MfYyfWRIZg_lcZF9Fokr-19" style="edgeStyle=none;shape=connector;rounded=0;orthogonalLoop=1;jettySize=auto;html=1;exitX=0.5;exitY=0.5;exitDx=0;exitDy=0;exitPerimeter=0;strokeColor=default;align=center;verticalAlign=middle;fontFamily=Roboto;fontSize=11;fontColor=default;labelBackgroundColor=default;startFill=0;startSize=6;endArrow=none;endSize=6;entryX=0.5;entryY=0.5;entryDx=0;entryDy=0;entryPerimeter=0;" edge="1" parent="tsBz2fM6nJNGhKVRRA52-0" source="MfYyfWRIZg_lcZF9Fokr-42" target="MfYyfWRIZg_lcZF9Fokr-45">
          <mxGeometry relative="1" as="geometry">
            <mxPoint x="54.857142857142776" y="83.43142857142857" as="targetPoint" />
          </mxGeometry>
        </mxCell>
        <mxCell id="MfYyfWRIZg_lcZF9Fokr-20" style="edgeStyle=none;shape=connector;rounded=0;orthogonalLoop=1;jettySize=auto;html=1;exitX=0.5;exitY=0.5;exitDx=0;exitDy=0;exitPerimeter=0;entryX=0.5;entryY=0.5;entryDx=0;entryDy=0;entryPerimeter=0;strokeColor=default;align=center;verticalAlign=middle;fontFamily=Roboto;fontSize=11;fontColor=default;labelBackgroundColor=default;startFill=0;endArrow=none;" edge="1" parent="tsBz2fM6nJNGhKVRRA52-0" source="MfYyfWRIZg_lcZF9Fokr-41" target="MfYyfWRIZg_lcZF9Fokr-45">
          <mxGeometry relative="1" as="geometry" />
        </mxCell>
        <mxCell id="MfYyfWRIZg_lcZF9Fokr-21" style="edgeStyle=none;shape=connector;rounded=0;orthogonalLoop=1;jettySize=auto;html=1;exitX=0.5;exitY=0.5;exitDx=0;exitDy=0;exitPerimeter=0;strokeColor=default;align=center;verticalAlign=middle;fontFamily=Roboto;fontSize=11;fontColor=default;labelBackgroundColor=default;startFill=0;startSize=6;endArrow=none;endSize=6;entryX=0.5;entryY=0.5;entryDx=0;entryDy=0;entryPerimeter=0;" edge="1" parent="tsBz2fM6nJNGhKVRRA52-0" source="MfYyfWRIZg_lcZF9Fokr-46" target="MfYyfWRIZg_lcZF9Fokr-38">
          <mxGeometry relative="1" as="geometry" />
        </mxCell>
        <mxCell id="MfYyfWRIZg_lcZF9Fokr-22" style="edgeStyle=none;shape=connector;rounded=0;orthogonalLoop=1;jettySize=auto;html=1;exitX=0.5;exitY=0.5;exitDx=0;exitDy=0;exitPerimeter=0;entryX=0.5;entryY=0.5;entryDx=0;entryDy=0;entryPerimeter=0;strokeColor=default;align=center;verticalAlign=middle;fontFamily=Roboto;fontSize=11;fontColor=default;labelBackgroundColor=default;startFill=0;startSize=6;endArrow=none;endSize=6;" edge="1" parent="tsBz2fM6nJNGhKVRRA52-0" source="MfYyfWRIZg_lcZF9Fokr-45" target="MfYyfWRIZg_lcZF9Fokr-46">
          <mxGeometry relative="1" as="geometry" />
        </mxCell>
        <mxCell id="MfYyfWRIZg_lcZF9Fokr-23" style="edgeStyle=none;shape=connector;rounded=0;orthogonalLoop=1;jettySize=auto;html=1;exitX=0.5;exitY=0.5;exitDx=0;exitDy=0;exitPerimeter=0;entryX=0.5;entryY=0.5;entryDx=0;entryDy=0;entryPerimeter=0;strokeColor=default;align=center;verticalAlign=middle;fontFamily=Roboto;fontSize=11;fontColor=default;labelBackgroundColor=default;startFill=0;endArrow=none;" edge="1" parent="tsBz2fM6nJNGhKVRRA52-0" source="MfYyfWRIZg_lcZF9Fokr-30" target="MfYyfWRIZg_lcZF9Fokr-47">
          <mxGeometry relative="1" as="geometry" />
        </mxCell>
        <mxCell id="MfYyfWRIZg_lcZF9Fokr-24" style="edgeStyle=none;shape=connector;rounded=0;orthogonalLoop=1;jettySize=auto;html=1;exitX=0.5;exitY=0.5;exitDx=0;exitDy=0;exitPerimeter=0;strokeColor=default;align=center;verticalAlign=middle;fontFamily=Roboto;fontSize=11;fontColor=default;labelBackgroundColor=default;startFill=0;startSize=6;endArrow=none;endSize=6;entryX=0.5;entryY=0.5;entryDx=0;entryDy=0;entryPerimeter=0;" edge="1" parent="tsBz2fM6nJNGhKVRRA52-0" source="MfYyfWRIZg_lcZF9Fokr-46" target="MfYyfWRIZg_lcZF9Fokr-47">
          <mxGeometry relative="1" as="geometry" />
        </mxCell>
        <mxCell id="MfYyfWRIZg_lcZF9Fokr-25" style="edgeStyle=none;shape=connector;rounded=0;orthogonalLoop=1;jettySize=auto;html=1;exitX=0.5;exitY=0.5;exitDx=0;exitDy=0;exitPerimeter=0;entryX=0.5;entryY=0.5;entryDx=0;entryDy=0;entryPerimeter=0;strokeColor=default;align=center;verticalAlign=middle;fontFamily=Roboto;fontSize=11;fontColor=default;labelBackgroundColor=default;startFill=0;startSize=6;endArrow=none;endSize=6;flowAnimation=1;" edge="1" parent="tsBz2fM6nJNGhKVRRA52-0" source="MfYyfWRIZg_lcZF9Fokr-47" target="MfYyfWRIZg_lcZF9Fokr-36">
          <mxGeometry relative="1" as="geometry" />
        </mxCell>
        <mxCell id="MfYyfWRIZg_lcZF9Fokr-26" style="edgeStyle=none;shape=connector;rounded=0;orthogonalLoop=1;jettySize=auto;html=1;exitX=0.5;exitY=0.5;exitDx=0;exitDy=0;exitPerimeter=0;entryX=0.5;entryY=0.5;entryDx=0;entryDy=0;entryPerimeter=0;strokeColor=default;align=center;verticalAlign=middle;fontFamily=Roboto;fontSize=11;fontColor=default;labelBackgroundColor=default;startFill=0;startSize=6;endArrow=none;endSize=6;" edge="1" parent="tsBz2fM6nJNGhKVRRA52-0" source="MfYyfWRIZg_lcZF9Fokr-45" target="MfYyfWRIZg_lcZF9Fokr-47">
          <mxGeometry relative="1" as="geometry" />
        </mxCell>
        <mxCell id="MfYyfWRIZg_lcZF9Fokr-28" value="" style="ellipse;whiteSpace=wrap;html=1;aspect=fixed;fillColor=#647687;strokeColor=#314354;fontColor=#ffffff;points=[[0.5,0.5,0,0,0]];container=0;fontFamily=Roboto;" vertex="1" parent="tsBz2fM6nJNGhKVRRA52-0">
          <mxGeometry x="62.714285714285666" y="10.005714285714248" width="15" height="15" as="geometry" />
        </mxCell>
        <mxCell id="MfYyfWRIZg_lcZF9Fokr-29" value="" style="ellipse;whiteSpace=wrap;html=1;aspect=fixed;fillColor=#647687;strokeColor=#314354;fontColor=#ffffff;points=[[0.5,0.5,0,0,0]];container=0;fontFamily=Roboto;" vertex="1" parent="tsBz2fM6nJNGhKVRRA52-0">
          <mxGeometry x="109.71428571428567" y="1.1457142857142912" width="15" height="15" as="geometry" />
        </mxCell>
        <mxCell id="MfYyfWRIZg_lcZF9Fokr-30" value="" style="ellipse;whiteSpace=wrap;html=1;aspect=fixed;fillColor=#647687;strokeColor=#314354;fontColor=#ffffff;points=[[0.5,0.5,0,0,0]];container=0;fontFamily=Roboto;" vertex="1" parent="tsBz2fM6nJNGhKVRRA52-0">
          <mxGeometry x="111.42857142857144" y="131.43142857142857" width="15" height="15" as="geometry" />
        </mxCell>
        <mxCell id="MfYyfWRIZg_lcZF9Fokr-31" value="" style="ellipse;whiteSpace=wrap;html=1;aspect=fixed;fillColor=#b1ddf0;strokeColor=#10739e;points=[[0.5,0.5,0,0,0]];container=0;fontFamily=Roboto;" vertex="1" parent="tsBz2fM6nJNGhKVRRA52-0">
          <mxGeometry x="130.28571428571422" y="21.717142857142846" width="15" height="15" as="geometry" />
        </mxCell>
        <mxCell id="MfYyfWRIZg_lcZF9Fokr-32" value="" style="ellipse;whiteSpace=wrap;html=1;aspect=fixed;fillColor=#e51400;strokeColor=#B20000;fontColor=#ffffff;points=[[0.5,0.5,0,0,0]];container=0;fontFamily=Roboto;" vertex="1" parent="tsBz2fM6nJNGhKVRRA52-0">
          <mxGeometry x="90.85714285714278" y="35.43142857142857" width="15" height="15" as="geometry" />
        </mxCell>
        <mxCell id="MfYyfWRIZg_lcZF9Fokr-33" value="" style="ellipse;whiteSpace=wrap;html=1;aspect=fixed;fillColor=#e51400;strokeColor=#B20000;fontColor=#ffffff;points=[[0.5,0.5,0,0,0]];container=0;fontFamily=Roboto;" vertex="1" parent="tsBz2fM6nJNGhKVRRA52-0">
          <mxGeometry x="48" y="42.2885714285714" width="15" height="15" as="geometry" />
        </mxCell>
        <mxCell id="MfYyfWRIZg_lcZF9Fokr-34" value="" style="ellipse;whiteSpace=wrap;html=1;aspect=fixed;fillColor=#647687;strokeColor=#314354;fontColor=#ffffff;points=[[0.5,0.5,0,0,0]];container=0;fontFamily=Roboto;" vertex="1" parent="tsBz2fM6nJNGhKVRRA52-0">
          <mxGeometry x="164.57142857142856" y="39.99857142857138" width="15" height="15" as="geometry" />
        </mxCell>
        <mxCell id="MfYyfWRIZg_lcZF9Fokr-35" value="" style="ellipse;whiteSpace=wrap;html=1;aspect=fixed;fillColor=#647687;strokeColor=#314354;fontColor=#ffffff;points=[[0.5,0.5,0,0,0]];container=0;fontFamily=Roboto;" vertex="1" parent="tsBz2fM6nJNGhKVRRA52-0">
          <mxGeometry x="171.42857142857144" y="83.43142857142857" width="15" height="15" as="geometry" />
        </mxCell>
        <mxCell id="MfYyfWRIZg_lcZF9Fokr-36" value="" style="ellipse;whiteSpace=wrap;html=1;aspect=fixed;fillColor=#008a00;strokeColor=#005700;fontColor=#ffffff;points=[[0.5,0.5,0,0,0]];container=0;fontFamily=Roboto;" vertex="1" parent="tsBz2fM6nJNGhKVRRA52-0">
          <mxGeometry x="123.42857142857144" y="69.71714285714285" width="15" height="15" as="geometry" />
        </mxCell>
        <mxCell id="MfYyfWRIZg_lcZF9Fokr-37" value="" style="ellipse;whiteSpace=wrap;html=1;aspect=fixed;fillColor=#e51400;strokeColor=#B20000;fontColor=#ffffff;points=[[0.5,0.5,0,0,0]];container=0;fontFamily=Roboto;" vertex="1" parent="tsBz2fM6nJNGhKVRRA52-0">
          <mxGeometry x="82.28571428571422" y="62.860000000000014" width="15" height="15" as="geometry" />
        </mxCell>
        <mxCell id="MfYyfWRIZg_lcZF9Fokr-38" value="" style="ellipse;whiteSpace=wrap;html=1;aspect=fixed;fillColor=#b1ddf0;strokeColor=#10739e;points=[[0.5,0.5,0,0,0]];container=0;fontFamily=Roboto;" vertex="1" parent="tsBz2fM6nJNGhKVRRA52-0">
          <mxGeometry x="68.57142857142856" y="152.00285714285712" width="15" height="15" as="geometry" />
        </mxCell>
        <mxCell id="MfYyfWRIZg_lcZF9Fokr-39" value="" style="ellipse;whiteSpace=wrap;html=1;aspect=fixed;fillColor=#b1ddf0;strokeColor=#10739e;points=[[0.5,0.5,0,0,0]];container=0;fontFamily=Roboto;" vertex="1" parent="tsBz2fM6nJNGhKVRRA52-0">
          <mxGeometry x="150.85714285714278" y="110.86000000000001" width="15" height="15" as="geometry" />
        </mxCell>
        <mxCell id="MfYyfWRIZg_lcZF9Fokr-40" value="" style="ellipse;whiteSpace=wrap;html=1;aspect=fixed;fillColor=#647687;strokeColor=#314354;fontColor=#ffffff;points=[[0.5,0.5,0,0,0]];container=0;fontFamily=Roboto;" vertex="1" parent="tsBz2fM6nJNGhKVRRA52-0">
          <mxGeometry x="20.571428571428555" y="131.43142857142857" width="15" height="15" as="geometry" />
        </mxCell>
        <mxCell id="MfYyfWRIZg_lcZF9Fokr-41" value="" style="ellipse;whiteSpace=wrap;html=1;aspect=fixed;fillColor=#b1ddf0;strokeColor=#10739e;points=[[0.5,0.5,0,0,0]];container=0;fontFamily=Roboto;" vertex="1" parent="tsBz2fM6nJNGhKVRRA52-0">
          <mxGeometry x="10.28571428571422" y="104.00285714285712" width="15" height="15" as="geometry" />
        </mxCell>
        <mxCell id="MfYyfWRIZg_lcZF9Fokr-42" value="" style="ellipse;whiteSpace=wrap;html=1;aspect=fixed;fillColor=#647687;strokeColor=#314354;fontColor=#ffffff;points=[[0.5,0.5,0,0,0]];container=0;fontFamily=Roboto;" vertex="1" parent="tsBz2fM6nJNGhKVRRA52-0">
          <mxGeometry y="69.71714285714285" width="15" height="15" as="geometry" />
        </mxCell>
        <mxCell id="MfYyfWRIZg_lcZF9Fokr-43" value="" style="ellipse;whiteSpace=wrap;html=1;aspect=fixed;fillColor=#b1ddf0;strokeColor=#10739e;points=[[0.5,0.5,0,0,0]];container=0;fontFamily=Roboto;" vertex="1" parent="tsBz2fM6nJNGhKVRRA52-0">
          <mxGeometry y="35.43142857142857" width="15" height="15" as="geometry" />
        </mxCell>
        <mxCell id="MfYyfWRIZg_lcZF9Fokr-44" value="" style="ellipse;whiteSpace=wrap;html=1;aspect=fixed;fillColor=#647687;strokeColor=#314354;fontColor=#ffffff;points=[[0.5,0.5,0,0,0]];container=0;fontFamily=Roboto;" vertex="1" parent="tsBz2fM6nJNGhKVRRA52-0">
          <mxGeometry x="25.71142857142854" width="15" height="15" as="geometry" />
        </mxCell>
        <mxCell id="MfYyfWRIZg_lcZF9Fokr-45" value="" style="ellipse;whiteSpace=wrap;html=1;aspect=fixed;fillColor=#008a00;strokeColor=#005700;fontColor=#ffffff;points=[[0.5,0.5,0,0,0]];container=0;fontFamily=Roboto;" vertex="1" parent="tsBz2fM6nJNGhKVRRA52-0">
          <mxGeometry x="48" y="83.43142857142857" width="15" height="15" as="geometry" />
        </mxCell>
        <mxCell id="MfYyfWRIZg_lcZF9Fokr-46" value="" style="ellipse;whiteSpace=wrap;html=1;aspect=fixed;fillColor=#647687;strokeColor=#314354;fontColor=#ffffff;points=[[0.5,0.5,0,0,0]];container=0;fontFamily=Roboto;" vertex="1" parent="tsBz2fM6nJNGhKVRRA52-0">
          <mxGeometry x="75.42857142857144" y="110.86000000000001" width="15" height="15" as="geometry" />
        </mxCell>
        <mxCell id="MfYyfWRIZg_lcZF9Fokr-47" value="" style="ellipse;whiteSpace=wrap;html=1;aspect=fixed;fillColor=#008a00;strokeColor=#005700;fontColor=#ffffff;points=[[0.5,0.5,0,0,0]];container=0;fontFamily=Roboto;" vertex="1" parent="tsBz2fM6nJNGhKVRRA52-0">
          <mxGeometry x="102.85714285714278" y="97.14571428571423" width="15" height="15" as="geometry" />
        </mxCell>
      </root>
    </mxGraphModel>
  </diagram>
  <diagram id="OS3bu-7HPKuij0iqZ-ck" name="Legend">
    <mxGraphModel dx="1426" dy="893" grid="1" gridSize="10" guides="1" tooltips="1" connect="1" arrows="1" fold="1" page="1" pageScale="1" pageWidth="1169" pageHeight="827" math="0" shadow="0">
      <root>
        <mxCell id="0" />
        <mxCell id="1" parent="0" />
        <mxCell id="4lZhuxPgIWSZyln2ly0E-1" value="" style="group" vertex="1" connectable="0" parent="1">
          <mxGeometry x="280" y="295" width="140" height="120" as="geometry" />
        </mxCell>
        <mxCell id="4lZhuxPgIWSZyln2ly0E-2" value="&lt;font style=&quot;font-size: 14px;&quot;&gt;&lt;b style=&quot;&quot;&gt;Legend&lt;/b&gt;&lt;/font&gt;" style="rounded=1;whiteSpace=wrap;html=1;fontFamily=Roboto;fontSize=11;fontColor=default;labelBackgroundColor=default;verticalAlign=top;" vertex="1" parent="4lZhuxPgIWSZyln2ly0E-1">
          <mxGeometry width="140" height="120" as="geometry" />
        </mxCell>
        <mxCell id="4lZhuxPgIWSZyln2ly0E-3" value="" style="group" vertex="1" connectable="0" parent="4lZhuxPgIWSZyln2ly0E-1">
          <mxGeometry x="11" y="28.999999999999943" width="118" height="80" as="geometry" />
        </mxCell>
        <mxCell id="4lZhuxPgIWSZyln2ly0E-4" value="" style="ellipse;whiteSpace=wrap;html=1;aspect=fixed;fillColor=#e51400;strokeColor=#B20000;fontColor=#ffffff;points=[[0.5,0.5,0,0,0]];container=0;fontFamily=Roboto;fontSize=15;" vertex="1" parent="4lZhuxPgIWSZyln2ly0E-3">
          <mxGeometry y="22" width="15" height="15" as="geometry" />
        </mxCell>
        <mxCell id="4lZhuxPgIWSZyln2ly0E-5" value="Real News" style="text;html=1;align=right;verticalAlign=middle;whiteSpace=wrap;rounded=0;fontFamily=Roboto;fontSize=12;fontColor=default;labelBackgroundColor=none;" vertex="1" parent="4lZhuxPgIWSZyln2ly0E-3">
          <mxGeometry x="18" width="100" height="20" as="geometry" />
        </mxCell>
        <mxCell id="4lZhuxPgIWSZyln2ly0E-6" value="" style="ellipse;whiteSpace=wrap;html=1;aspect=fixed;fillColor=#647687;strokeColor=#314354;fontColor=#ffffff;points=[[0.5,0.5,0,0,0]];container=0;fontFamily=Roboto;fontSize=15;" vertex="1" parent="4lZhuxPgIWSZyln2ly0E-3">
          <mxGeometry y="42" width="15" height="15" as="geometry" />
        </mxCell>
        <mxCell id="4lZhuxPgIWSZyln2ly0E-7" value="" style="ellipse;whiteSpace=wrap;html=1;aspect=fixed;fillColor=#b1ddf0;strokeColor=#10739e;points=[[0.5,0.5,0,0,0]];container=0;fontFamily=Roboto;fontSize=15;" vertex="1" parent="4lZhuxPgIWSZyln2ly0E-3">
          <mxGeometry y="62" width="15" height="15" as="geometry" />
        </mxCell>
        <mxCell id="4lZhuxPgIWSZyln2ly0E-8" value="" style="ellipse;whiteSpace=wrap;html=1;aspect=fixed;fillColor=#008a00;strokeColor=#005700;fontColor=#ffffff;points=[[0.5,0.5,0,0,0]];container=0;fontFamily=Roboto;fontSize=15;" vertex="1" parent="4lZhuxPgIWSZyln2ly0E-3">
          <mxGeometry y="2" width="15" height="15" as="geometry" />
        </mxCell>
        <mxCell id="4lZhuxPgIWSZyln2ly0E-9" value="Fake News" style="text;html=1;align=right;verticalAlign=middle;whiteSpace=wrap;rounded=0;fontFamily=Roboto;fontSize=12;fontColor=default;labelBackgroundColor=none;" vertex="1" parent="4lZhuxPgIWSZyln2ly0E-3">
          <mxGeometry x="18" y="20" width="100" height="20" as="geometry" />
        </mxCell>
        <mxCell id="4lZhuxPgIWSZyln2ly0E-10" value="Unlabeled News" style="text;html=1;align=right;verticalAlign=middle;whiteSpace=wrap;rounded=0;fontFamily=Roboto;fontSize=12;fontColor=default;labelBackgroundColor=none;" vertex="1" parent="4lZhuxPgIWSZyln2ly0E-3">
          <mxGeometry x="18" y="40" width="100" height="20" as="geometry" />
        </mxCell>
        <mxCell id="4lZhuxPgIWSZyln2ly0E-11" value="Test News" style="text;html=1;align=right;verticalAlign=middle;whiteSpace=wrap;rounded=0;fontFamily=Roboto;fontSize=12;fontColor=default;labelBackgroundColor=none;" vertex="1" parent="4lZhuxPgIWSZyln2ly0E-3">
          <mxGeometry x="18" y="60" width="100" height="20" as="geometry" />
        </mxCell>
      </root>
    </mxGraphModel>
  </diagram>
</mxfile>
